%
M48
M72
T01C0.0120
T02C0.0400
%
T01
X7511Y3789
X8275Y5125
X9875Y6475
X10400Y6525
X10550Y7775
X9875Y7875
X8100Y7925
X7511Y9989
X8275Y11325
X9875Y12675
X10400Y12725
X10550Y13975
X9875Y14075
X8100Y14125
X7511Y16189
X8275Y17525
X9875Y18875
X10400Y18925
X10550Y20175
X9875Y20275
X8100Y20325
X7511Y22389
X8275Y23725
X9875Y25075
X10400Y25125
X10550Y26375
X9875Y26475
X8100Y26525
X7511Y28589
X8275Y29925
X9875Y31275
X10400Y31325
X10550Y32575
X9875Y32675
X8100Y32725
X12375Y31675
X13450Y30453
X13900Y30213
X13425Y29961
X13425Y29641
X13425Y28675
X13650Y27225
X11375Y29175
X12375Y25475
X13450Y24253
X13425Y23761
X13425Y23441
X13900Y24013
X13425Y22475
X13650Y21025
X12375Y19275
X13450Y18053
X13425Y17561
X13425Y17241
X13900Y17813
X13425Y16275
X13650Y14825
X12375Y13075
X13450Y11853
X13425Y11361
X13425Y11041
X13900Y11613
X13425Y10075
X13650Y8625
X12375Y6875
X13450Y5653
X13425Y5161
X13425Y4841
X13900Y5413
X13425Y3875
X11375Y4375
X11375Y10575
X11375Y16775
X11375Y22975
X20211Y22389
X20975Y23725
X22575Y25075
X23100Y25125
X23250Y26375
X22575Y26475
X20800Y26525
X20211Y28589
X20975Y29925
X22575Y31275
X23100Y31325
X23250Y32575
X22575Y32675
X20800Y32725
X25075Y31675
X26150Y30453
X26600Y30213
X26125Y29961
X26125Y29641
X26125Y28675
X26350Y27225
X24075Y29175
X25075Y25475
X26150Y24253
X26125Y23761
X26125Y23441
X26600Y24013
X26125Y22475
X26350Y21025
X25075Y19275
X26150Y18053
X26125Y17561
X26125Y17241
X26600Y17813
X26125Y16275
X26350Y14825
X25075Y13075
X26150Y11853
X26125Y11361
X26125Y11041
X26600Y11613
X26125Y10075
X26350Y8625
X25075Y6875
X26150Y5653
X26125Y5161
X26125Y4841
X26600Y5413
X26125Y3875
X24075Y4375
X22575Y6475
X23100Y6525
X23250Y7775
X22575Y7875
X20800Y7925
X20211Y9989
X20975Y11325
X22575Y12675
X23100Y12725
X23250Y13975
X22575Y14075
X20800Y14125
X20211Y16189
X20975Y17525
X22575Y18875
X23100Y18925
X23250Y20175
X22575Y20275
X20800Y20325
X24075Y22975
X24075Y16775
X24075Y10575
X20975Y5125
X20211Y3789
X32911Y3789
X33675Y5125
X35275Y6475
X35800Y6525
X35950Y7775
X35275Y7875
X33500Y7925
X32911Y9989
X33675Y11325
X35275Y12675
X35800Y12725
X35950Y13975
X35275Y14075
X33500Y14125
X32911Y16189
X33675Y17525
X35275Y18875
X35800Y18925
X35950Y20175
X35275Y20275
X33500Y20325
X32911Y22389
X33675Y23725
X35275Y25075
X35800Y25125
X37775Y25475
X38850Y24253
X38825Y23761
X38825Y23441
X39300Y24013
X38825Y22475
X39050Y21025
X37775Y19275
X38850Y18053
X38825Y17561
X38825Y17241
X39300Y17813
X38825Y16275
X39050Y14825
X37775Y13075
X38850Y11853
X38825Y11361
X38825Y11041
X39300Y11613
X38825Y10075
X39050Y8625
X37775Y6875
X38850Y5653
X38825Y5161
X38825Y4841
X39300Y5413
X38825Y3875
X36775Y4375
X36775Y10575
X36775Y16775
X36775Y22975
X35950Y26375
X35275Y26475
X33500Y26525
X32911Y28589
X33675Y29925
X35275Y31275
X35800Y31325
X35950Y32575
X35275Y32675
X33500Y32725
X37775Y31675
X38850Y30453
X39300Y30213
X38825Y29961
X38825Y29641
X38825Y28675
X39050Y27225
X36775Y29175
X39050Y33425
X26350Y33425
X13650Y33425
T02
X14875Y33175
X14875Y32175
X14875Y31175
X14875Y30175
X14875Y29175
X14875Y28175
X14875Y26975
X14875Y25975
X14875Y24975
X14875Y23975
X14875Y22975
X14875Y21975
X14875Y20775
X14875Y19775
X14875Y18775
X14875Y17775
X14875Y16775
X14875Y15775
X14875Y14575
X14875Y13575
X14875Y12575
X14875Y11575
X14875Y10575
X14875Y9575
X14875Y8375
X14875Y7375
X14875Y6375
X14875Y5375
X14875Y4375
X14875Y3375
X27575Y3375
X27575Y4375
X27575Y5375
X27575Y6375
X27575Y7375
X27575Y8375
X27575Y9575
X27575Y10575
X27575Y11575
X27575Y12575
X27575Y13575
X27575Y14575
X27575Y15775
X27575Y16775
X27575Y17775
X27575Y18775
X27575Y19775
X27575Y20775
X27575Y21975
X27575Y22975
X27575Y23975
X27575Y24975
X27575Y25975
X27575Y26975
X27575Y28175
X27575Y29175
X27575Y30175
X27575Y31175
X27575Y32175
X27575Y33175
X40275Y33175
X40275Y32175
X40275Y31175
X40275Y30175
X40275Y29175
X40275Y28175
X40275Y26975
X40275Y25975
X40275Y24975
X40275Y23975
X40275Y22975
X40275Y21975
X40275Y20775
X40275Y19775
X40275Y18775
X40275Y17775
X40275Y16775
X40275Y15775
X40275Y14575
X40275Y13575
X40275Y12575
X40275Y11575
X40275Y10575
X40275Y9575
X40275Y8375
X40275Y7375
X40275Y6375
X40275Y5375
X40275Y4375
X40275Y3375
M30
