G75*
%MOIN*%
%OFA0B0*%
%FSLAX25Y25*%
%IPPOS*%
%LPD*%
%AMOC8*
5,1,8,0,0,1.08239X$1,22.5*
%
%ADD10C,0.00600*%
%ADD11C,0.07400*%
%ADD12C,0.02500*%
%ADD13C,0.02400*%
%ADD14C,0.01000*%
D10*
X0056172Y0029800D02*
X0058061Y0029800D01*
X0057117Y0029800D02*
X0057117Y0033200D01*
X0058061Y0032444D01*
X0061661Y0031500D02*
X0061659Y0031402D01*
X0061654Y0031305D01*
X0061646Y0031207D01*
X0061634Y0031110D01*
X0061618Y0031014D01*
X0061600Y0030918D01*
X0061578Y0030822D01*
X0061553Y0030728D01*
X0061524Y0030634D01*
X0061492Y0030542D01*
X0061457Y0030451D01*
X0061419Y0030361D01*
X0061378Y0030272D01*
X0061472Y0030556D02*
X0059961Y0032444D01*
X0060056Y0032728D02*
X0060074Y0032775D01*
X0060096Y0032821D01*
X0060121Y0032866D01*
X0060149Y0032908D01*
X0060180Y0032949D01*
X0060214Y0032987D01*
X0060251Y0033022D01*
X0060290Y0033055D01*
X0060332Y0033084D01*
X0060375Y0033111D01*
X0060421Y0033134D01*
X0060468Y0033154D01*
X0060516Y0033170D01*
X0060565Y0033183D01*
X0060615Y0033193D01*
X0060666Y0033198D01*
X0060717Y0033200D01*
X0060768Y0033198D01*
X0060819Y0033193D01*
X0060869Y0033183D01*
X0060918Y0033170D01*
X0060966Y0033154D01*
X0061013Y0033134D01*
X0061059Y0033111D01*
X0061102Y0033084D01*
X0061144Y0033055D01*
X0061183Y0033022D01*
X0061220Y0032987D01*
X0061254Y0032949D01*
X0061285Y0032908D01*
X0061313Y0032866D01*
X0061338Y0032821D01*
X0061360Y0032775D01*
X0061378Y0032728D01*
X0060055Y0032728D02*
X0060014Y0032639D01*
X0059976Y0032549D01*
X0059941Y0032458D01*
X0059909Y0032366D01*
X0059880Y0032272D01*
X0059855Y0032178D01*
X0059833Y0032082D01*
X0059815Y0031986D01*
X0059799Y0031890D01*
X0059787Y0031793D01*
X0059779Y0031695D01*
X0059774Y0031598D01*
X0059772Y0031500D01*
X0061661Y0031500D02*
X0061659Y0031598D01*
X0061654Y0031695D01*
X0061646Y0031793D01*
X0061634Y0031890D01*
X0061618Y0031986D01*
X0061600Y0032082D01*
X0061578Y0032178D01*
X0061553Y0032272D01*
X0061524Y0032366D01*
X0061492Y0032458D01*
X0061457Y0032549D01*
X0061419Y0032639D01*
X0061378Y0032728D01*
X0059772Y0031500D02*
X0059774Y0031402D01*
X0059779Y0031305D01*
X0059787Y0031207D01*
X0059799Y0031110D01*
X0059815Y0031014D01*
X0059833Y0030918D01*
X0059855Y0030822D01*
X0059880Y0030728D01*
X0059909Y0030634D01*
X0059941Y0030542D01*
X0059976Y0030451D01*
X0060014Y0030361D01*
X0060055Y0030272D01*
X0060717Y0029800D02*
X0060768Y0029802D01*
X0060819Y0029807D01*
X0060869Y0029817D01*
X0060918Y0029830D01*
X0060966Y0029846D01*
X0061013Y0029866D01*
X0061059Y0029889D01*
X0061102Y0029916D01*
X0061144Y0029945D01*
X0061183Y0029978D01*
X0061220Y0030013D01*
X0061254Y0030051D01*
X0061285Y0030092D01*
X0061313Y0030134D01*
X0061338Y0030179D01*
X0061360Y0030225D01*
X0061378Y0030272D01*
X0060717Y0029800D02*
X0060666Y0029802D01*
X0060615Y0029807D01*
X0060565Y0029817D01*
X0060516Y0029830D01*
X0060468Y0029846D01*
X0060421Y0029866D01*
X0060375Y0029889D01*
X0060332Y0029916D01*
X0060290Y0029945D01*
X0060251Y0029978D01*
X0060214Y0030013D01*
X0060180Y0030051D01*
X0060149Y0030092D01*
X0060121Y0030134D01*
X0060096Y0030179D01*
X0060074Y0030225D01*
X0060056Y0030272D01*
X0063183Y0029800D02*
X0065450Y0033200D01*
X0063183Y0033200D02*
X0065450Y0029800D01*
X0075108Y0037892D02*
X0075108Y0045108D01*
X0081250Y0051250D01*
X0082750Y0051250D01*
X0065450Y0091800D02*
X0063183Y0095200D01*
X0059772Y0093500D02*
X0059774Y0093402D01*
X0059779Y0093305D01*
X0059787Y0093207D01*
X0059799Y0093110D01*
X0059815Y0093014D01*
X0059833Y0092918D01*
X0059855Y0092822D01*
X0059880Y0092728D01*
X0059909Y0092634D01*
X0059941Y0092542D01*
X0059976Y0092451D01*
X0060014Y0092361D01*
X0060055Y0092272D01*
X0060717Y0091800D02*
X0060768Y0091802D01*
X0060819Y0091807D01*
X0060869Y0091817D01*
X0060918Y0091830D01*
X0060966Y0091846D01*
X0061013Y0091866D01*
X0061059Y0091889D01*
X0061102Y0091916D01*
X0061144Y0091945D01*
X0061183Y0091978D01*
X0061220Y0092013D01*
X0061254Y0092051D01*
X0061285Y0092092D01*
X0061313Y0092134D01*
X0061338Y0092179D01*
X0061360Y0092225D01*
X0061378Y0092272D01*
X0061472Y0092556D02*
X0059961Y0094444D01*
X0060056Y0094728D02*
X0060074Y0094775D01*
X0060096Y0094821D01*
X0060121Y0094866D01*
X0060149Y0094908D01*
X0060180Y0094949D01*
X0060214Y0094987D01*
X0060251Y0095022D01*
X0060290Y0095055D01*
X0060332Y0095084D01*
X0060375Y0095111D01*
X0060421Y0095134D01*
X0060468Y0095154D01*
X0060516Y0095170D01*
X0060565Y0095183D01*
X0060615Y0095193D01*
X0060666Y0095198D01*
X0060717Y0095200D01*
X0060768Y0095198D01*
X0060819Y0095193D01*
X0060869Y0095183D01*
X0060918Y0095170D01*
X0060966Y0095154D01*
X0061013Y0095134D01*
X0061059Y0095111D01*
X0061102Y0095084D01*
X0061144Y0095055D01*
X0061183Y0095022D01*
X0061220Y0094987D01*
X0061254Y0094949D01*
X0061285Y0094908D01*
X0061313Y0094866D01*
X0061338Y0094821D01*
X0061360Y0094775D01*
X0061378Y0094728D01*
X0060055Y0094728D02*
X0060014Y0094639D01*
X0059976Y0094549D01*
X0059941Y0094458D01*
X0059909Y0094366D01*
X0059880Y0094272D01*
X0059855Y0094178D01*
X0059833Y0094082D01*
X0059815Y0093986D01*
X0059799Y0093890D01*
X0059787Y0093793D01*
X0059779Y0093695D01*
X0059774Y0093598D01*
X0059772Y0093500D01*
X0061661Y0093500D02*
X0061659Y0093598D01*
X0061654Y0093695D01*
X0061646Y0093793D01*
X0061634Y0093890D01*
X0061618Y0093986D01*
X0061600Y0094082D01*
X0061578Y0094178D01*
X0061553Y0094272D01*
X0061524Y0094366D01*
X0061492Y0094458D01*
X0061457Y0094549D01*
X0061419Y0094639D01*
X0061378Y0094728D01*
X0060056Y0092272D02*
X0060074Y0092225D01*
X0060096Y0092179D01*
X0060121Y0092134D01*
X0060149Y0092092D01*
X0060180Y0092051D01*
X0060214Y0092013D01*
X0060251Y0091978D01*
X0060290Y0091945D01*
X0060332Y0091916D01*
X0060375Y0091889D01*
X0060421Y0091866D01*
X0060468Y0091846D01*
X0060516Y0091830D01*
X0060565Y0091817D01*
X0060615Y0091807D01*
X0060666Y0091802D01*
X0060717Y0091800D01*
X0063183Y0091800D02*
X0065450Y0095200D01*
X0061661Y0093500D02*
X0061659Y0093402D01*
X0061654Y0093305D01*
X0061646Y0093207D01*
X0061634Y0093110D01*
X0061618Y0093014D01*
X0061600Y0092918D01*
X0061578Y0092822D01*
X0061553Y0092728D01*
X0061524Y0092634D01*
X0061492Y0092542D01*
X0061457Y0092451D01*
X0061419Y0092361D01*
X0061378Y0092272D01*
X0058061Y0091800D02*
X0056172Y0091800D01*
X0057117Y0091800D02*
X0057117Y0095200D01*
X0058061Y0094444D01*
X0075108Y0099892D02*
X0075108Y0107108D01*
X0081250Y0113250D01*
X0082750Y0113250D01*
X0065450Y0153800D02*
X0063183Y0157200D01*
X0059772Y0155500D02*
X0059774Y0155402D01*
X0059779Y0155305D01*
X0059787Y0155207D01*
X0059799Y0155110D01*
X0059815Y0155014D01*
X0059833Y0154918D01*
X0059855Y0154822D01*
X0059880Y0154728D01*
X0059909Y0154634D01*
X0059941Y0154542D01*
X0059976Y0154451D01*
X0060014Y0154361D01*
X0060055Y0154272D01*
X0060717Y0153800D02*
X0060768Y0153802D01*
X0060819Y0153807D01*
X0060869Y0153817D01*
X0060918Y0153830D01*
X0060966Y0153846D01*
X0061013Y0153866D01*
X0061059Y0153889D01*
X0061102Y0153916D01*
X0061144Y0153945D01*
X0061183Y0153978D01*
X0061220Y0154013D01*
X0061254Y0154051D01*
X0061285Y0154092D01*
X0061313Y0154134D01*
X0061338Y0154179D01*
X0061360Y0154225D01*
X0061378Y0154272D01*
X0061472Y0154556D02*
X0059961Y0156444D01*
X0060056Y0156728D02*
X0060074Y0156775D01*
X0060096Y0156821D01*
X0060121Y0156866D01*
X0060149Y0156908D01*
X0060180Y0156949D01*
X0060214Y0156987D01*
X0060251Y0157022D01*
X0060290Y0157055D01*
X0060332Y0157084D01*
X0060375Y0157111D01*
X0060421Y0157134D01*
X0060468Y0157154D01*
X0060516Y0157170D01*
X0060565Y0157183D01*
X0060615Y0157193D01*
X0060666Y0157198D01*
X0060717Y0157200D01*
X0060768Y0157198D01*
X0060819Y0157193D01*
X0060869Y0157183D01*
X0060918Y0157170D01*
X0060966Y0157154D01*
X0061013Y0157134D01*
X0061059Y0157111D01*
X0061102Y0157084D01*
X0061144Y0157055D01*
X0061183Y0157022D01*
X0061220Y0156987D01*
X0061254Y0156949D01*
X0061285Y0156908D01*
X0061313Y0156866D01*
X0061338Y0156821D01*
X0061360Y0156775D01*
X0061378Y0156728D01*
X0060055Y0156728D02*
X0060014Y0156639D01*
X0059976Y0156549D01*
X0059941Y0156458D01*
X0059909Y0156366D01*
X0059880Y0156272D01*
X0059855Y0156178D01*
X0059833Y0156082D01*
X0059815Y0155986D01*
X0059799Y0155890D01*
X0059787Y0155793D01*
X0059779Y0155695D01*
X0059774Y0155598D01*
X0059772Y0155500D01*
X0061661Y0155500D02*
X0061659Y0155598D01*
X0061654Y0155695D01*
X0061646Y0155793D01*
X0061634Y0155890D01*
X0061618Y0155986D01*
X0061600Y0156082D01*
X0061578Y0156178D01*
X0061553Y0156272D01*
X0061524Y0156366D01*
X0061492Y0156458D01*
X0061457Y0156549D01*
X0061419Y0156639D01*
X0061378Y0156728D01*
X0060056Y0154272D02*
X0060074Y0154225D01*
X0060096Y0154179D01*
X0060121Y0154134D01*
X0060149Y0154092D01*
X0060180Y0154051D01*
X0060214Y0154013D01*
X0060251Y0153978D01*
X0060290Y0153945D01*
X0060332Y0153916D01*
X0060375Y0153889D01*
X0060421Y0153866D01*
X0060468Y0153846D01*
X0060516Y0153830D01*
X0060565Y0153817D01*
X0060615Y0153807D01*
X0060666Y0153802D01*
X0060717Y0153800D01*
X0063183Y0153800D02*
X0065450Y0157200D01*
X0061661Y0155500D02*
X0061659Y0155402D01*
X0061654Y0155305D01*
X0061646Y0155207D01*
X0061634Y0155110D01*
X0061618Y0155014D01*
X0061600Y0154918D01*
X0061578Y0154822D01*
X0061553Y0154728D01*
X0061524Y0154634D01*
X0061492Y0154542D01*
X0061457Y0154451D01*
X0061419Y0154361D01*
X0061378Y0154272D01*
X0058061Y0153800D02*
X0056172Y0153800D01*
X0057117Y0153800D02*
X0057117Y0157200D01*
X0058061Y0156444D01*
X0075108Y0161892D02*
X0075108Y0169108D01*
X0081250Y0175250D01*
X0082750Y0175250D01*
X0065450Y0215800D02*
X0063183Y0219200D01*
X0059772Y0217500D02*
X0059774Y0217402D01*
X0059779Y0217305D01*
X0059787Y0217207D01*
X0059799Y0217110D01*
X0059815Y0217014D01*
X0059833Y0216918D01*
X0059855Y0216822D01*
X0059880Y0216728D01*
X0059909Y0216634D01*
X0059941Y0216542D01*
X0059976Y0216451D01*
X0060014Y0216361D01*
X0060055Y0216272D01*
X0060717Y0215800D02*
X0060768Y0215802D01*
X0060819Y0215807D01*
X0060869Y0215817D01*
X0060918Y0215830D01*
X0060966Y0215846D01*
X0061013Y0215866D01*
X0061059Y0215889D01*
X0061102Y0215916D01*
X0061144Y0215945D01*
X0061183Y0215978D01*
X0061220Y0216013D01*
X0061254Y0216051D01*
X0061285Y0216092D01*
X0061313Y0216134D01*
X0061338Y0216179D01*
X0061360Y0216225D01*
X0061378Y0216272D01*
X0061472Y0216556D02*
X0059961Y0218444D01*
X0060056Y0218728D02*
X0060074Y0218775D01*
X0060096Y0218821D01*
X0060121Y0218866D01*
X0060149Y0218908D01*
X0060180Y0218949D01*
X0060214Y0218987D01*
X0060251Y0219022D01*
X0060290Y0219055D01*
X0060332Y0219084D01*
X0060375Y0219111D01*
X0060421Y0219134D01*
X0060468Y0219154D01*
X0060516Y0219170D01*
X0060565Y0219183D01*
X0060615Y0219193D01*
X0060666Y0219198D01*
X0060717Y0219200D01*
X0060768Y0219198D01*
X0060819Y0219193D01*
X0060869Y0219183D01*
X0060918Y0219170D01*
X0060966Y0219154D01*
X0061013Y0219134D01*
X0061059Y0219111D01*
X0061102Y0219084D01*
X0061144Y0219055D01*
X0061183Y0219022D01*
X0061220Y0218987D01*
X0061254Y0218949D01*
X0061285Y0218908D01*
X0061313Y0218866D01*
X0061338Y0218821D01*
X0061360Y0218775D01*
X0061378Y0218728D01*
X0060055Y0218728D02*
X0060014Y0218639D01*
X0059976Y0218549D01*
X0059941Y0218458D01*
X0059909Y0218366D01*
X0059880Y0218272D01*
X0059855Y0218178D01*
X0059833Y0218082D01*
X0059815Y0217986D01*
X0059799Y0217890D01*
X0059787Y0217793D01*
X0059779Y0217695D01*
X0059774Y0217598D01*
X0059772Y0217500D01*
X0061661Y0217500D02*
X0061659Y0217598D01*
X0061654Y0217695D01*
X0061646Y0217793D01*
X0061634Y0217890D01*
X0061618Y0217986D01*
X0061600Y0218082D01*
X0061578Y0218178D01*
X0061553Y0218272D01*
X0061524Y0218366D01*
X0061492Y0218458D01*
X0061457Y0218549D01*
X0061419Y0218639D01*
X0061378Y0218728D01*
X0060056Y0216272D02*
X0060074Y0216225D01*
X0060096Y0216179D01*
X0060121Y0216134D01*
X0060149Y0216092D01*
X0060180Y0216051D01*
X0060214Y0216013D01*
X0060251Y0215978D01*
X0060290Y0215945D01*
X0060332Y0215916D01*
X0060375Y0215889D01*
X0060421Y0215866D01*
X0060468Y0215846D01*
X0060516Y0215830D01*
X0060565Y0215817D01*
X0060615Y0215807D01*
X0060666Y0215802D01*
X0060717Y0215800D01*
X0063183Y0215800D02*
X0065450Y0219200D01*
X0061661Y0217500D02*
X0061659Y0217402D01*
X0061654Y0217305D01*
X0061646Y0217207D01*
X0061634Y0217110D01*
X0061618Y0217014D01*
X0061600Y0216918D01*
X0061578Y0216822D01*
X0061553Y0216728D01*
X0061524Y0216634D01*
X0061492Y0216542D01*
X0061457Y0216451D01*
X0061419Y0216361D01*
X0061378Y0216272D01*
X0058061Y0215800D02*
X0056172Y0215800D01*
X0057117Y0215800D02*
X0057117Y0219200D01*
X0058061Y0218444D01*
X0075108Y0223892D02*
X0075108Y0231108D01*
X0081250Y0237250D01*
X0082750Y0237250D01*
X0065450Y0277800D02*
X0063183Y0281200D01*
X0059772Y0279500D02*
X0059774Y0279402D01*
X0059779Y0279305D01*
X0059787Y0279207D01*
X0059799Y0279110D01*
X0059815Y0279014D01*
X0059833Y0278918D01*
X0059855Y0278822D01*
X0059880Y0278728D01*
X0059909Y0278634D01*
X0059941Y0278542D01*
X0059976Y0278451D01*
X0060014Y0278361D01*
X0060055Y0278272D01*
X0060717Y0277800D02*
X0060768Y0277802D01*
X0060819Y0277807D01*
X0060869Y0277817D01*
X0060918Y0277830D01*
X0060966Y0277846D01*
X0061013Y0277866D01*
X0061059Y0277889D01*
X0061102Y0277916D01*
X0061144Y0277945D01*
X0061183Y0277978D01*
X0061220Y0278013D01*
X0061254Y0278051D01*
X0061285Y0278092D01*
X0061313Y0278134D01*
X0061338Y0278179D01*
X0061360Y0278225D01*
X0061378Y0278272D01*
X0061472Y0278556D02*
X0059961Y0280444D01*
X0060056Y0280728D02*
X0060074Y0280775D01*
X0060096Y0280821D01*
X0060121Y0280866D01*
X0060149Y0280908D01*
X0060180Y0280949D01*
X0060214Y0280987D01*
X0060251Y0281022D01*
X0060290Y0281055D01*
X0060332Y0281084D01*
X0060375Y0281111D01*
X0060421Y0281134D01*
X0060468Y0281154D01*
X0060516Y0281170D01*
X0060565Y0281183D01*
X0060615Y0281193D01*
X0060666Y0281198D01*
X0060717Y0281200D01*
X0060768Y0281198D01*
X0060819Y0281193D01*
X0060869Y0281183D01*
X0060918Y0281170D01*
X0060966Y0281154D01*
X0061013Y0281134D01*
X0061059Y0281111D01*
X0061102Y0281084D01*
X0061144Y0281055D01*
X0061183Y0281022D01*
X0061220Y0280987D01*
X0061254Y0280949D01*
X0061285Y0280908D01*
X0061313Y0280866D01*
X0061338Y0280821D01*
X0061360Y0280775D01*
X0061378Y0280728D01*
X0060055Y0280728D02*
X0060014Y0280639D01*
X0059976Y0280549D01*
X0059941Y0280458D01*
X0059909Y0280366D01*
X0059880Y0280272D01*
X0059855Y0280178D01*
X0059833Y0280082D01*
X0059815Y0279986D01*
X0059799Y0279890D01*
X0059787Y0279793D01*
X0059779Y0279695D01*
X0059774Y0279598D01*
X0059772Y0279500D01*
X0061661Y0279500D02*
X0061659Y0279598D01*
X0061654Y0279695D01*
X0061646Y0279793D01*
X0061634Y0279890D01*
X0061618Y0279986D01*
X0061600Y0280082D01*
X0061578Y0280178D01*
X0061553Y0280272D01*
X0061524Y0280366D01*
X0061492Y0280458D01*
X0061457Y0280549D01*
X0061419Y0280639D01*
X0061378Y0280728D01*
X0060056Y0278272D02*
X0060074Y0278225D01*
X0060096Y0278179D01*
X0060121Y0278134D01*
X0060149Y0278092D01*
X0060180Y0278051D01*
X0060214Y0278013D01*
X0060251Y0277978D01*
X0060290Y0277945D01*
X0060332Y0277916D01*
X0060375Y0277889D01*
X0060421Y0277866D01*
X0060468Y0277846D01*
X0060516Y0277830D01*
X0060565Y0277817D01*
X0060615Y0277807D01*
X0060666Y0277802D01*
X0060717Y0277800D01*
X0063183Y0277800D02*
X0065450Y0281200D01*
X0061661Y0279500D02*
X0061659Y0279402D01*
X0061654Y0279305D01*
X0061646Y0279207D01*
X0061634Y0279110D01*
X0061618Y0279014D01*
X0061600Y0278918D01*
X0061578Y0278822D01*
X0061553Y0278728D01*
X0061524Y0278634D01*
X0061492Y0278542D01*
X0061457Y0278451D01*
X0061419Y0278361D01*
X0061378Y0278272D01*
X0058061Y0277800D02*
X0056172Y0277800D01*
X0057117Y0277800D02*
X0057117Y0281200D01*
X0058061Y0280444D01*
X0075108Y0285892D02*
X0075108Y0293108D01*
X0081250Y0299250D01*
X0082750Y0299250D01*
X0134250Y0299609D02*
X0136750Y0302109D01*
X0136750Y0319750D01*
X0138750Y0321750D01*
X0148750Y0321750D01*
X0148750Y0331750D02*
X0138750Y0331750D01*
X0134500Y0327500D01*
X0134500Y0304527D01*
X0138999Y0302126D02*
X0138999Y0309874D01*
X0140875Y0311750D01*
X0148750Y0311750D01*
X0134250Y0296409D02*
X0138909Y0291750D01*
X0148750Y0291750D01*
X0148750Y0269750D02*
X0138750Y0269750D01*
X0134500Y0265500D01*
X0134500Y0242527D01*
X0136750Y0240109D02*
X0136750Y0257750D01*
X0138750Y0259750D01*
X0148750Y0259750D01*
X0148750Y0249750D02*
X0140875Y0249750D01*
X0138999Y0247874D01*
X0138999Y0240126D01*
X0136750Y0240109D02*
X0134250Y0237609D01*
X0134250Y0234409D02*
X0138909Y0229750D01*
X0148750Y0229750D01*
X0148750Y0207750D02*
X0138750Y0207750D01*
X0134500Y0203500D01*
X0134500Y0180527D01*
X0136750Y0178109D02*
X0136750Y0195750D01*
X0138750Y0197750D01*
X0148750Y0197750D01*
X0148750Y0187750D02*
X0140875Y0187750D01*
X0138999Y0185874D01*
X0138999Y0178126D01*
X0136750Y0178109D02*
X0134250Y0175609D01*
X0134250Y0172409D02*
X0138909Y0167750D01*
X0148750Y0167750D01*
X0148750Y0145750D02*
X0138750Y0145750D01*
X0134500Y0141500D01*
X0134500Y0118527D01*
X0136750Y0116109D02*
X0136750Y0133750D01*
X0138750Y0135750D01*
X0148750Y0135750D01*
X0148750Y0125750D02*
X0140875Y0125750D01*
X0138999Y0123874D01*
X0138999Y0116126D01*
X0136750Y0116109D02*
X0134250Y0113609D01*
X0134250Y0110409D02*
X0138909Y0105750D01*
X0148750Y0105750D01*
X0148750Y0083750D02*
X0138750Y0083750D01*
X0134500Y0079500D01*
X0134500Y0056527D01*
X0136750Y0054109D02*
X0136750Y0071750D01*
X0138750Y0073750D01*
X0148750Y0073750D01*
X0148750Y0063750D02*
X0140875Y0063750D01*
X0138999Y0061874D01*
X0138999Y0054126D01*
X0136750Y0054109D02*
X0134250Y0051609D01*
X0134250Y0048409D02*
X0138909Y0043750D01*
X0148750Y0043750D01*
X0183172Y0029800D02*
X0185061Y0029800D01*
X0184117Y0029800D02*
X0184117Y0033200D01*
X0185061Y0032444D01*
X0188661Y0031500D02*
X0188659Y0031402D01*
X0188654Y0031305D01*
X0188646Y0031207D01*
X0188634Y0031110D01*
X0188618Y0031014D01*
X0188600Y0030918D01*
X0188578Y0030822D01*
X0188553Y0030728D01*
X0188524Y0030634D01*
X0188492Y0030542D01*
X0188457Y0030451D01*
X0188419Y0030361D01*
X0188378Y0030272D01*
X0188472Y0030556D02*
X0186961Y0032444D01*
X0187056Y0032728D02*
X0187074Y0032775D01*
X0187096Y0032821D01*
X0187121Y0032866D01*
X0187149Y0032908D01*
X0187180Y0032949D01*
X0187214Y0032987D01*
X0187251Y0033022D01*
X0187290Y0033055D01*
X0187332Y0033084D01*
X0187375Y0033111D01*
X0187421Y0033134D01*
X0187468Y0033154D01*
X0187516Y0033170D01*
X0187565Y0033183D01*
X0187615Y0033193D01*
X0187666Y0033198D01*
X0187717Y0033200D01*
X0187768Y0033198D01*
X0187819Y0033193D01*
X0187869Y0033183D01*
X0187918Y0033170D01*
X0187966Y0033154D01*
X0188013Y0033134D01*
X0188059Y0033111D01*
X0188102Y0033084D01*
X0188144Y0033055D01*
X0188183Y0033022D01*
X0188220Y0032987D01*
X0188254Y0032949D01*
X0188285Y0032908D01*
X0188313Y0032866D01*
X0188338Y0032821D01*
X0188360Y0032775D01*
X0188378Y0032728D01*
X0187055Y0032728D02*
X0187014Y0032639D01*
X0186976Y0032549D01*
X0186941Y0032458D01*
X0186909Y0032366D01*
X0186880Y0032272D01*
X0186855Y0032178D01*
X0186833Y0032082D01*
X0186815Y0031986D01*
X0186799Y0031890D01*
X0186787Y0031793D01*
X0186779Y0031695D01*
X0186774Y0031598D01*
X0186772Y0031500D01*
X0188661Y0031500D02*
X0188659Y0031598D01*
X0188654Y0031695D01*
X0188646Y0031793D01*
X0188634Y0031890D01*
X0188618Y0031986D01*
X0188600Y0032082D01*
X0188578Y0032178D01*
X0188553Y0032272D01*
X0188524Y0032366D01*
X0188492Y0032458D01*
X0188457Y0032549D01*
X0188419Y0032639D01*
X0188378Y0032728D01*
X0186772Y0031500D02*
X0186774Y0031402D01*
X0186779Y0031305D01*
X0186787Y0031207D01*
X0186799Y0031110D01*
X0186815Y0031014D01*
X0186833Y0030918D01*
X0186855Y0030822D01*
X0186880Y0030728D01*
X0186909Y0030634D01*
X0186941Y0030542D01*
X0186976Y0030451D01*
X0187014Y0030361D01*
X0187055Y0030272D01*
X0187717Y0029800D02*
X0187768Y0029802D01*
X0187819Y0029807D01*
X0187869Y0029817D01*
X0187918Y0029830D01*
X0187966Y0029846D01*
X0188013Y0029866D01*
X0188059Y0029889D01*
X0188102Y0029916D01*
X0188144Y0029945D01*
X0188183Y0029978D01*
X0188220Y0030013D01*
X0188254Y0030051D01*
X0188285Y0030092D01*
X0188313Y0030134D01*
X0188338Y0030179D01*
X0188360Y0030225D01*
X0188378Y0030272D01*
X0187717Y0029800D02*
X0187666Y0029802D01*
X0187615Y0029807D01*
X0187565Y0029817D01*
X0187516Y0029830D01*
X0187468Y0029846D01*
X0187421Y0029866D01*
X0187375Y0029889D01*
X0187332Y0029916D01*
X0187290Y0029945D01*
X0187251Y0029978D01*
X0187214Y0030013D01*
X0187180Y0030051D01*
X0187149Y0030092D01*
X0187121Y0030134D01*
X0187096Y0030179D01*
X0187074Y0030225D01*
X0187056Y0030272D01*
X0190183Y0029800D02*
X0192450Y0033200D01*
X0190183Y0033200D02*
X0192450Y0029800D01*
X0202108Y0037892D02*
X0202108Y0045108D01*
X0208250Y0051250D01*
X0209750Y0051250D01*
X0192450Y0091800D02*
X0190183Y0095200D01*
X0186772Y0093500D02*
X0186774Y0093402D01*
X0186779Y0093305D01*
X0186787Y0093207D01*
X0186799Y0093110D01*
X0186815Y0093014D01*
X0186833Y0092918D01*
X0186855Y0092822D01*
X0186880Y0092728D01*
X0186909Y0092634D01*
X0186941Y0092542D01*
X0186976Y0092451D01*
X0187014Y0092361D01*
X0187055Y0092272D01*
X0187717Y0091800D02*
X0187768Y0091802D01*
X0187819Y0091807D01*
X0187869Y0091817D01*
X0187918Y0091830D01*
X0187966Y0091846D01*
X0188013Y0091866D01*
X0188059Y0091889D01*
X0188102Y0091916D01*
X0188144Y0091945D01*
X0188183Y0091978D01*
X0188220Y0092013D01*
X0188254Y0092051D01*
X0188285Y0092092D01*
X0188313Y0092134D01*
X0188338Y0092179D01*
X0188360Y0092225D01*
X0188378Y0092272D01*
X0188472Y0092556D02*
X0186961Y0094444D01*
X0187056Y0094728D02*
X0187074Y0094775D01*
X0187096Y0094821D01*
X0187121Y0094866D01*
X0187149Y0094908D01*
X0187180Y0094949D01*
X0187214Y0094987D01*
X0187251Y0095022D01*
X0187290Y0095055D01*
X0187332Y0095084D01*
X0187375Y0095111D01*
X0187421Y0095134D01*
X0187468Y0095154D01*
X0187516Y0095170D01*
X0187565Y0095183D01*
X0187615Y0095193D01*
X0187666Y0095198D01*
X0187717Y0095200D01*
X0187768Y0095198D01*
X0187819Y0095193D01*
X0187869Y0095183D01*
X0187918Y0095170D01*
X0187966Y0095154D01*
X0188013Y0095134D01*
X0188059Y0095111D01*
X0188102Y0095084D01*
X0188144Y0095055D01*
X0188183Y0095022D01*
X0188220Y0094987D01*
X0188254Y0094949D01*
X0188285Y0094908D01*
X0188313Y0094866D01*
X0188338Y0094821D01*
X0188360Y0094775D01*
X0188378Y0094728D01*
X0187055Y0094728D02*
X0187014Y0094639D01*
X0186976Y0094549D01*
X0186941Y0094458D01*
X0186909Y0094366D01*
X0186880Y0094272D01*
X0186855Y0094178D01*
X0186833Y0094082D01*
X0186815Y0093986D01*
X0186799Y0093890D01*
X0186787Y0093793D01*
X0186779Y0093695D01*
X0186774Y0093598D01*
X0186772Y0093500D01*
X0188661Y0093500D02*
X0188659Y0093598D01*
X0188654Y0093695D01*
X0188646Y0093793D01*
X0188634Y0093890D01*
X0188618Y0093986D01*
X0188600Y0094082D01*
X0188578Y0094178D01*
X0188553Y0094272D01*
X0188524Y0094366D01*
X0188492Y0094458D01*
X0188457Y0094549D01*
X0188419Y0094639D01*
X0188378Y0094728D01*
X0187056Y0092272D02*
X0187074Y0092225D01*
X0187096Y0092179D01*
X0187121Y0092134D01*
X0187149Y0092092D01*
X0187180Y0092051D01*
X0187214Y0092013D01*
X0187251Y0091978D01*
X0187290Y0091945D01*
X0187332Y0091916D01*
X0187375Y0091889D01*
X0187421Y0091866D01*
X0187468Y0091846D01*
X0187516Y0091830D01*
X0187565Y0091817D01*
X0187615Y0091807D01*
X0187666Y0091802D01*
X0187717Y0091800D01*
X0190183Y0091800D02*
X0192450Y0095200D01*
X0188661Y0093500D02*
X0188659Y0093402D01*
X0188654Y0093305D01*
X0188646Y0093207D01*
X0188634Y0093110D01*
X0188618Y0093014D01*
X0188600Y0092918D01*
X0188578Y0092822D01*
X0188553Y0092728D01*
X0188524Y0092634D01*
X0188492Y0092542D01*
X0188457Y0092451D01*
X0188419Y0092361D01*
X0188378Y0092272D01*
X0185061Y0091800D02*
X0183172Y0091800D01*
X0184117Y0091800D02*
X0184117Y0095200D01*
X0185061Y0094444D01*
X0202108Y0099892D02*
X0202108Y0107108D01*
X0208250Y0113250D01*
X0209750Y0113250D01*
X0192450Y0153800D02*
X0190183Y0157200D01*
X0186772Y0155500D02*
X0186774Y0155402D01*
X0186779Y0155305D01*
X0186787Y0155207D01*
X0186799Y0155110D01*
X0186815Y0155014D01*
X0186833Y0154918D01*
X0186855Y0154822D01*
X0186880Y0154728D01*
X0186909Y0154634D01*
X0186941Y0154542D01*
X0186976Y0154451D01*
X0187014Y0154361D01*
X0187055Y0154272D01*
X0187717Y0153800D02*
X0187768Y0153802D01*
X0187819Y0153807D01*
X0187869Y0153817D01*
X0187918Y0153830D01*
X0187966Y0153846D01*
X0188013Y0153866D01*
X0188059Y0153889D01*
X0188102Y0153916D01*
X0188144Y0153945D01*
X0188183Y0153978D01*
X0188220Y0154013D01*
X0188254Y0154051D01*
X0188285Y0154092D01*
X0188313Y0154134D01*
X0188338Y0154179D01*
X0188360Y0154225D01*
X0188378Y0154272D01*
X0188472Y0154556D02*
X0186961Y0156444D01*
X0187056Y0156728D02*
X0187074Y0156775D01*
X0187096Y0156821D01*
X0187121Y0156866D01*
X0187149Y0156908D01*
X0187180Y0156949D01*
X0187214Y0156987D01*
X0187251Y0157022D01*
X0187290Y0157055D01*
X0187332Y0157084D01*
X0187375Y0157111D01*
X0187421Y0157134D01*
X0187468Y0157154D01*
X0187516Y0157170D01*
X0187565Y0157183D01*
X0187615Y0157193D01*
X0187666Y0157198D01*
X0187717Y0157200D01*
X0187768Y0157198D01*
X0187819Y0157193D01*
X0187869Y0157183D01*
X0187918Y0157170D01*
X0187966Y0157154D01*
X0188013Y0157134D01*
X0188059Y0157111D01*
X0188102Y0157084D01*
X0188144Y0157055D01*
X0188183Y0157022D01*
X0188220Y0156987D01*
X0188254Y0156949D01*
X0188285Y0156908D01*
X0188313Y0156866D01*
X0188338Y0156821D01*
X0188360Y0156775D01*
X0188378Y0156728D01*
X0187055Y0156728D02*
X0187014Y0156639D01*
X0186976Y0156549D01*
X0186941Y0156458D01*
X0186909Y0156366D01*
X0186880Y0156272D01*
X0186855Y0156178D01*
X0186833Y0156082D01*
X0186815Y0155986D01*
X0186799Y0155890D01*
X0186787Y0155793D01*
X0186779Y0155695D01*
X0186774Y0155598D01*
X0186772Y0155500D01*
X0188661Y0155500D02*
X0188659Y0155598D01*
X0188654Y0155695D01*
X0188646Y0155793D01*
X0188634Y0155890D01*
X0188618Y0155986D01*
X0188600Y0156082D01*
X0188578Y0156178D01*
X0188553Y0156272D01*
X0188524Y0156366D01*
X0188492Y0156458D01*
X0188457Y0156549D01*
X0188419Y0156639D01*
X0188378Y0156728D01*
X0187056Y0154272D02*
X0187074Y0154225D01*
X0187096Y0154179D01*
X0187121Y0154134D01*
X0187149Y0154092D01*
X0187180Y0154051D01*
X0187214Y0154013D01*
X0187251Y0153978D01*
X0187290Y0153945D01*
X0187332Y0153916D01*
X0187375Y0153889D01*
X0187421Y0153866D01*
X0187468Y0153846D01*
X0187516Y0153830D01*
X0187565Y0153817D01*
X0187615Y0153807D01*
X0187666Y0153802D01*
X0187717Y0153800D01*
X0190183Y0153800D02*
X0192450Y0157200D01*
X0188661Y0155500D02*
X0188659Y0155402D01*
X0188654Y0155305D01*
X0188646Y0155207D01*
X0188634Y0155110D01*
X0188618Y0155014D01*
X0188600Y0154918D01*
X0188578Y0154822D01*
X0188553Y0154728D01*
X0188524Y0154634D01*
X0188492Y0154542D01*
X0188457Y0154451D01*
X0188419Y0154361D01*
X0188378Y0154272D01*
X0185061Y0153800D02*
X0183172Y0153800D01*
X0184117Y0153800D02*
X0184117Y0157200D01*
X0185061Y0156444D01*
X0202108Y0161892D02*
X0202108Y0169108D01*
X0208250Y0175250D01*
X0209750Y0175250D01*
X0192450Y0215800D02*
X0190183Y0219200D01*
X0186772Y0217500D02*
X0186774Y0217402D01*
X0186779Y0217305D01*
X0186787Y0217207D01*
X0186799Y0217110D01*
X0186815Y0217014D01*
X0186833Y0216918D01*
X0186855Y0216822D01*
X0186880Y0216728D01*
X0186909Y0216634D01*
X0186941Y0216542D01*
X0186976Y0216451D01*
X0187014Y0216361D01*
X0187055Y0216272D01*
X0187717Y0215800D02*
X0187768Y0215802D01*
X0187819Y0215807D01*
X0187869Y0215817D01*
X0187918Y0215830D01*
X0187966Y0215846D01*
X0188013Y0215866D01*
X0188059Y0215889D01*
X0188102Y0215916D01*
X0188144Y0215945D01*
X0188183Y0215978D01*
X0188220Y0216013D01*
X0188254Y0216051D01*
X0188285Y0216092D01*
X0188313Y0216134D01*
X0188338Y0216179D01*
X0188360Y0216225D01*
X0188378Y0216272D01*
X0188472Y0216556D02*
X0186961Y0218444D01*
X0187056Y0218728D02*
X0187074Y0218775D01*
X0187096Y0218821D01*
X0187121Y0218866D01*
X0187149Y0218908D01*
X0187180Y0218949D01*
X0187214Y0218987D01*
X0187251Y0219022D01*
X0187290Y0219055D01*
X0187332Y0219084D01*
X0187375Y0219111D01*
X0187421Y0219134D01*
X0187468Y0219154D01*
X0187516Y0219170D01*
X0187565Y0219183D01*
X0187615Y0219193D01*
X0187666Y0219198D01*
X0187717Y0219200D01*
X0187768Y0219198D01*
X0187819Y0219193D01*
X0187869Y0219183D01*
X0187918Y0219170D01*
X0187966Y0219154D01*
X0188013Y0219134D01*
X0188059Y0219111D01*
X0188102Y0219084D01*
X0188144Y0219055D01*
X0188183Y0219022D01*
X0188220Y0218987D01*
X0188254Y0218949D01*
X0188285Y0218908D01*
X0188313Y0218866D01*
X0188338Y0218821D01*
X0188360Y0218775D01*
X0188378Y0218728D01*
X0187055Y0218728D02*
X0187014Y0218639D01*
X0186976Y0218549D01*
X0186941Y0218458D01*
X0186909Y0218366D01*
X0186880Y0218272D01*
X0186855Y0218178D01*
X0186833Y0218082D01*
X0186815Y0217986D01*
X0186799Y0217890D01*
X0186787Y0217793D01*
X0186779Y0217695D01*
X0186774Y0217598D01*
X0186772Y0217500D01*
X0188661Y0217500D02*
X0188659Y0217598D01*
X0188654Y0217695D01*
X0188646Y0217793D01*
X0188634Y0217890D01*
X0188618Y0217986D01*
X0188600Y0218082D01*
X0188578Y0218178D01*
X0188553Y0218272D01*
X0188524Y0218366D01*
X0188492Y0218458D01*
X0188457Y0218549D01*
X0188419Y0218639D01*
X0188378Y0218728D01*
X0187056Y0216272D02*
X0187074Y0216225D01*
X0187096Y0216179D01*
X0187121Y0216134D01*
X0187149Y0216092D01*
X0187180Y0216051D01*
X0187214Y0216013D01*
X0187251Y0215978D01*
X0187290Y0215945D01*
X0187332Y0215916D01*
X0187375Y0215889D01*
X0187421Y0215866D01*
X0187468Y0215846D01*
X0187516Y0215830D01*
X0187565Y0215817D01*
X0187615Y0215807D01*
X0187666Y0215802D01*
X0187717Y0215800D01*
X0190183Y0215800D02*
X0192450Y0219200D01*
X0188661Y0217500D02*
X0188659Y0217402D01*
X0188654Y0217305D01*
X0188646Y0217207D01*
X0188634Y0217110D01*
X0188618Y0217014D01*
X0188600Y0216918D01*
X0188578Y0216822D01*
X0188553Y0216728D01*
X0188524Y0216634D01*
X0188492Y0216542D01*
X0188457Y0216451D01*
X0188419Y0216361D01*
X0188378Y0216272D01*
X0185061Y0215800D02*
X0183172Y0215800D01*
X0184117Y0215800D02*
X0184117Y0219200D01*
X0185061Y0218444D01*
X0202108Y0223892D02*
X0202108Y0231108D01*
X0208250Y0237250D01*
X0209750Y0237250D01*
X0192450Y0277800D02*
X0190183Y0281200D01*
X0186772Y0279500D02*
X0186774Y0279402D01*
X0186779Y0279305D01*
X0186787Y0279207D01*
X0186799Y0279110D01*
X0186815Y0279014D01*
X0186833Y0278918D01*
X0186855Y0278822D01*
X0186880Y0278728D01*
X0186909Y0278634D01*
X0186941Y0278542D01*
X0186976Y0278451D01*
X0187014Y0278361D01*
X0187055Y0278272D01*
X0187717Y0277800D02*
X0187768Y0277802D01*
X0187819Y0277807D01*
X0187869Y0277817D01*
X0187918Y0277830D01*
X0187966Y0277846D01*
X0188013Y0277866D01*
X0188059Y0277889D01*
X0188102Y0277916D01*
X0188144Y0277945D01*
X0188183Y0277978D01*
X0188220Y0278013D01*
X0188254Y0278051D01*
X0188285Y0278092D01*
X0188313Y0278134D01*
X0188338Y0278179D01*
X0188360Y0278225D01*
X0188378Y0278272D01*
X0188472Y0278556D02*
X0186961Y0280444D01*
X0187056Y0280728D02*
X0187074Y0280775D01*
X0187096Y0280821D01*
X0187121Y0280866D01*
X0187149Y0280908D01*
X0187180Y0280949D01*
X0187214Y0280987D01*
X0187251Y0281022D01*
X0187290Y0281055D01*
X0187332Y0281084D01*
X0187375Y0281111D01*
X0187421Y0281134D01*
X0187468Y0281154D01*
X0187516Y0281170D01*
X0187565Y0281183D01*
X0187615Y0281193D01*
X0187666Y0281198D01*
X0187717Y0281200D01*
X0187768Y0281198D01*
X0187819Y0281193D01*
X0187869Y0281183D01*
X0187918Y0281170D01*
X0187966Y0281154D01*
X0188013Y0281134D01*
X0188059Y0281111D01*
X0188102Y0281084D01*
X0188144Y0281055D01*
X0188183Y0281022D01*
X0188220Y0280987D01*
X0188254Y0280949D01*
X0188285Y0280908D01*
X0188313Y0280866D01*
X0188338Y0280821D01*
X0188360Y0280775D01*
X0188378Y0280728D01*
X0187055Y0280728D02*
X0187014Y0280639D01*
X0186976Y0280549D01*
X0186941Y0280458D01*
X0186909Y0280366D01*
X0186880Y0280272D01*
X0186855Y0280178D01*
X0186833Y0280082D01*
X0186815Y0279986D01*
X0186799Y0279890D01*
X0186787Y0279793D01*
X0186779Y0279695D01*
X0186774Y0279598D01*
X0186772Y0279500D01*
X0188661Y0279500D02*
X0188659Y0279598D01*
X0188654Y0279695D01*
X0188646Y0279793D01*
X0188634Y0279890D01*
X0188618Y0279986D01*
X0188600Y0280082D01*
X0188578Y0280178D01*
X0188553Y0280272D01*
X0188524Y0280366D01*
X0188492Y0280458D01*
X0188457Y0280549D01*
X0188419Y0280639D01*
X0188378Y0280728D01*
X0187056Y0278272D02*
X0187074Y0278225D01*
X0187096Y0278179D01*
X0187121Y0278134D01*
X0187149Y0278092D01*
X0187180Y0278051D01*
X0187214Y0278013D01*
X0187251Y0277978D01*
X0187290Y0277945D01*
X0187332Y0277916D01*
X0187375Y0277889D01*
X0187421Y0277866D01*
X0187468Y0277846D01*
X0187516Y0277830D01*
X0187565Y0277817D01*
X0187615Y0277807D01*
X0187666Y0277802D01*
X0187717Y0277800D01*
X0190183Y0277800D02*
X0192450Y0281200D01*
X0188661Y0279500D02*
X0188659Y0279402D01*
X0188654Y0279305D01*
X0188646Y0279207D01*
X0188634Y0279110D01*
X0188618Y0279014D01*
X0188600Y0278918D01*
X0188578Y0278822D01*
X0188553Y0278728D01*
X0188524Y0278634D01*
X0188492Y0278542D01*
X0188457Y0278451D01*
X0188419Y0278361D01*
X0188378Y0278272D01*
X0185061Y0277800D02*
X0183172Y0277800D01*
X0184117Y0277800D02*
X0184117Y0281200D01*
X0185061Y0280444D01*
X0202108Y0285892D02*
X0202108Y0293108D01*
X0208250Y0299250D01*
X0209750Y0299250D01*
X0261250Y0299609D02*
X0263750Y0302109D01*
X0263750Y0319750D01*
X0265750Y0321750D01*
X0275750Y0321750D01*
X0275750Y0331750D02*
X0265750Y0331750D01*
X0261500Y0327500D01*
X0261500Y0304527D01*
X0265999Y0302126D02*
X0265999Y0309874D01*
X0267875Y0311750D01*
X0275750Y0311750D01*
X0261250Y0296409D02*
X0265909Y0291750D01*
X0275750Y0291750D01*
X0275750Y0269750D02*
X0265750Y0269750D01*
X0261500Y0265500D01*
X0261500Y0242527D01*
X0263750Y0240109D02*
X0263750Y0257750D01*
X0265750Y0259750D01*
X0275750Y0259750D01*
X0275750Y0249750D02*
X0267875Y0249750D01*
X0265999Y0247874D01*
X0265999Y0240126D01*
X0263750Y0240109D02*
X0261250Y0237609D01*
X0261250Y0234409D02*
X0265909Y0229750D01*
X0275750Y0229750D01*
X0275750Y0207750D02*
X0265750Y0207750D01*
X0261500Y0203500D01*
X0261500Y0180527D01*
X0263750Y0178109D02*
X0263750Y0195750D01*
X0265750Y0197750D01*
X0275750Y0197750D01*
X0275750Y0187750D02*
X0267875Y0187750D01*
X0265999Y0185874D01*
X0265999Y0178126D01*
X0263750Y0178109D02*
X0261250Y0175609D01*
X0261250Y0172409D02*
X0265909Y0167750D01*
X0275750Y0167750D01*
X0275750Y0145750D02*
X0265750Y0145750D01*
X0261500Y0141500D01*
X0261500Y0118527D01*
X0263750Y0116109D02*
X0263750Y0133750D01*
X0265750Y0135750D01*
X0275750Y0135750D01*
X0275750Y0125750D02*
X0267875Y0125750D01*
X0265999Y0123874D01*
X0265999Y0116126D01*
X0263750Y0116109D02*
X0261250Y0113609D01*
X0261250Y0110409D02*
X0265909Y0105750D01*
X0275750Y0105750D01*
X0275750Y0083750D02*
X0265750Y0083750D01*
X0261500Y0079500D01*
X0261500Y0056527D01*
X0263750Y0054109D02*
X0263750Y0071750D01*
X0265750Y0073750D01*
X0275750Y0073750D01*
X0275750Y0063750D02*
X0267875Y0063750D01*
X0265999Y0061874D01*
X0265999Y0054126D01*
X0263750Y0054109D02*
X0261250Y0051609D01*
X0261250Y0048409D02*
X0265909Y0043750D01*
X0275750Y0043750D01*
X0311117Y0033200D02*
X0311117Y0029800D01*
X0312061Y0029800D02*
X0310172Y0029800D01*
X0315378Y0030272D02*
X0315419Y0030361D01*
X0315457Y0030451D01*
X0315492Y0030542D01*
X0315524Y0030634D01*
X0315553Y0030728D01*
X0315578Y0030822D01*
X0315600Y0030918D01*
X0315618Y0031014D01*
X0315634Y0031110D01*
X0315646Y0031207D01*
X0315654Y0031305D01*
X0315659Y0031402D01*
X0315661Y0031500D01*
X0313772Y0031500D02*
X0313774Y0031598D01*
X0313779Y0031695D01*
X0313787Y0031793D01*
X0313799Y0031890D01*
X0313815Y0031986D01*
X0313833Y0032082D01*
X0313855Y0032178D01*
X0313880Y0032272D01*
X0313909Y0032366D01*
X0313941Y0032458D01*
X0313976Y0032549D01*
X0314014Y0032639D01*
X0314055Y0032728D01*
X0313961Y0032444D02*
X0315472Y0030556D01*
X0314717Y0029800D02*
X0314666Y0029802D01*
X0314615Y0029807D01*
X0314565Y0029817D01*
X0314516Y0029830D01*
X0314468Y0029846D01*
X0314421Y0029866D01*
X0314375Y0029889D01*
X0314332Y0029916D01*
X0314290Y0029945D01*
X0314251Y0029978D01*
X0314214Y0030013D01*
X0314180Y0030051D01*
X0314149Y0030092D01*
X0314121Y0030134D01*
X0314096Y0030179D01*
X0314074Y0030225D01*
X0314056Y0030272D01*
X0314717Y0029800D02*
X0314768Y0029802D01*
X0314819Y0029807D01*
X0314869Y0029817D01*
X0314918Y0029830D01*
X0314966Y0029846D01*
X0315013Y0029866D01*
X0315059Y0029889D01*
X0315102Y0029916D01*
X0315144Y0029945D01*
X0315183Y0029978D01*
X0315220Y0030013D01*
X0315254Y0030051D01*
X0315285Y0030092D01*
X0315313Y0030134D01*
X0315338Y0030179D01*
X0315360Y0030225D01*
X0315378Y0030272D01*
X0314055Y0030272D02*
X0314014Y0030361D01*
X0313976Y0030451D01*
X0313941Y0030542D01*
X0313909Y0030634D01*
X0313880Y0030728D01*
X0313855Y0030822D01*
X0313833Y0030918D01*
X0313815Y0031014D01*
X0313799Y0031110D01*
X0313787Y0031207D01*
X0313779Y0031305D01*
X0313774Y0031402D01*
X0313772Y0031500D01*
X0315661Y0031500D02*
X0315659Y0031598D01*
X0315654Y0031695D01*
X0315646Y0031793D01*
X0315634Y0031890D01*
X0315618Y0031986D01*
X0315600Y0032082D01*
X0315578Y0032178D01*
X0315553Y0032272D01*
X0315524Y0032366D01*
X0315492Y0032458D01*
X0315457Y0032549D01*
X0315419Y0032639D01*
X0315378Y0032728D01*
X0314717Y0033200D02*
X0314666Y0033198D01*
X0314615Y0033193D01*
X0314565Y0033183D01*
X0314516Y0033170D01*
X0314468Y0033154D01*
X0314421Y0033134D01*
X0314375Y0033111D01*
X0314332Y0033084D01*
X0314290Y0033055D01*
X0314251Y0033022D01*
X0314214Y0032987D01*
X0314180Y0032949D01*
X0314149Y0032908D01*
X0314121Y0032866D01*
X0314096Y0032821D01*
X0314074Y0032775D01*
X0314056Y0032728D01*
X0314717Y0033200D02*
X0314768Y0033198D01*
X0314819Y0033193D01*
X0314869Y0033183D01*
X0314918Y0033170D01*
X0314966Y0033154D01*
X0315013Y0033134D01*
X0315059Y0033111D01*
X0315102Y0033084D01*
X0315144Y0033055D01*
X0315183Y0033022D01*
X0315220Y0032987D01*
X0315254Y0032949D01*
X0315285Y0032908D01*
X0315313Y0032866D01*
X0315338Y0032821D01*
X0315360Y0032775D01*
X0315378Y0032728D01*
X0317183Y0033200D02*
X0319450Y0029800D01*
X0317183Y0029800D02*
X0319450Y0033200D01*
X0312061Y0032444D02*
X0311117Y0033200D01*
X0329108Y0037892D02*
X0329108Y0045108D01*
X0335250Y0051250D01*
X0336750Y0051250D01*
X0319450Y0091800D02*
X0317183Y0095200D01*
X0313772Y0093500D02*
X0313774Y0093402D01*
X0313779Y0093305D01*
X0313787Y0093207D01*
X0313799Y0093110D01*
X0313815Y0093014D01*
X0313833Y0092918D01*
X0313855Y0092822D01*
X0313880Y0092728D01*
X0313909Y0092634D01*
X0313941Y0092542D01*
X0313976Y0092451D01*
X0314014Y0092361D01*
X0314055Y0092272D01*
X0314717Y0091800D02*
X0314768Y0091802D01*
X0314819Y0091807D01*
X0314869Y0091817D01*
X0314918Y0091830D01*
X0314966Y0091846D01*
X0315013Y0091866D01*
X0315059Y0091889D01*
X0315102Y0091916D01*
X0315144Y0091945D01*
X0315183Y0091978D01*
X0315220Y0092013D01*
X0315254Y0092051D01*
X0315285Y0092092D01*
X0315313Y0092134D01*
X0315338Y0092179D01*
X0315360Y0092225D01*
X0315378Y0092272D01*
X0315472Y0092556D02*
X0313961Y0094444D01*
X0314056Y0094728D02*
X0314074Y0094775D01*
X0314096Y0094821D01*
X0314121Y0094866D01*
X0314149Y0094908D01*
X0314180Y0094949D01*
X0314214Y0094987D01*
X0314251Y0095022D01*
X0314290Y0095055D01*
X0314332Y0095084D01*
X0314375Y0095111D01*
X0314421Y0095134D01*
X0314468Y0095154D01*
X0314516Y0095170D01*
X0314565Y0095183D01*
X0314615Y0095193D01*
X0314666Y0095198D01*
X0314717Y0095200D01*
X0314768Y0095198D01*
X0314819Y0095193D01*
X0314869Y0095183D01*
X0314918Y0095170D01*
X0314966Y0095154D01*
X0315013Y0095134D01*
X0315059Y0095111D01*
X0315102Y0095084D01*
X0315144Y0095055D01*
X0315183Y0095022D01*
X0315220Y0094987D01*
X0315254Y0094949D01*
X0315285Y0094908D01*
X0315313Y0094866D01*
X0315338Y0094821D01*
X0315360Y0094775D01*
X0315378Y0094728D01*
X0314055Y0094728D02*
X0314014Y0094639D01*
X0313976Y0094549D01*
X0313941Y0094458D01*
X0313909Y0094366D01*
X0313880Y0094272D01*
X0313855Y0094178D01*
X0313833Y0094082D01*
X0313815Y0093986D01*
X0313799Y0093890D01*
X0313787Y0093793D01*
X0313779Y0093695D01*
X0313774Y0093598D01*
X0313772Y0093500D01*
X0315661Y0093500D02*
X0315659Y0093598D01*
X0315654Y0093695D01*
X0315646Y0093793D01*
X0315634Y0093890D01*
X0315618Y0093986D01*
X0315600Y0094082D01*
X0315578Y0094178D01*
X0315553Y0094272D01*
X0315524Y0094366D01*
X0315492Y0094458D01*
X0315457Y0094549D01*
X0315419Y0094639D01*
X0315378Y0094728D01*
X0314056Y0092272D02*
X0314074Y0092225D01*
X0314096Y0092179D01*
X0314121Y0092134D01*
X0314149Y0092092D01*
X0314180Y0092051D01*
X0314214Y0092013D01*
X0314251Y0091978D01*
X0314290Y0091945D01*
X0314332Y0091916D01*
X0314375Y0091889D01*
X0314421Y0091866D01*
X0314468Y0091846D01*
X0314516Y0091830D01*
X0314565Y0091817D01*
X0314615Y0091807D01*
X0314666Y0091802D01*
X0314717Y0091800D01*
X0317183Y0091800D02*
X0319450Y0095200D01*
X0315661Y0093500D02*
X0315659Y0093402D01*
X0315654Y0093305D01*
X0315646Y0093207D01*
X0315634Y0093110D01*
X0315618Y0093014D01*
X0315600Y0092918D01*
X0315578Y0092822D01*
X0315553Y0092728D01*
X0315524Y0092634D01*
X0315492Y0092542D01*
X0315457Y0092451D01*
X0315419Y0092361D01*
X0315378Y0092272D01*
X0312061Y0091800D02*
X0310172Y0091800D01*
X0311117Y0091800D02*
X0311117Y0095200D01*
X0312061Y0094444D01*
X0329108Y0099892D02*
X0329108Y0107108D01*
X0335250Y0113250D01*
X0336750Y0113250D01*
X0319450Y0153800D02*
X0317183Y0157200D01*
X0313772Y0155500D02*
X0313774Y0155402D01*
X0313779Y0155305D01*
X0313787Y0155207D01*
X0313799Y0155110D01*
X0313815Y0155014D01*
X0313833Y0154918D01*
X0313855Y0154822D01*
X0313880Y0154728D01*
X0313909Y0154634D01*
X0313941Y0154542D01*
X0313976Y0154451D01*
X0314014Y0154361D01*
X0314055Y0154272D01*
X0314717Y0153800D02*
X0314768Y0153802D01*
X0314819Y0153807D01*
X0314869Y0153817D01*
X0314918Y0153830D01*
X0314966Y0153846D01*
X0315013Y0153866D01*
X0315059Y0153889D01*
X0315102Y0153916D01*
X0315144Y0153945D01*
X0315183Y0153978D01*
X0315220Y0154013D01*
X0315254Y0154051D01*
X0315285Y0154092D01*
X0315313Y0154134D01*
X0315338Y0154179D01*
X0315360Y0154225D01*
X0315378Y0154272D01*
X0315472Y0154556D02*
X0313961Y0156444D01*
X0314056Y0156728D02*
X0314074Y0156775D01*
X0314096Y0156821D01*
X0314121Y0156866D01*
X0314149Y0156908D01*
X0314180Y0156949D01*
X0314214Y0156987D01*
X0314251Y0157022D01*
X0314290Y0157055D01*
X0314332Y0157084D01*
X0314375Y0157111D01*
X0314421Y0157134D01*
X0314468Y0157154D01*
X0314516Y0157170D01*
X0314565Y0157183D01*
X0314615Y0157193D01*
X0314666Y0157198D01*
X0314717Y0157200D01*
X0314768Y0157198D01*
X0314819Y0157193D01*
X0314869Y0157183D01*
X0314918Y0157170D01*
X0314966Y0157154D01*
X0315013Y0157134D01*
X0315059Y0157111D01*
X0315102Y0157084D01*
X0315144Y0157055D01*
X0315183Y0157022D01*
X0315220Y0156987D01*
X0315254Y0156949D01*
X0315285Y0156908D01*
X0315313Y0156866D01*
X0315338Y0156821D01*
X0315360Y0156775D01*
X0315378Y0156728D01*
X0314055Y0156728D02*
X0314014Y0156639D01*
X0313976Y0156549D01*
X0313941Y0156458D01*
X0313909Y0156366D01*
X0313880Y0156272D01*
X0313855Y0156178D01*
X0313833Y0156082D01*
X0313815Y0155986D01*
X0313799Y0155890D01*
X0313787Y0155793D01*
X0313779Y0155695D01*
X0313774Y0155598D01*
X0313772Y0155500D01*
X0315661Y0155500D02*
X0315659Y0155598D01*
X0315654Y0155695D01*
X0315646Y0155793D01*
X0315634Y0155890D01*
X0315618Y0155986D01*
X0315600Y0156082D01*
X0315578Y0156178D01*
X0315553Y0156272D01*
X0315524Y0156366D01*
X0315492Y0156458D01*
X0315457Y0156549D01*
X0315419Y0156639D01*
X0315378Y0156728D01*
X0314056Y0154272D02*
X0314074Y0154225D01*
X0314096Y0154179D01*
X0314121Y0154134D01*
X0314149Y0154092D01*
X0314180Y0154051D01*
X0314214Y0154013D01*
X0314251Y0153978D01*
X0314290Y0153945D01*
X0314332Y0153916D01*
X0314375Y0153889D01*
X0314421Y0153866D01*
X0314468Y0153846D01*
X0314516Y0153830D01*
X0314565Y0153817D01*
X0314615Y0153807D01*
X0314666Y0153802D01*
X0314717Y0153800D01*
X0317183Y0153800D02*
X0319450Y0157200D01*
X0315661Y0155500D02*
X0315659Y0155402D01*
X0315654Y0155305D01*
X0315646Y0155207D01*
X0315634Y0155110D01*
X0315618Y0155014D01*
X0315600Y0154918D01*
X0315578Y0154822D01*
X0315553Y0154728D01*
X0315524Y0154634D01*
X0315492Y0154542D01*
X0315457Y0154451D01*
X0315419Y0154361D01*
X0315378Y0154272D01*
X0312061Y0153800D02*
X0310172Y0153800D01*
X0311117Y0153800D02*
X0311117Y0157200D01*
X0312061Y0156444D01*
X0329108Y0161892D02*
X0329108Y0169108D01*
X0335250Y0175250D01*
X0336750Y0175250D01*
X0319450Y0215800D02*
X0317183Y0219200D01*
X0313772Y0217500D02*
X0313774Y0217402D01*
X0313779Y0217305D01*
X0313787Y0217207D01*
X0313799Y0217110D01*
X0313815Y0217014D01*
X0313833Y0216918D01*
X0313855Y0216822D01*
X0313880Y0216728D01*
X0313909Y0216634D01*
X0313941Y0216542D01*
X0313976Y0216451D01*
X0314014Y0216361D01*
X0314055Y0216272D01*
X0314717Y0215800D02*
X0314768Y0215802D01*
X0314819Y0215807D01*
X0314869Y0215817D01*
X0314918Y0215830D01*
X0314966Y0215846D01*
X0315013Y0215866D01*
X0315059Y0215889D01*
X0315102Y0215916D01*
X0315144Y0215945D01*
X0315183Y0215978D01*
X0315220Y0216013D01*
X0315254Y0216051D01*
X0315285Y0216092D01*
X0315313Y0216134D01*
X0315338Y0216179D01*
X0315360Y0216225D01*
X0315378Y0216272D01*
X0315472Y0216556D02*
X0313961Y0218444D01*
X0314056Y0218728D02*
X0314074Y0218775D01*
X0314096Y0218821D01*
X0314121Y0218866D01*
X0314149Y0218908D01*
X0314180Y0218949D01*
X0314214Y0218987D01*
X0314251Y0219022D01*
X0314290Y0219055D01*
X0314332Y0219084D01*
X0314375Y0219111D01*
X0314421Y0219134D01*
X0314468Y0219154D01*
X0314516Y0219170D01*
X0314565Y0219183D01*
X0314615Y0219193D01*
X0314666Y0219198D01*
X0314717Y0219200D01*
X0314768Y0219198D01*
X0314819Y0219193D01*
X0314869Y0219183D01*
X0314918Y0219170D01*
X0314966Y0219154D01*
X0315013Y0219134D01*
X0315059Y0219111D01*
X0315102Y0219084D01*
X0315144Y0219055D01*
X0315183Y0219022D01*
X0315220Y0218987D01*
X0315254Y0218949D01*
X0315285Y0218908D01*
X0315313Y0218866D01*
X0315338Y0218821D01*
X0315360Y0218775D01*
X0315378Y0218728D01*
X0314055Y0218728D02*
X0314014Y0218639D01*
X0313976Y0218549D01*
X0313941Y0218458D01*
X0313909Y0218366D01*
X0313880Y0218272D01*
X0313855Y0218178D01*
X0313833Y0218082D01*
X0313815Y0217986D01*
X0313799Y0217890D01*
X0313787Y0217793D01*
X0313779Y0217695D01*
X0313774Y0217598D01*
X0313772Y0217500D01*
X0315661Y0217500D02*
X0315659Y0217598D01*
X0315654Y0217695D01*
X0315646Y0217793D01*
X0315634Y0217890D01*
X0315618Y0217986D01*
X0315600Y0218082D01*
X0315578Y0218178D01*
X0315553Y0218272D01*
X0315524Y0218366D01*
X0315492Y0218458D01*
X0315457Y0218549D01*
X0315419Y0218639D01*
X0315378Y0218728D01*
X0314056Y0216272D02*
X0314074Y0216225D01*
X0314096Y0216179D01*
X0314121Y0216134D01*
X0314149Y0216092D01*
X0314180Y0216051D01*
X0314214Y0216013D01*
X0314251Y0215978D01*
X0314290Y0215945D01*
X0314332Y0215916D01*
X0314375Y0215889D01*
X0314421Y0215866D01*
X0314468Y0215846D01*
X0314516Y0215830D01*
X0314565Y0215817D01*
X0314615Y0215807D01*
X0314666Y0215802D01*
X0314717Y0215800D01*
X0317183Y0215800D02*
X0319450Y0219200D01*
X0315661Y0217500D02*
X0315659Y0217402D01*
X0315654Y0217305D01*
X0315646Y0217207D01*
X0315634Y0217110D01*
X0315618Y0217014D01*
X0315600Y0216918D01*
X0315578Y0216822D01*
X0315553Y0216728D01*
X0315524Y0216634D01*
X0315492Y0216542D01*
X0315457Y0216451D01*
X0315419Y0216361D01*
X0315378Y0216272D01*
X0312061Y0215800D02*
X0310172Y0215800D01*
X0311117Y0215800D02*
X0311117Y0219200D01*
X0312061Y0218444D01*
X0329108Y0223892D02*
X0329108Y0231108D01*
X0335250Y0237250D01*
X0336750Y0237250D01*
X0319450Y0277800D02*
X0317183Y0281200D01*
X0313772Y0279500D02*
X0313774Y0279402D01*
X0313779Y0279305D01*
X0313787Y0279207D01*
X0313799Y0279110D01*
X0313815Y0279014D01*
X0313833Y0278918D01*
X0313855Y0278822D01*
X0313880Y0278728D01*
X0313909Y0278634D01*
X0313941Y0278542D01*
X0313976Y0278451D01*
X0314014Y0278361D01*
X0314055Y0278272D01*
X0314717Y0277800D02*
X0314768Y0277802D01*
X0314819Y0277807D01*
X0314869Y0277817D01*
X0314918Y0277830D01*
X0314966Y0277846D01*
X0315013Y0277866D01*
X0315059Y0277889D01*
X0315102Y0277916D01*
X0315144Y0277945D01*
X0315183Y0277978D01*
X0315220Y0278013D01*
X0315254Y0278051D01*
X0315285Y0278092D01*
X0315313Y0278134D01*
X0315338Y0278179D01*
X0315360Y0278225D01*
X0315378Y0278272D01*
X0315472Y0278556D02*
X0313961Y0280444D01*
X0314056Y0280728D02*
X0314074Y0280775D01*
X0314096Y0280821D01*
X0314121Y0280866D01*
X0314149Y0280908D01*
X0314180Y0280949D01*
X0314214Y0280987D01*
X0314251Y0281022D01*
X0314290Y0281055D01*
X0314332Y0281084D01*
X0314375Y0281111D01*
X0314421Y0281134D01*
X0314468Y0281154D01*
X0314516Y0281170D01*
X0314565Y0281183D01*
X0314615Y0281193D01*
X0314666Y0281198D01*
X0314717Y0281200D01*
X0314768Y0281198D01*
X0314819Y0281193D01*
X0314869Y0281183D01*
X0314918Y0281170D01*
X0314966Y0281154D01*
X0315013Y0281134D01*
X0315059Y0281111D01*
X0315102Y0281084D01*
X0315144Y0281055D01*
X0315183Y0281022D01*
X0315220Y0280987D01*
X0315254Y0280949D01*
X0315285Y0280908D01*
X0315313Y0280866D01*
X0315338Y0280821D01*
X0315360Y0280775D01*
X0315378Y0280728D01*
X0314055Y0280728D02*
X0314014Y0280639D01*
X0313976Y0280549D01*
X0313941Y0280458D01*
X0313909Y0280366D01*
X0313880Y0280272D01*
X0313855Y0280178D01*
X0313833Y0280082D01*
X0313815Y0279986D01*
X0313799Y0279890D01*
X0313787Y0279793D01*
X0313779Y0279695D01*
X0313774Y0279598D01*
X0313772Y0279500D01*
X0315661Y0279500D02*
X0315659Y0279598D01*
X0315654Y0279695D01*
X0315646Y0279793D01*
X0315634Y0279890D01*
X0315618Y0279986D01*
X0315600Y0280082D01*
X0315578Y0280178D01*
X0315553Y0280272D01*
X0315524Y0280366D01*
X0315492Y0280458D01*
X0315457Y0280549D01*
X0315419Y0280639D01*
X0315378Y0280728D01*
X0314056Y0278272D02*
X0314074Y0278225D01*
X0314096Y0278179D01*
X0314121Y0278134D01*
X0314149Y0278092D01*
X0314180Y0278051D01*
X0314214Y0278013D01*
X0314251Y0277978D01*
X0314290Y0277945D01*
X0314332Y0277916D01*
X0314375Y0277889D01*
X0314421Y0277866D01*
X0314468Y0277846D01*
X0314516Y0277830D01*
X0314565Y0277817D01*
X0314615Y0277807D01*
X0314666Y0277802D01*
X0314717Y0277800D01*
X0317183Y0277800D02*
X0319450Y0281200D01*
X0315661Y0279500D02*
X0315659Y0279402D01*
X0315654Y0279305D01*
X0315646Y0279207D01*
X0315634Y0279110D01*
X0315618Y0279014D01*
X0315600Y0278918D01*
X0315578Y0278822D01*
X0315553Y0278728D01*
X0315524Y0278634D01*
X0315492Y0278542D01*
X0315457Y0278451D01*
X0315419Y0278361D01*
X0315378Y0278272D01*
X0312061Y0277800D02*
X0310172Y0277800D01*
X0311117Y0277800D02*
X0311117Y0281200D01*
X0312061Y0280444D01*
X0329108Y0285892D02*
X0329108Y0293108D01*
X0335250Y0299250D01*
X0336750Y0299250D01*
X0388250Y0299609D02*
X0390750Y0302109D01*
X0390750Y0319750D01*
X0392750Y0321750D01*
X0402750Y0321750D01*
X0402750Y0331750D02*
X0392750Y0331750D01*
X0388500Y0327500D01*
X0388500Y0304527D01*
X0392999Y0302126D02*
X0392999Y0309874D01*
X0394875Y0311750D01*
X0402750Y0311750D01*
X0388250Y0296409D02*
X0392909Y0291750D01*
X0402750Y0291750D01*
X0402750Y0269750D02*
X0392750Y0269750D01*
X0388500Y0265500D01*
X0388500Y0242527D01*
X0390750Y0240109D02*
X0390750Y0257750D01*
X0392750Y0259750D01*
X0402750Y0259750D01*
X0402750Y0249750D02*
X0394875Y0249750D01*
X0392999Y0247874D01*
X0392999Y0240126D01*
X0390750Y0240109D02*
X0388250Y0237609D01*
X0388250Y0234409D02*
X0392909Y0229750D01*
X0402750Y0229750D01*
X0402750Y0207750D02*
X0392750Y0207750D01*
X0388500Y0203500D01*
X0388500Y0180527D01*
X0390750Y0178109D02*
X0390750Y0195750D01*
X0392750Y0197750D01*
X0402750Y0197750D01*
X0402750Y0187750D02*
X0394875Y0187750D01*
X0392999Y0185874D01*
X0392999Y0178126D01*
X0390750Y0178109D02*
X0388250Y0175609D01*
X0388250Y0172409D02*
X0392909Y0167750D01*
X0402750Y0167750D01*
X0402750Y0145750D02*
X0392750Y0145750D01*
X0388500Y0141500D01*
X0388500Y0118527D01*
X0390750Y0116109D02*
X0390750Y0133750D01*
X0392750Y0135750D01*
X0402750Y0135750D01*
X0402750Y0125750D02*
X0394875Y0125750D01*
X0392999Y0123874D01*
X0392999Y0116126D01*
X0390750Y0116109D02*
X0388250Y0113609D01*
X0388250Y0110409D02*
X0392909Y0105750D01*
X0402750Y0105750D01*
X0402750Y0083750D02*
X0392750Y0083750D01*
X0388500Y0079500D01*
X0388500Y0056527D01*
X0390750Y0054109D02*
X0390750Y0071750D01*
X0392750Y0073750D01*
X0402750Y0073750D01*
X0402750Y0063750D02*
X0394875Y0063750D01*
X0392999Y0061874D01*
X0392999Y0054126D01*
X0390750Y0054109D02*
X0388250Y0051609D01*
X0388250Y0048409D02*
X0392909Y0043750D01*
X0402750Y0043750D01*
D11*
X0402750Y0043750D03*
X0402750Y0033750D03*
X0402750Y0053750D03*
X0402750Y0063750D03*
X0402750Y0073750D03*
X0402750Y0083750D03*
X0402750Y0095750D03*
X0402750Y0105750D03*
X0402750Y0115750D03*
X0402750Y0125750D03*
X0402750Y0135750D03*
X0402750Y0145750D03*
X0402750Y0157750D03*
X0402750Y0167750D03*
X0402750Y0177750D03*
X0402750Y0187750D03*
X0402750Y0197750D03*
X0402750Y0207750D03*
X0402750Y0219750D03*
X0402750Y0229750D03*
X0402750Y0239750D03*
X0402750Y0249750D03*
X0402750Y0259750D03*
X0402750Y0269750D03*
X0402750Y0281750D03*
X0402750Y0291750D03*
X0402750Y0301750D03*
X0402750Y0311750D03*
X0402750Y0321750D03*
X0402750Y0331750D03*
X0275750Y0331750D03*
X0275750Y0321750D03*
X0275750Y0311750D03*
X0275750Y0301750D03*
X0275750Y0291750D03*
X0275750Y0281750D03*
X0275750Y0269750D03*
X0275750Y0259750D03*
X0275750Y0249750D03*
X0275750Y0239750D03*
X0275750Y0229750D03*
X0275750Y0219750D03*
X0275750Y0207750D03*
X0275750Y0197750D03*
X0275750Y0187750D03*
X0275750Y0177750D03*
X0275750Y0167750D03*
X0275750Y0157750D03*
X0275750Y0145750D03*
X0275750Y0135750D03*
X0275750Y0125750D03*
X0275750Y0115750D03*
X0275750Y0105750D03*
X0275750Y0095750D03*
X0275750Y0083750D03*
X0275750Y0073750D03*
X0275750Y0063750D03*
X0275750Y0053750D03*
X0275750Y0043750D03*
X0275750Y0033750D03*
X0148750Y0033750D03*
X0148750Y0043750D03*
X0148750Y0053750D03*
X0148750Y0063750D03*
X0148750Y0073750D03*
X0148750Y0083750D03*
X0148750Y0095750D03*
X0148750Y0105750D03*
X0148750Y0115750D03*
X0148750Y0125750D03*
X0148750Y0135750D03*
X0148750Y0145750D03*
X0148750Y0157750D03*
X0148750Y0167750D03*
X0148750Y0177750D03*
X0148750Y0187750D03*
X0148750Y0197750D03*
X0148750Y0207750D03*
X0148750Y0219750D03*
X0148750Y0229750D03*
X0148750Y0239750D03*
X0148750Y0249750D03*
X0148750Y0259750D03*
X0148750Y0269750D03*
X0148750Y0281750D03*
X0148750Y0291750D03*
X0148750Y0301750D03*
X0148750Y0311750D03*
X0148750Y0321750D03*
X0148750Y0331750D03*
D12*
X0158250Y0334250D03*
X0144250Y0286750D03*
X0158250Y0272250D03*
X0144250Y0224750D03*
X0158250Y0210250D03*
X0144250Y0162750D03*
X0158250Y0148250D03*
X0144250Y0100750D03*
X0158250Y0086250D03*
X0144250Y0038750D03*
X0031250Y0086250D03*
X0031250Y0148250D03*
X0031250Y0210250D03*
X0031250Y0272250D03*
X0031250Y0334250D03*
X0271250Y0286750D03*
X0285250Y0272250D03*
X0271250Y0224750D03*
X0285250Y0210250D03*
X0271250Y0162750D03*
X0285250Y0148250D03*
X0271250Y0100750D03*
X0285250Y0086250D03*
X0271250Y0038750D03*
X0398250Y0038750D03*
X0398250Y0100750D03*
X0398250Y0162750D03*
X0398250Y0224750D03*
X0398250Y0286750D03*
X0285250Y0334250D03*
D13*
X0263500Y0334250D03*
X0250750Y0316750D03*
X0261500Y0304527D03*
X0265999Y0302126D03*
X0261250Y0299609D03*
X0261250Y0296409D03*
X0261250Y0286750D03*
X0263500Y0272250D03*
X0240750Y0291750D03*
X0231000Y0313250D03*
X0225750Y0312750D03*
X0225750Y0326750D03*
X0232500Y0325750D03*
X0208000Y0327250D03*
X0209750Y0299250D03*
X0202108Y0285892D03*
X0208000Y0265250D03*
X0225750Y0264750D03*
X0232500Y0263750D03*
X0231000Y0251250D03*
X0225750Y0250750D03*
X0209750Y0237250D03*
X0202108Y0223892D03*
X0208000Y0203250D03*
X0225750Y0202750D03*
X0232500Y0201750D03*
X0231000Y0189250D03*
X0225750Y0188750D03*
X0209750Y0175250D03*
X0202108Y0161892D03*
X0208000Y0141250D03*
X0225750Y0140750D03*
X0232500Y0139750D03*
X0231000Y0127250D03*
X0225750Y0126750D03*
X0209750Y0113250D03*
X0202108Y0099892D03*
X0208000Y0079250D03*
X0225750Y0078750D03*
X0232500Y0077750D03*
X0231000Y0065250D03*
X0225750Y0064750D03*
X0209750Y0051250D03*
X0202108Y0037892D03*
X0240750Y0043750D03*
X0261250Y0048409D03*
X0261250Y0051609D03*
X0261500Y0056527D03*
X0265999Y0054126D03*
X0250750Y0068750D03*
X0263500Y0086250D03*
X0261250Y0100750D03*
X0261250Y0110409D03*
X0261250Y0113609D03*
X0261500Y0118527D03*
X0265999Y0116126D03*
X0250750Y0130750D03*
X0263500Y0148250D03*
X0261250Y0162750D03*
X0261250Y0172409D03*
X0261250Y0175609D03*
X0261500Y0180527D03*
X0265999Y0178126D03*
X0250750Y0192750D03*
X0263500Y0210250D03*
X0261250Y0224750D03*
X0261250Y0234409D03*
X0261250Y0237609D03*
X0261500Y0242527D03*
X0265999Y0240126D03*
X0250750Y0254750D03*
X0240750Y0229750D03*
X0240750Y0167750D03*
X0240750Y0105750D03*
X0261250Y0038750D03*
X0329108Y0037892D03*
X0336750Y0051250D03*
X0352750Y0064750D03*
X0358000Y0065250D03*
X0359500Y0077750D03*
X0352750Y0078750D03*
X0335000Y0079250D03*
X0329108Y0099892D03*
X0336750Y0113250D03*
X0352750Y0126750D03*
X0358000Y0127250D03*
X0359500Y0139750D03*
X0352750Y0140750D03*
X0335000Y0141250D03*
X0329108Y0161892D03*
X0336750Y0175250D03*
X0352750Y0188750D03*
X0358000Y0189250D03*
X0359500Y0201750D03*
X0352750Y0202750D03*
X0335000Y0203250D03*
X0329108Y0223892D03*
X0336750Y0237250D03*
X0352750Y0250750D03*
X0358000Y0251250D03*
X0377750Y0254750D03*
X0388500Y0242527D03*
X0388250Y0237609D03*
X0388250Y0234409D03*
X0392999Y0240126D03*
X0388250Y0224750D03*
X0390500Y0210250D03*
X0377750Y0192750D03*
X0388500Y0180527D03*
X0388250Y0175609D03*
X0388250Y0172409D03*
X0392999Y0178126D03*
X0388250Y0162750D03*
X0390500Y0148250D03*
X0377750Y0130750D03*
X0388500Y0118527D03*
X0388250Y0113609D03*
X0388250Y0110409D03*
X0392999Y0116126D03*
X0388250Y0100750D03*
X0390500Y0086250D03*
X0377750Y0068750D03*
X0388500Y0056527D03*
X0388250Y0051609D03*
X0388250Y0048409D03*
X0392999Y0054126D03*
X0388250Y0038750D03*
X0367750Y0043750D03*
X0367750Y0105750D03*
X0367750Y0167750D03*
X0367750Y0229750D03*
X0359500Y0263750D03*
X0352750Y0264750D03*
X0335000Y0265250D03*
X0329108Y0285892D03*
X0336750Y0299250D03*
X0352750Y0312750D03*
X0358000Y0313250D03*
X0359500Y0325750D03*
X0352750Y0326750D03*
X0335000Y0327250D03*
X0377750Y0316750D03*
X0388500Y0304527D03*
X0392999Y0302126D03*
X0388250Y0299609D03*
X0388250Y0296409D03*
X0388250Y0286750D03*
X0390500Y0272250D03*
X0367750Y0291750D03*
X0390500Y0334250D03*
X0138999Y0302126D03*
X0134500Y0304527D03*
X0134250Y0299609D03*
X0134250Y0296409D03*
X0134250Y0286750D03*
X0136500Y0272250D03*
X0113750Y0291750D03*
X0104000Y0313250D03*
X0098750Y0312750D03*
X0098750Y0326750D03*
X0105500Y0325750D03*
X0123750Y0316750D03*
X0136500Y0334250D03*
X0082750Y0299250D03*
X0075108Y0285892D03*
X0081000Y0265250D03*
X0098750Y0264750D03*
X0105500Y0263750D03*
X0104000Y0251250D03*
X0098750Y0250750D03*
X0082750Y0237250D03*
X0075108Y0223892D03*
X0081000Y0203250D03*
X0098750Y0202750D03*
X0105500Y0201750D03*
X0104000Y0189250D03*
X0098750Y0188750D03*
X0082750Y0175250D03*
X0075108Y0161892D03*
X0081000Y0141250D03*
X0098750Y0140750D03*
X0105500Y0139750D03*
X0104000Y0127250D03*
X0098750Y0126750D03*
X0082750Y0113250D03*
X0075108Y0099892D03*
X0081000Y0079250D03*
X0098750Y0078750D03*
X0105500Y0077750D03*
X0104000Y0065250D03*
X0098750Y0064750D03*
X0082750Y0051250D03*
X0075108Y0037892D03*
X0113750Y0043750D03*
X0134250Y0048409D03*
X0134250Y0051609D03*
X0134500Y0056527D03*
X0138999Y0054126D03*
X0123750Y0068750D03*
X0136500Y0086250D03*
X0134250Y0100750D03*
X0134250Y0110409D03*
X0134250Y0113609D03*
X0134500Y0118527D03*
X0138999Y0116126D03*
X0123750Y0130750D03*
X0136500Y0148250D03*
X0134250Y0162750D03*
X0134250Y0172409D03*
X0134250Y0175609D03*
X0134500Y0180527D03*
X0138999Y0178126D03*
X0123750Y0192750D03*
X0136500Y0210250D03*
X0134250Y0224750D03*
X0134250Y0234409D03*
X0134250Y0237609D03*
X0134500Y0242527D03*
X0138999Y0240126D03*
X0123750Y0254750D03*
X0113750Y0229750D03*
X0113750Y0167750D03*
X0113750Y0105750D03*
X0134250Y0038750D03*
X0081000Y0327250D03*
D14*
X0055250Y0031431D02*
X0055250Y0030858D01*
X0055592Y0031200D01*
X0055717Y0031200D01*
X0055717Y0033122D01*
X0055661Y0033622D01*
X0055717Y0033691D01*
X0055717Y0033780D01*
X0056072Y0034135D01*
X0056386Y0034527D01*
X0056474Y0034537D01*
X0056537Y0034600D01*
X0057039Y0034600D01*
X0057538Y0034655D01*
X0057608Y0034600D01*
X0057697Y0034600D01*
X0058052Y0034245D01*
X0058871Y0033589D01*
X0058949Y0033818D01*
X0058949Y0033818D01*
X0058949Y0033818D01*
X0060044Y0034600D01*
X0061389Y0034600D01*
X0062051Y0034128D01*
X0062889Y0034687D01*
X0064027Y0034459D01*
X0064317Y0034024D01*
X0064607Y0034459D01*
X0065744Y0034687D01*
X0066709Y0034043D01*
X0066937Y0032906D01*
X0065999Y0031500D01*
X0066833Y0030250D01*
X0144896Y0030250D01*
X0144784Y0030362D01*
X0144303Y0031025D01*
X0143931Y0031754D01*
X0143678Y0032532D01*
X0143564Y0033250D01*
X0148250Y0033250D01*
X0148250Y0034250D01*
X0148250Y0038936D01*
X0147532Y0038822D01*
X0146754Y0038569D01*
X0146600Y0038491D01*
X0146600Y0039445D01*
X0147795Y0038950D01*
X0149705Y0038950D01*
X0151469Y0039681D01*
X0152250Y0040462D01*
X0152250Y0037604D01*
X0152138Y0037716D01*
X0151475Y0038197D01*
X0150746Y0038569D01*
X0149968Y0038822D01*
X0149250Y0038936D01*
X0149250Y0034250D01*
X0148250Y0034250D01*
X0143564Y0034250D01*
X0143678Y0034968D01*
X0143931Y0035746D01*
X0144264Y0036400D01*
X0143277Y0036400D01*
X0141900Y0037777D01*
X0141900Y0039723D01*
X0143277Y0041100D01*
X0144652Y0041100D01*
X0144134Y0042350D01*
X0138329Y0042350D01*
X0137509Y0043170D01*
X0134570Y0046109D01*
X0133297Y0046109D01*
X0131950Y0047456D01*
X0131950Y0049362D01*
X0132597Y0050009D01*
X0131950Y0050656D01*
X0131950Y0052562D01*
X0133297Y0053909D01*
X0134570Y0053909D01*
X0134888Y0054227D01*
X0133547Y0054227D01*
X0132200Y0055574D01*
X0132200Y0057480D01*
X0133100Y0058380D01*
X0133100Y0080080D01*
X0133920Y0080900D01*
X0133920Y0080900D01*
X0137350Y0084330D01*
X0137350Y0084330D01*
X0138170Y0085150D01*
X0144134Y0085150D01*
X0144681Y0086469D01*
X0145462Y0087250D01*
X0055250Y0087250D01*
X0055250Y0086069D01*
X0055539Y0085780D01*
X0055539Y0031720D01*
X0055250Y0031431D01*
X0055539Y0031746D02*
X0055717Y0031746D01*
X0055717Y0032744D02*
X0055539Y0032744D01*
X0055539Y0033743D02*
X0055717Y0033743D01*
X0055539Y0034741D02*
X0143642Y0034741D01*
X0143929Y0035740D02*
X0076209Y0035740D01*
X0076061Y0035592D02*
X0077408Y0036939D01*
X0077408Y0038844D01*
X0076508Y0039744D01*
X0076508Y0044528D01*
X0081364Y0049384D01*
X0081797Y0048950D01*
X0083703Y0048950D01*
X0085050Y0050297D01*
X0085050Y0052203D01*
X0083703Y0053550D01*
X0081797Y0053550D01*
X0080897Y0052650D01*
X0080670Y0052650D01*
X0073708Y0045688D01*
X0073708Y0039744D01*
X0072808Y0038844D01*
X0072808Y0036939D01*
X0074156Y0035592D01*
X0076061Y0035592D01*
X0077207Y0036738D02*
X0142938Y0036738D01*
X0141940Y0037737D02*
X0077408Y0037737D01*
X0077408Y0038735D02*
X0141900Y0038735D01*
X0141910Y0039734D02*
X0076519Y0039734D01*
X0076508Y0040732D02*
X0142909Y0040732D01*
X0144391Y0041731D02*
X0076508Y0041731D01*
X0076508Y0042729D02*
X0137950Y0042729D01*
X0136951Y0043728D02*
X0076508Y0043728D01*
X0076706Y0044726D02*
X0135953Y0044726D01*
X0134954Y0045725D02*
X0077705Y0045725D01*
X0078703Y0046723D02*
X0132683Y0046723D01*
X0131950Y0047722D02*
X0079702Y0047722D01*
X0080700Y0048720D02*
X0131950Y0048720D01*
X0132307Y0049719D02*
X0084471Y0049719D01*
X0085050Y0050717D02*
X0131950Y0050717D01*
X0131950Y0051716D02*
X0085050Y0051716D01*
X0084538Y0052714D02*
X0132103Y0052714D01*
X0133101Y0053713D02*
X0055539Y0053713D01*
X0055539Y0054711D02*
X0133063Y0054711D01*
X0132200Y0055710D02*
X0055539Y0055710D01*
X0055539Y0056708D02*
X0132200Y0056708D01*
X0132427Y0057707D02*
X0055539Y0057707D01*
X0055539Y0058705D02*
X0133100Y0058705D01*
X0133100Y0059704D02*
X0055539Y0059704D01*
X0055539Y0060702D02*
X0133100Y0060702D01*
X0133100Y0061701D02*
X0055539Y0061701D01*
X0055539Y0062699D02*
X0097548Y0062699D01*
X0097797Y0062450D02*
X0099703Y0062450D01*
X0101050Y0063797D01*
X0101050Y0065703D01*
X0100350Y0066403D01*
X0100350Y0067150D01*
X0122097Y0067150D01*
X0122797Y0066450D01*
X0124703Y0066450D01*
X0126050Y0067797D01*
X0126050Y0069703D01*
X0124703Y0071050D01*
X0122797Y0071050D01*
X0122097Y0070350D01*
X0100350Y0070350D01*
X0100350Y0077097D01*
X0101050Y0077797D01*
X0101050Y0079703D01*
X0099703Y0081050D01*
X0097797Y0081050D01*
X0096450Y0079703D01*
X0096450Y0077797D01*
X0097150Y0077097D01*
X0097150Y0066403D01*
X0096450Y0065703D01*
X0096450Y0063797D01*
X0097797Y0062450D01*
X0096549Y0063698D02*
X0055539Y0063698D01*
X0055539Y0064696D02*
X0096450Y0064696D01*
X0096450Y0065695D02*
X0055539Y0065695D01*
X0055539Y0066693D02*
X0097150Y0066693D01*
X0097150Y0067692D02*
X0055539Y0067692D01*
X0055539Y0068690D02*
X0097150Y0068690D01*
X0097150Y0069689D02*
X0055539Y0069689D01*
X0055539Y0070687D02*
X0097150Y0070687D01*
X0097150Y0071686D02*
X0055539Y0071686D01*
X0055539Y0072684D02*
X0097150Y0072684D01*
X0097150Y0073683D02*
X0055539Y0073683D01*
X0055539Y0074682D02*
X0097150Y0074682D01*
X0097150Y0075680D02*
X0055539Y0075680D01*
X0055539Y0076679D02*
X0097150Y0076679D01*
X0096570Y0077677D02*
X0055539Y0077677D01*
X0055539Y0078676D02*
X0096450Y0078676D01*
X0096450Y0079674D02*
X0055539Y0079674D01*
X0055539Y0080673D02*
X0097420Y0080673D01*
X0098750Y0078750D02*
X0098750Y0068750D01*
X0123750Y0068750D01*
X0126050Y0068690D02*
X0133100Y0068690D01*
X0133100Y0067692D02*
X0125945Y0067692D01*
X0124946Y0066693D02*
X0133100Y0066693D01*
X0133100Y0065695D02*
X0101050Y0065695D01*
X0101050Y0064696D02*
X0133100Y0064696D01*
X0133100Y0063698D02*
X0100951Y0063698D01*
X0099952Y0062699D02*
X0133100Y0062699D01*
X0133100Y0069689D02*
X0126050Y0069689D01*
X0125065Y0070687D02*
X0133100Y0070687D01*
X0133100Y0071686D02*
X0100350Y0071686D01*
X0100350Y0072684D02*
X0133100Y0072684D01*
X0133100Y0073683D02*
X0100350Y0073683D01*
X0100350Y0074682D02*
X0133100Y0074682D01*
X0133100Y0075680D02*
X0100350Y0075680D01*
X0100350Y0076679D02*
X0133100Y0076679D01*
X0133100Y0077677D02*
X0100930Y0077677D01*
X0101050Y0078676D02*
X0133100Y0078676D01*
X0133100Y0079674D02*
X0101050Y0079674D01*
X0100080Y0080673D02*
X0133693Y0080673D01*
X0134691Y0081671D02*
X0055539Y0081671D01*
X0055539Y0082670D02*
X0135690Y0082670D01*
X0136688Y0083668D02*
X0055539Y0083668D01*
X0055539Y0084667D02*
X0137687Y0084667D01*
X0144348Y0085665D02*
X0055539Y0085665D01*
X0055250Y0086664D02*
X0144875Y0086664D01*
X0144896Y0092250D02*
X0066833Y0092250D01*
X0065999Y0093500D01*
X0066937Y0094906D01*
X0066709Y0096043D01*
X0065744Y0096687D01*
X0064607Y0096459D01*
X0064317Y0096024D01*
X0064027Y0096459D01*
X0062889Y0096687D01*
X0062051Y0096128D01*
X0061389Y0096600D01*
X0060044Y0096600D01*
X0058949Y0095818D01*
X0058871Y0095589D01*
X0058052Y0096245D01*
X0057697Y0096600D01*
X0057608Y0096600D01*
X0057538Y0096655D01*
X0057039Y0096600D01*
X0056537Y0096600D01*
X0056474Y0096537D01*
X0056386Y0096527D01*
X0056072Y0096135D01*
X0055717Y0095780D01*
X0055717Y0095691D01*
X0055661Y0095622D01*
X0055717Y0095122D01*
X0055717Y0093200D01*
X0055592Y0093200D01*
X0055250Y0092858D01*
X0055250Y0093431D01*
X0055539Y0093720D01*
X0055539Y0147780D01*
X0055250Y0148069D01*
X0055250Y0149250D01*
X0145462Y0149250D01*
X0144681Y0148469D01*
X0144134Y0147150D01*
X0138170Y0147150D01*
X0137350Y0146330D01*
X0133100Y0142080D01*
X0133100Y0120380D01*
X0132200Y0119480D01*
X0132200Y0117574D01*
X0133547Y0116227D01*
X0134888Y0116227D01*
X0134570Y0115909D01*
X0133297Y0115909D01*
X0131950Y0114562D01*
X0131950Y0112656D01*
X0132597Y0112009D01*
X0131950Y0111362D01*
X0131950Y0109456D01*
X0133297Y0108109D01*
X0134570Y0108109D01*
X0137509Y0105170D01*
X0138329Y0104350D01*
X0144134Y0104350D01*
X0144652Y0103100D01*
X0143277Y0103100D01*
X0141900Y0101723D01*
X0141900Y0099777D01*
X0143277Y0098400D01*
X0144264Y0098400D01*
X0143931Y0097746D01*
X0143678Y0096968D01*
X0143564Y0096250D01*
X0148250Y0096250D01*
X0148250Y0100936D01*
X0147532Y0100822D01*
X0146754Y0100569D01*
X0146600Y0100491D01*
X0146600Y0101445D01*
X0147795Y0100950D01*
X0149705Y0100950D01*
X0151469Y0101681D01*
X0152250Y0102462D01*
X0152250Y0099604D01*
X0152138Y0099716D01*
X0151475Y0100197D01*
X0150746Y0100569D01*
X0149968Y0100822D01*
X0149250Y0100936D01*
X0149250Y0096250D01*
X0148250Y0096250D01*
X0148250Y0095250D01*
X0143564Y0095250D01*
X0143678Y0094532D01*
X0143931Y0093754D01*
X0144303Y0093025D01*
X0144784Y0092362D01*
X0144896Y0092250D01*
X0144571Y0092655D02*
X0066563Y0092655D01*
X0066101Y0093653D02*
X0143982Y0093653D01*
X0143659Y0094652D02*
X0066767Y0094652D01*
X0066788Y0095650D02*
X0148250Y0095650D01*
X0148250Y0096649D02*
X0149250Y0096649D01*
X0149250Y0097647D02*
X0148250Y0097647D01*
X0148250Y0098646D02*
X0149250Y0098646D01*
X0149250Y0099644D02*
X0148250Y0099644D01*
X0148250Y0100643D02*
X0149250Y0100643D01*
X0150519Y0100643D02*
X0152250Y0100643D01*
X0152250Y0101641D02*
X0151374Y0101641D01*
X0152210Y0099644D02*
X0152250Y0099644D01*
X0146981Y0100643D02*
X0146600Y0100643D01*
X0144429Y0103638D02*
X0076508Y0103638D01*
X0076508Y0102640D02*
X0142816Y0102640D01*
X0141900Y0101641D02*
X0076611Y0101641D01*
X0076508Y0101744D02*
X0076508Y0106528D01*
X0081364Y0111384D01*
X0081797Y0110950D01*
X0083703Y0110950D01*
X0085050Y0112297D01*
X0085050Y0114203D01*
X0083703Y0115550D01*
X0081797Y0115550D01*
X0080897Y0114650D01*
X0080670Y0114650D01*
X0073708Y0107688D01*
X0073708Y0101744D01*
X0072808Y0100844D01*
X0072808Y0098939D01*
X0074156Y0097592D01*
X0076061Y0097592D01*
X0077408Y0098939D01*
X0077408Y0100844D01*
X0076508Y0101744D01*
X0077408Y0100643D02*
X0141900Y0100643D01*
X0142032Y0099644D02*
X0077408Y0099644D01*
X0077115Y0098646D02*
X0143031Y0098646D01*
X0143899Y0097647D02*
X0076116Y0097647D01*
X0074100Y0097647D02*
X0055539Y0097647D01*
X0055539Y0096649D02*
X0057478Y0096649D01*
X0057547Y0096649D02*
X0062833Y0096649D01*
X0063078Y0096649D02*
X0065555Y0096649D01*
X0065801Y0096649D02*
X0143628Y0096649D01*
X0138042Y0104637D02*
X0076508Y0104637D01*
X0076508Y0105635D02*
X0137044Y0105635D01*
X0136045Y0106634D02*
X0076614Y0106634D01*
X0077612Y0107632D02*
X0135047Y0107632D01*
X0132775Y0108631D02*
X0078611Y0108631D01*
X0079609Y0109629D02*
X0131950Y0109629D01*
X0131950Y0110628D02*
X0080608Y0110628D01*
X0078645Y0112625D02*
X0055539Y0112625D01*
X0055539Y0113623D02*
X0079644Y0113623D01*
X0080642Y0114622D02*
X0055539Y0114622D01*
X0055539Y0115620D02*
X0133009Y0115620D01*
X0133155Y0116619D02*
X0055539Y0116619D01*
X0055539Y0117618D02*
X0132200Y0117618D01*
X0132200Y0118616D02*
X0055539Y0118616D01*
X0055539Y0119615D02*
X0132335Y0119615D01*
X0133100Y0120613D02*
X0055539Y0120613D01*
X0055539Y0121612D02*
X0133100Y0121612D01*
X0133100Y0122610D02*
X0055539Y0122610D01*
X0055539Y0123609D02*
X0133100Y0123609D01*
X0133100Y0124607D02*
X0099860Y0124607D01*
X0099703Y0124450D02*
X0101050Y0125797D01*
X0101050Y0127703D01*
X0100350Y0128403D01*
X0100350Y0129150D01*
X0122097Y0129150D01*
X0122797Y0128450D01*
X0124703Y0128450D01*
X0126050Y0129797D01*
X0126050Y0131703D01*
X0124703Y0133050D01*
X0122797Y0133050D01*
X0122097Y0132350D01*
X0100350Y0132350D01*
X0100350Y0139097D01*
X0101050Y0139797D01*
X0101050Y0141703D01*
X0099703Y0143050D01*
X0097797Y0143050D01*
X0096450Y0141703D01*
X0096450Y0139797D01*
X0097150Y0139097D01*
X0097150Y0128403D01*
X0096450Y0127703D01*
X0096450Y0125797D01*
X0097797Y0124450D01*
X0099703Y0124450D01*
X0100858Y0125606D02*
X0133100Y0125606D01*
X0133100Y0126604D02*
X0101050Y0126604D01*
X0101050Y0127603D02*
X0133100Y0127603D01*
X0133100Y0128601D02*
X0124854Y0128601D01*
X0125852Y0129600D02*
X0133100Y0129600D01*
X0133100Y0130598D02*
X0126050Y0130598D01*
X0126050Y0131597D02*
X0133100Y0131597D01*
X0133100Y0132595D02*
X0125157Y0132595D01*
X0123750Y0130750D02*
X0098750Y0130750D01*
X0098750Y0140750D01*
X0101050Y0140583D02*
X0133100Y0140583D01*
X0133100Y0139585D02*
X0100837Y0139585D01*
X0100350Y0138586D02*
X0133100Y0138586D01*
X0133100Y0137588D02*
X0100350Y0137588D01*
X0100350Y0136589D02*
X0133100Y0136589D01*
X0133100Y0135591D02*
X0100350Y0135591D01*
X0100350Y0134592D02*
X0133100Y0134592D01*
X0133100Y0133594D02*
X0100350Y0133594D01*
X0100350Y0132595D02*
X0122342Y0132595D01*
X0122646Y0128601D02*
X0100350Y0128601D01*
X0098750Y0126750D02*
X0098750Y0130750D01*
X0097150Y0130598D02*
X0055539Y0130598D01*
X0055539Y0129600D02*
X0097150Y0129600D01*
X0097150Y0128601D02*
X0055539Y0128601D01*
X0055539Y0127603D02*
X0096450Y0127603D01*
X0096450Y0126604D02*
X0055539Y0126604D01*
X0055539Y0125606D02*
X0096642Y0125606D01*
X0097640Y0124607D02*
X0055539Y0124607D01*
X0055539Y0131597D02*
X0097150Y0131597D01*
X0097150Y0132595D02*
X0055539Y0132595D01*
X0055539Y0133594D02*
X0097150Y0133594D01*
X0097150Y0134592D02*
X0055539Y0134592D01*
X0055539Y0135591D02*
X0097150Y0135591D01*
X0097150Y0136589D02*
X0055539Y0136589D01*
X0055539Y0137588D02*
X0097150Y0137588D01*
X0097150Y0138586D02*
X0055539Y0138586D01*
X0055539Y0139585D02*
X0096663Y0139585D01*
X0096450Y0140583D02*
X0055539Y0140583D01*
X0055539Y0141582D02*
X0096450Y0141582D01*
X0097328Y0142580D02*
X0055539Y0142580D01*
X0055539Y0143579D02*
X0134599Y0143579D01*
X0135597Y0144577D02*
X0055539Y0144577D01*
X0055539Y0145576D02*
X0136596Y0145576D01*
X0137594Y0146574D02*
X0055539Y0146574D01*
X0055539Y0147573D02*
X0144310Y0147573D01*
X0144783Y0148571D02*
X0055250Y0148571D01*
X0055250Y0154858D02*
X0055250Y0155431D01*
X0055539Y0155720D01*
X0055539Y0209780D01*
X0055250Y0210069D01*
X0055250Y0211250D01*
X0145462Y0211250D01*
X0144681Y0210469D01*
X0144134Y0209150D01*
X0138170Y0209150D01*
X0137350Y0208330D01*
X0133100Y0204080D01*
X0133100Y0182380D01*
X0132200Y0181480D01*
X0132200Y0179574D01*
X0133547Y0178227D01*
X0134888Y0178227D01*
X0134570Y0177909D01*
X0133297Y0177909D01*
X0131950Y0176562D01*
X0131950Y0174656D01*
X0132597Y0174009D01*
X0131950Y0173362D01*
X0131950Y0171456D01*
X0133297Y0170109D01*
X0134570Y0170109D01*
X0137509Y0167170D01*
X0138329Y0166350D01*
X0144134Y0166350D01*
X0144652Y0165100D01*
X0143277Y0165100D01*
X0141900Y0163723D01*
X0141900Y0161777D01*
X0143277Y0160400D01*
X0144264Y0160400D01*
X0143931Y0159746D01*
X0143678Y0158968D01*
X0143564Y0158250D01*
X0148250Y0158250D01*
X0148250Y0162936D01*
X0147532Y0162822D01*
X0146754Y0162569D01*
X0146600Y0162491D01*
X0146600Y0163445D01*
X0147795Y0162950D01*
X0149705Y0162950D01*
X0151469Y0163681D01*
X0152250Y0164462D01*
X0152250Y0161604D01*
X0152138Y0161716D01*
X0151475Y0162197D01*
X0150746Y0162569D01*
X0149968Y0162822D01*
X0149250Y0162936D01*
X0149250Y0158250D01*
X0148250Y0158250D01*
X0148250Y0157250D01*
X0143564Y0157250D01*
X0143678Y0156532D01*
X0143931Y0155754D01*
X0144303Y0155025D01*
X0144784Y0154362D01*
X0144896Y0154250D01*
X0066833Y0154250D01*
X0065999Y0155500D01*
X0066937Y0156906D01*
X0066709Y0158043D01*
X0065744Y0158687D01*
X0064607Y0158459D01*
X0064317Y0158024D01*
X0064027Y0158459D01*
X0062889Y0158687D01*
X0062051Y0158128D01*
X0061389Y0158600D01*
X0060044Y0158600D01*
X0058949Y0157818D01*
X0058871Y0157589D01*
X0058052Y0158245D01*
X0057697Y0158600D01*
X0057608Y0158600D01*
X0057538Y0158655D01*
X0057039Y0158600D01*
X0056537Y0158600D01*
X0056474Y0158537D01*
X0056386Y0158527D01*
X0056072Y0158135D01*
X0055717Y0157780D01*
X0055717Y0157691D01*
X0055661Y0157622D01*
X0055717Y0157122D01*
X0055717Y0155200D01*
X0055592Y0155200D01*
X0055250Y0154858D01*
X0055380Y0155561D02*
X0055717Y0155561D01*
X0055717Y0156559D02*
X0055539Y0156559D01*
X0055539Y0157558D02*
X0055668Y0157558D01*
X0055539Y0158556D02*
X0056493Y0158556D01*
X0057740Y0158556D02*
X0059983Y0158556D01*
X0058949Y0157818D02*
X0058949Y0157818D01*
X0058949Y0157818D01*
X0061450Y0158556D02*
X0062694Y0158556D01*
X0063540Y0158556D02*
X0065094Y0158556D01*
X0065939Y0158556D02*
X0143613Y0158556D01*
X0143869Y0159555D02*
X0055539Y0159555D01*
X0055539Y0160553D02*
X0073194Y0160553D01*
X0072808Y0160939D02*
X0074156Y0159592D01*
X0076061Y0159592D01*
X0077408Y0160939D01*
X0077408Y0162844D01*
X0076508Y0163744D01*
X0076508Y0168528D01*
X0081364Y0173384D01*
X0081797Y0172950D01*
X0083703Y0172950D01*
X0085050Y0174297D01*
X0085050Y0176203D01*
X0083703Y0177550D01*
X0081797Y0177550D01*
X0080897Y0176650D01*
X0080670Y0176650D01*
X0073708Y0169688D01*
X0073708Y0163744D01*
X0072808Y0162844D01*
X0072808Y0160939D01*
X0072808Y0161552D02*
X0055539Y0161552D01*
X0055539Y0162551D02*
X0072808Y0162551D01*
X0073513Y0163549D02*
X0055539Y0163549D01*
X0055539Y0164548D02*
X0073708Y0164548D01*
X0073708Y0165546D02*
X0055539Y0165546D01*
X0055539Y0166545D02*
X0073708Y0166545D01*
X0073708Y0167543D02*
X0055539Y0167543D01*
X0055539Y0168542D02*
X0073708Y0168542D01*
X0073708Y0169540D02*
X0055539Y0169540D01*
X0055539Y0170539D02*
X0074559Y0170539D01*
X0075557Y0171537D02*
X0055539Y0171537D01*
X0055539Y0172536D02*
X0076556Y0172536D01*
X0077554Y0173534D02*
X0055539Y0173534D01*
X0055539Y0174533D02*
X0078553Y0174533D01*
X0079551Y0175531D02*
X0055539Y0175531D01*
X0055539Y0176530D02*
X0080550Y0176530D01*
X0081776Y0177528D02*
X0055539Y0177528D01*
X0055539Y0178527D02*
X0133248Y0178527D01*
X0132916Y0177528D02*
X0083724Y0177528D01*
X0084723Y0176530D02*
X0131950Y0176530D01*
X0131950Y0175531D02*
X0085050Y0175531D01*
X0085050Y0174533D02*
X0132074Y0174533D01*
X0132122Y0173534D02*
X0084287Y0173534D01*
X0080516Y0172536D02*
X0131950Y0172536D01*
X0131950Y0171537D02*
X0079517Y0171537D01*
X0078519Y0170539D02*
X0132868Y0170539D01*
X0135139Y0169540D02*
X0077520Y0169540D01*
X0076521Y0168542D02*
X0136138Y0168542D01*
X0137136Y0167543D02*
X0076508Y0167543D01*
X0076508Y0166545D02*
X0138135Y0166545D01*
X0141900Y0163549D02*
X0076704Y0163549D01*
X0076508Y0164548D02*
X0142724Y0164548D01*
X0144467Y0165546D02*
X0076508Y0165546D01*
X0077408Y0162551D02*
X0141900Y0162551D01*
X0142125Y0161552D02*
X0077408Y0161552D01*
X0077023Y0160553D02*
X0143123Y0160553D01*
X0146600Y0162551D02*
X0146718Y0162551D01*
X0148250Y0162551D02*
X0149250Y0162551D01*
X0149250Y0161552D02*
X0148250Y0161552D01*
X0148250Y0160553D02*
X0149250Y0160553D01*
X0149250Y0159555D02*
X0148250Y0159555D01*
X0148250Y0158556D02*
X0149250Y0158556D01*
X0148250Y0157558D02*
X0066806Y0157558D01*
X0066706Y0156559D02*
X0143674Y0156559D01*
X0144029Y0155561D02*
X0066040Y0155561D01*
X0066624Y0154562D02*
X0144638Y0154562D01*
X0150782Y0162551D02*
X0152250Y0162551D01*
X0152250Y0163549D02*
X0151151Y0163549D01*
X0132249Y0179525D02*
X0055539Y0179525D01*
X0055539Y0180524D02*
X0132200Y0180524D01*
X0132242Y0181522D02*
X0055539Y0181522D01*
X0055539Y0182521D02*
X0133100Y0182521D01*
X0133100Y0183519D02*
X0055539Y0183519D01*
X0055539Y0184518D02*
X0133100Y0184518D01*
X0133100Y0185516D02*
X0055539Y0185516D01*
X0055539Y0186515D02*
X0097733Y0186515D01*
X0097797Y0186450D02*
X0099703Y0186450D01*
X0101050Y0187797D01*
X0101050Y0189703D01*
X0100350Y0190403D01*
X0100350Y0191150D01*
X0122097Y0191150D01*
X0122797Y0190450D01*
X0124703Y0190450D01*
X0126050Y0191797D01*
X0126050Y0193703D01*
X0124703Y0195050D01*
X0122797Y0195050D01*
X0122097Y0194350D01*
X0100350Y0194350D01*
X0100350Y0201097D01*
X0101050Y0201797D01*
X0101050Y0203703D01*
X0099703Y0205050D01*
X0097797Y0205050D01*
X0096450Y0203703D01*
X0096450Y0201797D01*
X0097150Y0201097D01*
X0097150Y0190403D01*
X0096450Y0189703D01*
X0096450Y0187797D01*
X0097797Y0186450D01*
X0096734Y0187513D02*
X0055539Y0187513D01*
X0055539Y0188512D02*
X0096450Y0188512D01*
X0096450Y0189510D02*
X0055539Y0189510D01*
X0055539Y0190509D02*
X0097150Y0190509D01*
X0097150Y0191507D02*
X0055539Y0191507D01*
X0055539Y0192506D02*
X0097150Y0192506D01*
X0097150Y0193504D02*
X0055539Y0193504D01*
X0055539Y0194503D02*
X0097150Y0194503D01*
X0097150Y0195501D02*
X0055539Y0195501D01*
X0055539Y0196500D02*
X0097150Y0196500D01*
X0097150Y0197498D02*
X0055539Y0197498D01*
X0055539Y0198497D02*
X0097150Y0198497D01*
X0097150Y0199495D02*
X0055539Y0199495D01*
X0055539Y0200494D02*
X0097150Y0200494D01*
X0096755Y0201492D02*
X0055539Y0201492D01*
X0055539Y0202491D02*
X0096450Y0202491D01*
X0096450Y0203489D02*
X0055539Y0203489D01*
X0055539Y0204488D02*
X0097235Y0204488D01*
X0098750Y0202750D02*
X0098750Y0192750D01*
X0123750Y0192750D01*
X0125250Y0194503D02*
X0133100Y0194503D01*
X0133100Y0195501D02*
X0100350Y0195501D01*
X0100350Y0194503D02*
X0122250Y0194503D01*
X0126050Y0193504D02*
X0133100Y0193504D01*
X0133100Y0192506D02*
X0126050Y0192506D01*
X0125760Y0191507D02*
X0133100Y0191507D01*
X0133100Y0190509D02*
X0124762Y0190509D01*
X0122738Y0190509D02*
X0100350Y0190509D01*
X0101050Y0189510D02*
X0133100Y0189510D01*
X0133100Y0188512D02*
X0101050Y0188512D01*
X0100766Y0187513D02*
X0133100Y0187513D01*
X0133100Y0186515D02*
X0099767Y0186515D01*
X0098750Y0188750D02*
X0098750Y0192750D01*
X0100350Y0196500D02*
X0133100Y0196500D01*
X0133100Y0197498D02*
X0100350Y0197498D01*
X0100350Y0198497D02*
X0133100Y0198497D01*
X0133100Y0199495D02*
X0100350Y0199495D01*
X0100350Y0200494D02*
X0133100Y0200494D01*
X0133100Y0201492D02*
X0100745Y0201492D01*
X0101050Y0202491D02*
X0133100Y0202491D01*
X0133100Y0203489D02*
X0101050Y0203489D01*
X0100265Y0204488D02*
X0133508Y0204488D01*
X0134507Y0205487D02*
X0055539Y0205487D01*
X0055539Y0206485D02*
X0135505Y0206485D01*
X0136504Y0207484D02*
X0055539Y0207484D01*
X0055539Y0208482D02*
X0137502Y0208482D01*
X0144271Y0209481D02*
X0055539Y0209481D01*
X0055250Y0210479D02*
X0144691Y0210479D01*
X0144896Y0216250D02*
X0066833Y0216250D01*
X0065999Y0217500D01*
X0066937Y0218906D01*
X0066709Y0220043D01*
X0065744Y0220687D01*
X0064607Y0220459D01*
X0064317Y0220024D01*
X0064027Y0220459D01*
X0062889Y0220687D01*
X0062051Y0220128D01*
X0061389Y0220600D01*
X0060044Y0220600D01*
X0058949Y0219818D01*
X0058871Y0219589D01*
X0058052Y0220245D01*
X0057697Y0220600D01*
X0057608Y0220600D01*
X0057538Y0220655D01*
X0057039Y0220600D01*
X0056537Y0220600D01*
X0056474Y0220537D01*
X0056386Y0220527D01*
X0056072Y0220135D01*
X0055717Y0219780D01*
X0055717Y0219691D01*
X0055661Y0219622D01*
X0055717Y0219122D01*
X0055717Y0217200D01*
X0055592Y0217200D01*
X0055250Y0216858D01*
X0055250Y0217431D01*
X0055539Y0217720D01*
X0055539Y0271780D01*
X0055250Y0272069D01*
X0055250Y0273250D01*
X0145462Y0273250D01*
X0144681Y0272469D01*
X0144134Y0271150D01*
X0138170Y0271150D01*
X0137350Y0270330D01*
X0133100Y0266080D01*
X0133100Y0244380D01*
X0132200Y0243480D01*
X0132200Y0241574D01*
X0133547Y0240227D01*
X0134888Y0240227D01*
X0134570Y0239909D01*
X0133297Y0239909D01*
X0131950Y0238562D01*
X0131950Y0236656D01*
X0132597Y0236009D01*
X0131950Y0235362D01*
X0131950Y0233456D01*
X0133297Y0232109D01*
X0134570Y0232109D01*
X0137509Y0229170D01*
X0138329Y0228350D01*
X0144134Y0228350D01*
X0144652Y0227100D01*
X0143277Y0227100D01*
X0141900Y0225723D01*
X0141900Y0223777D01*
X0143277Y0222400D01*
X0144264Y0222400D01*
X0143931Y0221746D01*
X0143678Y0220968D01*
X0143564Y0220250D01*
X0148250Y0220250D01*
X0148250Y0224936D01*
X0147532Y0224822D01*
X0146754Y0224569D01*
X0146600Y0224491D01*
X0146600Y0225445D01*
X0147795Y0224950D01*
X0149705Y0224950D01*
X0151469Y0225681D01*
X0152250Y0226462D01*
X0152250Y0223604D01*
X0152138Y0223716D01*
X0151475Y0224197D01*
X0150746Y0224569D01*
X0149968Y0224822D01*
X0149250Y0224936D01*
X0149250Y0220250D01*
X0148250Y0220250D01*
X0148250Y0219250D01*
X0143564Y0219250D01*
X0143678Y0218532D01*
X0143931Y0217754D01*
X0144303Y0217025D01*
X0144784Y0216362D01*
X0144896Y0216250D01*
X0144705Y0216470D02*
X0066686Y0216470D01*
X0066020Y0217469D02*
X0144076Y0217469D01*
X0143699Y0218467D02*
X0066644Y0218467D01*
X0066825Y0219466D02*
X0148250Y0219466D01*
X0148250Y0220464D02*
X0149250Y0220464D01*
X0149250Y0221463D02*
X0148250Y0221463D01*
X0148250Y0222461D02*
X0149250Y0222461D01*
X0149250Y0223460D02*
X0148250Y0223460D01*
X0148250Y0224458D02*
X0149250Y0224458D01*
X0150964Y0224458D02*
X0152250Y0224458D01*
X0152250Y0225457D02*
X0150928Y0225457D01*
X0152243Y0226455D02*
X0152250Y0226455D01*
X0144506Y0227454D02*
X0076508Y0227454D01*
X0076508Y0228452D02*
X0138227Y0228452D01*
X0137228Y0229451D02*
X0076508Y0229451D01*
X0076508Y0230449D02*
X0136230Y0230449D01*
X0135231Y0231448D02*
X0077428Y0231448D01*
X0076508Y0230528D02*
X0081364Y0235384D01*
X0081797Y0234950D01*
X0083703Y0234950D01*
X0085050Y0236297D01*
X0085050Y0238203D01*
X0083703Y0239550D01*
X0081797Y0239550D01*
X0080897Y0238650D01*
X0080670Y0238650D01*
X0073708Y0231688D01*
X0073708Y0225744D01*
X0072808Y0224844D01*
X0072808Y0222939D01*
X0074156Y0221592D01*
X0076061Y0221592D01*
X0077408Y0222939D01*
X0077408Y0224844D01*
X0076508Y0225744D01*
X0076508Y0230528D01*
X0078426Y0232446D02*
X0132960Y0232446D01*
X0131962Y0233445D02*
X0079425Y0233445D01*
X0080423Y0234443D02*
X0131950Y0234443D01*
X0132030Y0235442D02*
X0084195Y0235442D01*
X0085050Y0236440D02*
X0132166Y0236440D01*
X0131950Y0237439D02*
X0085050Y0237439D01*
X0084815Y0238437D02*
X0131950Y0238437D01*
X0132824Y0239436D02*
X0083817Y0239436D01*
X0081683Y0239436D02*
X0055539Y0239436D01*
X0055539Y0240434D02*
X0133340Y0240434D01*
X0132342Y0241433D02*
X0055539Y0241433D01*
X0055539Y0242431D02*
X0132200Y0242431D01*
X0132200Y0243430D02*
X0055539Y0243430D01*
X0055539Y0244428D02*
X0133100Y0244428D01*
X0133100Y0245427D02*
X0055539Y0245427D01*
X0055539Y0246425D02*
X0133100Y0246425D01*
X0133100Y0247424D02*
X0055539Y0247424D01*
X0055539Y0248422D02*
X0133100Y0248422D01*
X0133100Y0249421D02*
X0100674Y0249421D01*
X0101050Y0249797D02*
X0101050Y0251703D01*
X0100350Y0252403D01*
X0100350Y0253150D01*
X0122097Y0253150D01*
X0122797Y0252450D01*
X0124703Y0252450D01*
X0126050Y0253797D01*
X0126050Y0255703D01*
X0124703Y0257050D01*
X0122797Y0257050D01*
X0122097Y0256350D01*
X0100350Y0256350D01*
X0100350Y0263097D01*
X0101050Y0263797D01*
X0101050Y0265703D01*
X0099703Y0267050D01*
X0097797Y0267050D01*
X0096450Y0265703D01*
X0096450Y0263797D01*
X0097150Y0263097D01*
X0097150Y0252403D01*
X0096450Y0251703D01*
X0096450Y0249797D01*
X0097797Y0248450D01*
X0099703Y0248450D01*
X0101050Y0249797D01*
X0101050Y0250420D02*
X0133100Y0250420D01*
X0133100Y0251418D02*
X0101050Y0251418D01*
X0100350Y0252417D02*
X0133100Y0252417D01*
X0133100Y0253415D02*
X0125668Y0253415D01*
X0126050Y0254414D02*
X0133100Y0254414D01*
X0133100Y0255412D02*
X0126050Y0255412D01*
X0125342Y0256411D02*
X0133100Y0256411D01*
X0133100Y0257409D02*
X0100350Y0257409D01*
X0100350Y0256411D02*
X0122158Y0256411D01*
X0123750Y0254750D02*
X0098750Y0254750D01*
X0098750Y0264750D01*
X0100357Y0266396D02*
X0133416Y0266396D01*
X0133100Y0265397D02*
X0101050Y0265397D01*
X0101050Y0264399D02*
X0133100Y0264399D01*
X0133100Y0263400D02*
X0100653Y0263400D01*
X0100350Y0262402D02*
X0133100Y0262402D01*
X0133100Y0261403D02*
X0100350Y0261403D01*
X0100350Y0260405D02*
X0133100Y0260405D01*
X0133100Y0259406D02*
X0100350Y0259406D01*
X0100350Y0258408D02*
X0133100Y0258408D01*
X0134414Y0267394D02*
X0055539Y0267394D01*
X0055539Y0266396D02*
X0097143Y0266396D01*
X0096450Y0265397D02*
X0055539Y0265397D01*
X0055539Y0264399D02*
X0096450Y0264399D01*
X0096847Y0263400D02*
X0055539Y0263400D01*
X0055539Y0262402D02*
X0097150Y0262402D01*
X0097150Y0261403D02*
X0055539Y0261403D01*
X0055539Y0260405D02*
X0097150Y0260405D01*
X0097150Y0259406D02*
X0055539Y0259406D01*
X0055539Y0258408D02*
X0097150Y0258408D01*
X0097150Y0257409D02*
X0055539Y0257409D01*
X0055539Y0256411D02*
X0097150Y0256411D01*
X0097150Y0255412D02*
X0055539Y0255412D01*
X0055539Y0254414D02*
X0097150Y0254414D01*
X0097150Y0253415D02*
X0055539Y0253415D01*
X0055539Y0252417D02*
X0097150Y0252417D01*
X0096450Y0251418D02*
X0055539Y0251418D01*
X0055539Y0250420D02*
X0096450Y0250420D01*
X0096826Y0249421D02*
X0055539Y0249421D01*
X0055539Y0238437D02*
X0080457Y0238437D01*
X0079459Y0237439D02*
X0055539Y0237439D01*
X0055539Y0236440D02*
X0078460Y0236440D01*
X0077462Y0235442D02*
X0055539Y0235442D01*
X0055539Y0234443D02*
X0076463Y0234443D01*
X0075465Y0233445D02*
X0055539Y0233445D01*
X0055539Y0232446D02*
X0074466Y0232446D01*
X0073708Y0231448D02*
X0055539Y0231448D01*
X0055539Y0230449D02*
X0073708Y0230449D01*
X0073708Y0229451D02*
X0055539Y0229451D01*
X0055539Y0228452D02*
X0073708Y0228452D01*
X0073708Y0227454D02*
X0055539Y0227454D01*
X0055539Y0226455D02*
X0073708Y0226455D01*
X0073421Y0225457D02*
X0055539Y0225457D01*
X0055539Y0224458D02*
X0072808Y0224458D01*
X0072808Y0223460D02*
X0055539Y0223460D01*
X0055539Y0222461D02*
X0073286Y0222461D01*
X0076930Y0222461D02*
X0143215Y0222461D01*
X0143839Y0221463D02*
X0055539Y0221463D01*
X0055539Y0220464D02*
X0056335Y0220464D01*
X0055679Y0219466D02*
X0055539Y0219466D01*
X0055539Y0218467D02*
X0055717Y0218467D01*
X0055717Y0217469D02*
X0055288Y0217469D01*
X0057832Y0220464D02*
X0059854Y0220464D01*
X0058949Y0219818D02*
X0058949Y0219818D01*
X0058949Y0219818D01*
X0061579Y0220464D02*
X0062556Y0220464D01*
X0064001Y0220464D02*
X0064632Y0220464D01*
X0066078Y0220464D02*
X0143598Y0220464D01*
X0142217Y0223460D02*
X0077408Y0223460D01*
X0077408Y0224458D02*
X0141900Y0224458D01*
X0141900Y0225457D02*
X0076796Y0225457D01*
X0076508Y0226455D02*
X0142632Y0226455D01*
X0182539Y0226455D02*
X0200708Y0226455D01*
X0200708Y0225744D02*
X0199808Y0224844D01*
X0199808Y0222939D01*
X0201156Y0221592D01*
X0203061Y0221592D01*
X0204408Y0222939D01*
X0204408Y0224844D01*
X0203508Y0225744D01*
X0203508Y0230528D01*
X0208364Y0235384D01*
X0208797Y0234950D01*
X0210703Y0234950D01*
X0212050Y0236297D01*
X0212050Y0238203D01*
X0210703Y0239550D01*
X0208797Y0239550D01*
X0207897Y0238650D01*
X0207670Y0238650D01*
X0200708Y0231688D01*
X0200708Y0225744D01*
X0200421Y0225457D02*
X0182539Y0225457D01*
X0182539Y0224458D02*
X0199808Y0224458D01*
X0199808Y0223460D02*
X0182539Y0223460D01*
X0182539Y0222461D02*
X0200286Y0222461D01*
X0203930Y0222461D02*
X0270215Y0222461D01*
X0270277Y0222400D02*
X0271264Y0222400D01*
X0270931Y0221746D01*
X0270678Y0220968D01*
X0270564Y0220250D01*
X0275250Y0220250D01*
X0275250Y0224936D01*
X0274532Y0224822D01*
X0273754Y0224569D01*
X0273600Y0224491D01*
X0273600Y0225445D01*
X0274795Y0224950D01*
X0276705Y0224950D01*
X0278469Y0225681D01*
X0279250Y0226462D01*
X0279250Y0223604D01*
X0279138Y0223716D01*
X0278475Y0224197D01*
X0277746Y0224569D01*
X0276968Y0224822D01*
X0276250Y0224936D01*
X0276250Y0220250D01*
X0275250Y0220250D01*
X0275250Y0219250D01*
X0270564Y0219250D01*
X0270678Y0218532D01*
X0270931Y0217754D01*
X0271303Y0217025D01*
X0271784Y0216362D01*
X0271896Y0216250D01*
X0193833Y0216250D01*
X0192999Y0217500D01*
X0193937Y0218906D01*
X0193709Y0220043D01*
X0192744Y0220687D01*
X0191607Y0220459D01*
X0191317Y0220024D01*
X0191027Y0220459D01*
X0189889Y0220687D01*
X0189051Y0220128D01*
X0188389Y0220600D01*
X0187044Y0220600D01*
X0185949Y0219818D01*
X0185871Y0219589D01*
X0185052Y0220245D01*
X0184697Y0220600D01*
X0184608Y0220600D01*
X0184538Y0220655D01*
X0184039Y0220600D01*
X0183537Y0220600D01*
X0183474Y0220537D01*
X0183386Y0220527D01*
X0183072Y0220135D01*
X0182717Y0219780D01*
X0182717Y0219691D01*
X0182661Y0219622D01*
X0182717Y0219122D01*
X0182717Y0217200D01*
X0182592Y0217200D01*
X0182250Y0216858D01*
X0182250Y0217431D01*
X0182539Y0217720D01*
X0182539Y0271780D01*
X0182250Y0272069D01*
X0182250Y0273250D01*
X0272462Y0273250D01*
X0271681Y0272469D01*
X0271134Y0271150D01*
X0265170Y0271150D01*
X0264350Y0270330D01*
X0260100Y0266080D01*
X0260100Y0244380D01*
X0259200Y0243480D01*
X0259200Y0241574D01*
X0260547Y0240227D01*
X0261888Y0240227D01*
X0261570Y0239909D01*
X0260297Y0239909D01*
X0258950Y0238562D01*
X0258950Y0236656D01*
X0259597Y0236009D01*
X0258950Y0235362D01*
X0258950Y0233456D01*
X0260297Y0232109D01*
X0261570Y0232109D01*
X0264509Y0229170D01*
X0265329Y0228350D01*
X0271134Y0228350D01*
X0271652Y0227100D01*
X0270277Y0227100D01*
X0268900Y0225723D01*
X0268900Y0223777D01*
X0270277Y0222400D01*
X0270839Y0221463D02*
X0182539Y0221463D01*
X0182539Y0220464D02*
X0183335Y0220464D01*
X0182679Y0219466D02*
X0182539Y0219466D01*
X0182539Y0218467D02*
X0182717Y0218467D01*
X0182717Y0217469D02*
X0182288Y0217469D01*
X0184832Y0220464D02*
X0186854Y0220464D01*
X0185949Y0219818D02*
X0185949Y0219818D01*
X0185949Y0219818D01*
X0188579Y0220464D02*
X0189556Y0220464D01*
X0191001Y0220464D02*
X0191632Y0220464D01*
X0193078Y0220464D02*
X0270598Y0220464D01*
X0270699Y0218467D02*
X0193644Y0218467D01*
X0193825Y0219466D02*
X0275250Y0219466D01*
X0275250Y0220464D02*
X0276250Y0220464D01*
X0276250Y0221463D02*
X0275250Y0221463D01*
X0275250Y0222461D02*
X0276250Y0222461D01*
X0276250Y0223460D02*
X0275250Y0223460D01*
X0275250Y0224458D02*
X0276250Y0224458D01*
X0277964Y0224458D02*
X0279250Y0224458D01*
X0279250Y0225457D02*
X0277928Y0225457D01*
X0279243Y0226455D02*
X0279250Y0226455D01*
X0271506Y0227454D02*
X0203508Y0227454D01*
X0203508Y0228452D02*
X0265227Y0228452D01*
X0264228Y0229451D02*
X0203508Y0229451D01*
X0203508Y0230449D02*
X0263230Y0230449D01*
X0262231Y0231448D02*
X0204428Y0231448D01*
X0205426Y0232446D02*
X0259960Y0232446D01*
X0258962Y0233445D02*
X0206425Y0233445D01*
X0207423Y0234443D02*
X0258950Y0234443D01*
X0259030Y0235442D02*
X0211195Y0235442D01*
X0212050Y0236440D02*
X0259166Y0236440D01*
X0258950Y0237439D02*
X0212050Y0237439D01*
X0211815Y0238437D02*
X0258950Y0238437D01*
X0259824Y0239436D02*
X0210817Y0239436D01*
X0208683Y0239436D02*
X0182539Y0239436D01*
X0182539Y0240434D02*
X0260340Y0240434D01*
X0259342Y0241433D02*
X0182539Y0241433D01*
X0182539Y0242431D02*
X0259200Y0242431D01*
X0259200Y0243430D02*
X0182539Y0243430D01*
X0182539Y0244428D02*
X0260100Y0244428D01*
X0260100Y0245427D02*
X0182539Y0245427D01*
X0182539Y0246425D02*
X0260100Y0246425D01*
X0260100Y0247424D02*
X0182539Y0247424D01*
X0182539Y0248422D02*
X0260100Y0248422D01*
X0260100Y0249421D02*
X0227674Y0249421D01*
X0228050Y0249797D02*
X0228050Y0251703D01*
X0227350Y0252403D01*
X0227350Y0253150D01*
X0249097Y0253150D01*
X0249797Y0252450D01*
X0251703Y0252450D01*
X0253050Y0253797D01*
X0253050Y0255703D01*
X0251703Y0257050D01*
X0249797Y0257050D01*
X0249097Y0256350D01*
X0227350Y0256350D01*
X0227350Y0263097D01*
X0228050Y0263797D01*
X0228050Y0265703D01*
X0226703Y0267050D01*
X0224797Y0267050D01*
X0223450Y0265703D01*
X0223450Y0263797D01*
X0224150Y0263097D01*
X0224150Y0252403D01*
X0223450Y0251703D01*
X0223450Y0249797D01*
X0224797Y0248450D01*
X0226703Y0248450D01*
X0228050Y0249797D01*
X0228050Y0250420D02*
X0260100Y0250420D01*
X0260100Y0251418D02*
X0228050Y0251418D01*
X0227350Y0252417D02*
X0260100Y0252417D01*
X0260100Y0253415D02*
X0252668Y0253415D01*
X0253050Y0254414D02*
X0260100Y0254414D01*
X0260100Y0255412D02*
X0253050Y0255412D01*
X0252342Y0256411D02*
X0260100Y0256411D01*
X0260100Y0257409D02*
X0227350Y0257409D01*
X0227350Y0256411D02*
X0249158Y0256411D01*
X0250750Y0254750D02*
X0225750Y0254750D01*
X0225750Y0264750D01*
X0227357Y0266396D02*
X0260416Y0266396D01*
X0260100Y0265397D02*
X0228050Y0265397D01*
X0228050Y0264399D02*
X0260100Y0264399D01*
X0260100Y0263400D02*
X0227653Y0263400D01*
X0227350Y0262402D02*
X0260100Y0262402D01*
X0260100Y0261403D02*
X0227350Y0261403D01*
X0227350Y0260405D02*
X0260100Y0260405D01*
X0260100Y0259406D02*
X0227350Y0259406D01*
X0227350Y0258408D02*
X0260100Y0258408D01*
X0261414Y0267394D02*
X0182539Y0267394D01*
X0182539Y0266396D02*
X0224143Y0266396D01*
X0223450Y0265397D02*
X0182539Y0265397D01*
X0182539Y0264399D02*
X0223450Y0264399D01*
X0223847Y0263400D02*
X0182539Y0263400D01*
X0182539Y0262402D02*
X0224150Y0262402D01*
X0224150Y0261403D02*
X0182539Y0261403D01*
X0182539Y0260405D02*
X0224150Y0260405D01*
X0224150Y0259406D02*
X0182539Y0259406D01*
X0182539Y0258408D02*
X0224150Y0258408D01*
X0224150Y0257409D02*
X0182539Y0257409D01*
X0182539Y0256411D02*
X0224150Y0256411D01*
X0224150Y0255412D02*
X0182539Y0255412D01*
X0182539Y0254414D02*
X0224150Y0254414D01*
X0224150Y0253415D02*
X0182539Y0253415D01*
X0182539Y0252417D02*
X0224150Y0252417D01*
X0223450Y0251418D02*
X0182539Y0251418D01*
X0182539Y0250420D02*
X0223450Y0250420D01*
X0223826Y0249421D02*
X0182539Y0249421D01*
X0182539Y0238437D02*
X0207457Y0238437D01*
X0206459Y0237439D02*
X0182539Y0237439D01*
X0182539Y0236440D02*
X0205460Y0236440D01*
X0204462Y0235442D02*
X0182539Y0235442D01*
X0182539Y0234443D02*
X0203463Y0234443D01*
X0202465Y0233445D02*
X0182539Y0233445D01*
X0182539Y0232446D02*
X0201466Y0232446D01*
X0200708Y0231448D02*
X0182539Y0231448D01*
X0182539Y0230449D02*
X0200708Y0230449D01*
X0200708Y0229451D02*
X0182539Y0229451D01*
X0182539Y0228452D02*
X0200708Y0228452D01*
X0200708Y0227454D02*
X0182539Y0227454D01*
X0193020Y0217469D02*
X0271076Y0217469D01*
X0271705Y0216470D02*
X0193686Y0216470D01*
X0182250Y0211250D02*
X0182250Y0210069D01*
X0182539Y0209780D01*
X0182539Y0155720D01*
X0182250Y0155431D01*
X0182250Y0154858D01*
X0182592Y0155200D01*
X0182717Y0155200D01*
X0182717Y0157122D01*
X0182661Y0157622D01*
X0182717Y0157691D01*
X0182717Y0157780D01*
X0183072Y0158135D01*
X0183386Y0158527D01*
X0183474Y0158537D01*
X0183537Y0158600D01*
X0184039Y0158600D01*
X0184538Y0158655D01*
X0184608Y0158600D01*
X0184697Y0158600D01*
X0185052Y0158245D01*
X0185871Y0157589D01*
X0185949Y0157818D01*
X0185949Y0157818D01*
X0185949Y0157818D01*
X0187044Y0158600D01*
X0188389Y0158600D01*
X0189051Y0158128D01*
X0189889Y0158687D01*
X0191027Y0158459D01*
X0191317Y0158024D01*
X0191607Y0158459D01*
X0192744Y0158687D01*
X0193709Y0158043D01*
X0193937Y0156906D01*
X0192999Y0155500D01*
X0193833Y0154250D01*
X0271896Y0154250D01*
X0271784Y0154362D01*
X0271303Y0155025D01*
X0270931Y0155754D01*
X0270678Y0156532D01*
X0270564Y0157250D01*
X0275250Y0157250D01*
X0275250Y0158250D01*
X0275250Y0162936D01*
X0274532Y0162822D01*
X0273754Y0162569D01*
X0273600Y0162491D01*
X0273600Y0163445D01*
X0274795Y0162950D01*
X0276705Y0162950D01*
X0278469Y0163681D01*
X0279250Y0164462D01*
X0279250Y0161604D01*
X0279138Y0161716D01*
X0278475Y0162197D01*
X0277746Y0162569D01*
X0276968Y0162822D01*
X0276250Y0162936D01*
X0276250Y0158250D01*
X0275250Y0158250D01*
X0270564Y0158250D01*
X0270678Y0158968D01*
X0270931Y0159746D01*
X0271264Y0160400D01*
X0270277Y0160400D01*
X0268900Y0161777D01*
X0268900Y0163723D01*
X0270277Y0165100D01*
X0271652Y0165100D01*
X0271134Y0166350D01*
X0265329Y0166350D01*
X0264509Y0167170D01*
X0261570Y0170109D01*
X0260297Y0170109D01*
X0258950Y0171456D01*
X0258950Y0173362D01*
X0259597Y0174009D01*
X0258950Y0174656D01*
X0258950Y0176562D01*
X0260297Y0177909D01*
X0261570Y0177909D01*
X0261888Y0178227D01*
X0260547Y0178227D01*
X0259200Y0179574D01*
X0259200Y0181480D01*
X0260100Y0182380D01*
X0260100Y0204080D01*
X0264350Y0208330D01*
X0265170Y0209150D01*
X0271134Y0209150D01*
X0271681Y0210469D01*
X0272462Y0211250D01*
X0182250Y0211250D01*
X0182250Y0210479D02*
X0271691Y0210479D01*
X0271271Y0209481D02*
X0182539Y0209481D01*
X0182539Y0208482D02*
X0264502Y0208482D01*
X0263504Y0207484D02*
X0182539Y0207484D01*
X0182539Y0206485D02*
X0262505Y0206485D01*
X0261507Y0205487D02*
X0182539Y0205487D01*
X0182539Y0204488D02*
X0224235Y0204488D01*
X0224797Y0205050D02*
X0223450Y0203703D01*
X0223450Y0201797D01*
X0224150Y0201097D01*
X0224150Y0190403D01*
X0223450Y0189703D01*
X0223450Y0187797D01*
X0224797Y0186450D01*
X0226703Y0186450D01*
X0228050Y0187797D01*
X0228050Y0189703D01*
X0227350Y0190403D01*
X0227350Y0191150D01*
X0249097Y0191150D01*
X0249797Y0190450D01*
X0251703Y0190450D01*
X0253050Y0191797D01*
X0253050Y0193703D01*
X0251703Y0195050D01*
X0249797Y0195050D01*
X0249097Y0194350D01*
X0227350Y0194350D01*
X0227350Y0201097D01*
X0228050Y0201797D01*
X0228050Y0203703D01*
X0226703Y0205050D01*
X0224797Y0205050D01*
X0223450Y0203489D02*
X0182539Y0203489D01*
X0182539Y0202491D02*
X0223450Y0202491D01*
X0223755Y0201492D02*
X0182539Y0201492D01*
X0182539Y0200494D02*
X0224150Y0200494D01*
X0224150Y0199495D02*
X0182539Y0199495D01*
X0182539Y0198497D02*
X0224150Y0198497D01*
X0224150Y0197498D02*
X0182539Y0197498D01*
X0182539Y0196500D02*
X0224150Y0196500D01*
X0224150Y0195501D02*
X0182539Y0195501D01*
X0182539Y0194503D02*
X0224150Y0194503D01*
X0224150Y0193504D02*
X0182539Y0193504D01*
X0182539Y0192506D02*
X0224150Y0192506D01*
X0224150Y0191507D02*
X0182539Y0191507D01*
X0182539Y0190509D02*
X0224150Y0190509D01*
X0223450Y0189510D02*
X0182539Y0189510D01*
X0182539Y0188512D02*
X0223450Y0188512D01*
X0223734Y0187513D02*
X0182539Y0187513D01*
X0182539Y0186515D02*
X0224733Y0186515D01*
X0226767Y0186515D02*
X0260100Y0186515D01*
X0260100Y0187513D02*
X0227766Y0187513D01*
X0228050Y0188512D02*
X0260100Y0188512D01*
X0260100Y0189510D02*
X0228050Y0189510D01*
X0227350Y0190509D02*
X0249738Y0190509D01*
X0251762Y0190509D02*
X0260100Y0190509D01*
X0260100Y0191507D02*
X0252760Y0191507D01*
X0253050Y0192506D02*
X0260100Y0192506D01*
X0260100Y0193504D02*
X0253050Y0193504D01*
X0252250Y0194503D02*
X0260100Y0194503D01*
X0260100Y0195501D02*
X0227350Y0195501D01*
X0227350Y0194503D02*
X0249250Y0194503D01*
X0250750Y0192750D02*
X0225750Y0192750D01*
X0225750Y0202750D01*
X0227265Y0204488D02*
X0260508Y0204488D01*
X0260100Y0203489D02*
X0228050Y0203489D01*
X0228050Y0202491D02*
X0260100Y0202491D01*
X0260100Y0201492D02*
X0227745Y0201492D01*
X0227350Y0200494D02*
X0260100Y0200494D01*
X0260100Y0199495D02*
X0227350Y0199495D01*
X0227350Y0198497D02*
X0260100Y0198497D01*
X0260100Y0197498D02*
X0227350Y0197498D01*
X0227350Y0196500D02*
X0260100Y0196500D01*
X0260100Y0185516D02*
X0182539Y0185516D01*
X0182539Y0184518D02*
X0260100Y0184518D01*
X0260100Y0183519D02*
X0182539Y0183519D01*
X0182539Y0182521D02*
X0260100Y0182521D01*
X0259242Y0181522D02*
X0182539Y0181522D01*
X0182539Y0180524D02*
X0259200Y0180524D01*
X0259249Y0179525D02*
X0182539Y0179525D01*
X0182539Y0178527D02*
X0260248Y0178527D01*
X0259916Y0177528D02*
X0210724Y0177528D01*
X0210703Y0177550D02*
X0208797Y0177550D01*
X0207897Y0176650D01*
X0207670Y0176650D01*
X0200708Y0169688D01*
X0200708Y0163744D01*
X0199808Y0162844D01*
X0199808Y0160939D01*
X0201156Y0159592D01*
X0203061Y0159592D01*
X0204408Y0160939D01*
X0204408Y0162844D01*
X0203508Y0163744D01*
X0203508Y0168528D01*
X0208364Y0173384D01*
X0208797Y0172950D01*
X0210703Y0172950D01*
X0212050Y0174297D01*
X0212050Y0176203D01*
X0210703Y0177550D01*
X0211723Y0176530D02*
X0258950Y0176530D01*
X0258950Y0175531D02*
X0212050Y0175531D01*
X0212050Y0174533D02*
X0259074Y0174533D01*
X0259122Y0173534D02*
X0211287Y0173534D01*
X0207516Y0172536D02*
X0258950Y0172536D01*
X0258950Y0171537D02*
X0206517Y0171537D01*
X0205519Y0170539D02*
X0259868Y0170539D01*
X0262139Y0169540D02*
X0204520Y0169540D01*
X0203521Y0168542D02*
X0263138Y0168542D01*
X0264136Y0167543D02*
X0203508Y0167543D01*
X0203508Y0166545D02*
X0265135Y0166545D01*
X0268900Y0163549D02*
X0203704Y0163549D01*
X0203508Y0164548D02*
X0269724Y0164548D01*
X0271467Y0165546D02*
X0203508Y0165546D01*
X0200708Y0165546D02*
X0182539Y0165546D01*
X0182539Y0164548D02*
X0200708Y0164548D01*
X0200513Y0163549D02*
X0182539Y0163549D01*
X0182539Y0162551D02*
X0199808Y0162551D01*
X0199808Y0161552D02*
X0182539Y0161552D01*
X0182539Y0160553D02*
X0200194Y0160553D01*
X0204023Y0160553D02*
X0270123Y0160553D01*
X0270869Y0159555D02*
X0182539Y0159555D01*
X0182539Y0158556D02*
X0183493Y0158556D01*
X0184740Y0158556D02*
X0186983Y0158556D01*
X0188450Y0158556D02*
X0189694Y0158556D01*
X0190540Y0158556D02*
X0192094Y0158556D01*
X0192939Y0158556D02*
X0270613Y0158556D01*
X0270674Y0156559D02*
X0193706Y0156559D01*
X0193806Y0157558D02*
X0275250Y0157558D01*
X0275250Y0158556D02*
X0276250Y0158556D01*
X0276250Y0159555D02*
X0275250Y0159555D01*
X0275250Y0160553D02*
X0276250Y0160553D01*
X0276250Y0161552D02*
X0275250Y0161552D01*
X0275250Y0162551D02*
X0276250Y0162551D01*
X0277782Y0162551D02*
X0279250Y0162551D01*
X0279250Y0163549D02*
X0278151Y0163549D01*
X0273718Y0162551D02*
X0273600Y0162551D01*
X0269125Y0161552D02*
X0204408Y0161552D01*
X0204408Y0162551D02*
X0268900Y0162551D01*
X0271029Y0155561D02*
X0193040Y0155561D01*
X0193624Y0154562D02*
X0271638Y0154562D01*
X0272462Y0149250D02*
X0271681Y0148469D01*
X0271134Y0147150D01*
X0265170Y0147150D01*
X0264350Y0146330D01*
X0260100Y0142080D01*
X0260100Y0120380D01*
X0259200Y0119480D01*
X0259200Y0117574D01*
X0260547Y0116227D01*
X0261888Y0116227D01*
X0261570Y0115909D01*
X0260297Y0115909D01*
X0258950Y0114562D01*
X0258950Y0112656D01*
X0259597Y0112009D01*
X0258950Y0111362D01*
X0258950Y0109456D01*
X0260297Y0108109D01*
X0261570Y0108109D01*
X0264509Y0105170D01*
X0265329Y0104350D01*
X0271134Y0104350D01*
X0271652Y0103100D01*
X0270277Y0103100D01*
X0268900Y0101723D01*
X0268900Y0099777D01*
X0270277Y0098400D01*
X0271264Y0098400D01*
X0270931Y0097746D01*
X0270678Y0096968D01*
X0270564Y0096250D01*
X0275250Y0096250D01*
X0275250Y0100936D01*
X0274532Y0100822D01*
X0273754Y0100569D01*
X0273600Y0100491D01*
X0273600Y0101445D01*
X0274795Y0100950D01*
X0276705Y0100950D01*
X0278469Y0101681D01*
X0279250Y0102462D01*
X0279250Y0099604D01*
X0279138Y0099716D01*
X0278475Y0100197D01*
X0277746Y0100569D01*
X0276968Y0100822D01*
X0276250Y0100936D01*
X0276250Y0096250D01*
X0275250Y0096250D01*
X0275250Y0095250D01*
X0270564Y0095250D01*
X0270678Y0094532D01*
X0270931Y0093754D01*
X0271303Y0093025D01*
X0271784Y0092362D01*
X0271896Y0092250D01*
X0193833Y0092250D01*
X0192999Y0093500D01*
X0193937Y0094906D01*
X0193709Y0096043D01*
X0192744Y0096687D01*
X0191607Y0096459D01*
X0191317Y0096024D01*
X0191027Y0096459D01*
X0189889Y0096687D01*
X0189051Y0096128D01*
X0188389Y0096600D01*
X0187044Y0096600D01*
X0185949Y0095818D01*
X0185871Y0095589D01*
X0185052Y0096245D01*
X0184697Y0096600D01*
X0184608Y0096600D01*
X0184538Y0096655D01*
X0184039Y0096600D01*
X0183537Y0096600D01*
X0183474Y0096537D01*
X0183386Y0096527D01*
X0183072Y0096135D01*
X0182717Y0095780D01*
X0182717Y0095691D01*
X0182661Y0095622D01*
X0182717Y0095122D01*
X0182717Y0093200D01*
X0182592Y0093200D01*
X0182250Y0092858D01*
X0182250Y0093431D01*
X0182539Y0093720D01*
X0182539Y0147780D01*
X0182250Y0148069D01*
X0182250Y0149250D01*
X0272462Y0149250D01*
X0271783Y0148571D02*
X0182250Y0148571D01*
X0182539Y0147573D02*
X0271310Y0147573D01*
X0264594Y0146574D02*
X0182539Y0146574D01*
X0182539Y0145576D02*
X0263596Y0145576D01*
X0262597Y0144577D02*
X0182539Y0144577D01*
X0182539Y0143579D02*
X0261599Y0143579D01*
X0260600Y0142580D02*
X0227172Y0142580D01*
X0226703Y0143050D02*
X0224797Y0143050D01*
X0223450Y0141703D01*
X0223450Y0139797D01*
X0224150Y0139097D01*
X0224150Y0128403D01*
X0223450Y0127703D01*
X0223450Y0125797D01*
X0224797Y0124450D01*
X0226703Y0124450D01*
X0228050Y0125797D01*
X0228050Y0127703D01*
X0227350Y0128403D01*
X0227350Y0129150D01*
X0249097Y0129150D01*
X0249797Y0128450D01*
X0251703Y0128450D01*
X0253050Y0129797D01*
X0253050Y0131703D01*
X0251703Y0133050D01*
X0249797Y0133050D01*
X0249097Y0132350D01*
X0227350Y0132350D01*
X0227350Y0139097D01*
X0228050Y0139797D01*
X0228050Y0141703D01*
X0226703Y0143050D01*
X0228050Y0141582D02*
X0260100Y0141582D01*
X0260100Y0140583D02*
X0228050Y0140583D01*
X0227837Y0139585D02*
X0260100Y0139585D01*
X0260100Y0138586D02*
X0227350Y0138586D01*
X0227350Y0137588D02*
X0260100Y0137588D01*
X0260100Y0136589D02*
X0227350Y0136589D01*
X0227350Y0135591D02*
X0260100Y0135591D01*
X0260100Y0134592D02*
X0227350Y0134592D01*
X0227350Y0133594D02*
X0260100Y0133594D01*
X0260100Y0132595D02*
X0252157Y0132595D01*
X0253050Y0131597D02*
X0260100Y0131597D01*
X0260100Y0130598D02*
X0253050Y0130598D01*
X0252852Y0129600D02*
X0260100Y0129600D01*
X0260100Y0128601D02*
X0251854Y0128601D01*
X0249646Y0128601D02*
X0227350Y0128601D01*
X0228050Y0127603D02*
X0260100Y0127603D01*
X0260100Y0126604D02*
X0228050Y0126604D01*
X0227858Y0125606D02*
X0260100Y0125606D01*
X0260100Y0124607D02*
X0226860Y0124607D01*
X0224640Y0124607D02*
X0182539Y0124607D01*
X0182539Y0123609D02*
X0260100Y0123609D01*
X0260100Y0122610D02*
X0182539Y0122610D01*
X0182539Y0121612D02*
X0260100Y0121612D01*
X0260100Y0120613D02*
X0182539Y0120613D01*
X0182539Y0119615D02*
X0259335Y0119615D01*
X0259200Y0118616D02*
X0182539Y0118616D01*
X0182539Y0117618D02*
X0259200Y0117618D01*
X0260155Y0116619D02*
X0182539Y0116619D01*
X0182539Y0115620D02*
X0260009Y0115620D01*
X0259010Y0114622D02*
X0211631Y0114622D01*
X0212050Y0114203D02*
X0210703Y0115550D01*
X0208797Y0115550D01*
X0207897Y0114650D01*
X0207670Y0114650D01*
X0200708Y0107688D01*
X0200708Y0101744D01*
X0199808Y0100844D01*
X0199808Y0098939D01*
X0201156Y0097592D01*
X0203061Y0097592D01*
X0204408Y0098939D01*
X0204408Y0100844D01*
X0203508Y0101744D01*
X0203508Y0106528D01*
X0208364Y0111384D01*
X0208797Y0110950D01*
X0210703Y0110950D01*
X0212050Y0112297D01*
X0212050Y0114203D01*
X0212050Y0113623D02*
X0258950Y0113623D01*
X0258981Y0112625D02*
X0212050Y0112625D01*
X0211379Y0111626D02*
X0259215Y0111626D01*
X0258950Y0110628D02*
X0207608Y0110628D01*
X0206609Y0109629D02*
X0258950Y0109629D01*
X0259775Y0108631D02*
X0205611Y0108631D01*
X0204612Y0107632D02*
X0262047Y0107632D01*
X0263045Y0106634D02*
X0203614Y0106634D01*
X0203508Y0105635D02*
X0264044Y0105635D01*
X0265042Y0104637D02*
X0203508Y0104637D01*
X0203508Y0103638D02*
X0271429Y0103638D01*
X0269816Y0102640D02*
X0203508Y0102640D01*
X0203611Y0101641D02*
X0268900Y0101641D01*
X0268900Y0100643D02*
X0204408Y0100643D01*
X0204408Y0099644D02*
X0269032Y0099644D01*
X0270031Y0098646D02*
X0204115Y0098646D01*
X0203116Y0097647D02*
X0270899Y0097647D01*
X0270628Y0096649D02*
X0192801Y0096649D01*
X0192555Y0096649D02*
X0190078Y0096649D01*
X0189833Y0096649D02*
X0184547Y0096649D01*
X0184478Y0096649D02*
X0182539Y0096649D01*
X0182539Y0097647D02*
X0201100Y0097647D01*
X0200102Y0098646D02*
X0182539Y0098646D01*
X0182539Y0099644D02*
X0199808Y0099644D01*
X0199808Y0100643D02*
X0182539Y0100643D01*
X0182539Y0101641D02*
X0200605Y0101641D01*
X0200708Y0102640D02*
X0182539Y0102640D01*
X0182539Y0103638D02*
X0200708Y0103638D01*
X0200708Y0104637D02*
X0182539Y0104637D01*
X0182539Y0105635D02*
X0200708Y0105635D01*
X0200708Y0106634D02*
X0182539Y0106634D01*
X0182539Y0107632D02*
X0200708Y0107632D01*
X0201651Y0108631D02*
X0182539Y0108631D01*
X0182539Y0109629D02*
X0202650Y0109629D01*
X0203648Y0110628D02*
X0182539Y0110628D01*
X0182539Y0111626D02*
X0204647Y0111626D01*
X0205645Y0112625D02*
X0182539Y0112625D01*
X0182539Y0113623D02*
X0206644Y0113623D01*
X0207642Y0114622D02*
X0182539Y0114622D01*
X0182539Y0125606D02*
X0223642Y0125606D01*
X0223450Y0126604D02*
X0182539Y0126604D01*
X0182539Y0127603D02*
X0223450Y0127603D01*
X0224150Y0128601D02*
X0182539Y0128601D01*
X0182539Y0129600D02*
X0224150Y0129600D01*
X0224150Y0130598D02*
X0182539Y0130598D01*
X0182539Y0131597D02*
X0224150Y0131597D01*
X0224150Y0132595D02*
X0182539Y0132595D01*
X0182539Y0133594D02*
X0224150Y0133594D01*
X0224150Y0134592D02*
X0182539Y0134592D01*
X0182539Y0135591D02*
X0224150Y0135591D01*
X0224150Y0136589D02*
X0182539Y0136589D01*
X0182539Y0137588D02*
X0224150Y0137588D01*
X0224150Y0138586D02*
X0182539Y0138586D01*
X0182539Y0139585D02*
X0223663Y0139585D01*
X0223450Y0140583D02*
X0182539Y0140583D01*
X0182539Y0141582D02*
X0223450Y0141582D01*
X0224328Y0142580D02*
X0182539Y0142580D01*
X0182380Y0155561D02*
X0182717Y0155561D01*
X0182717Y0156559D02*
X0182539Y0156559D01*
X0182539Y0157558D02*
X0182668Y0157558D01*
X0182539Y0166545D02*
X0200708Y0166545D01*
X0200708Y0167543D02*
X0182539Y0167543D01*
X0182539Y0168542D02*
X0200708Y0168542D01*
X0200708Y0169540D02*
X0182539Y0169540D01*
X0182539Y0170539D02*
X0201559Y0170539D01*
X0202557Y0171537D02*
X0182539Y0171537D01*
X0182539Y0172536D02*
X0203556Y0172536D01*
X0204554Y0173534D02*
X0182539Y0173534D01*
X0182539Y0174533D02*
X0205553Y0174533D01*
X0206551Y0175531D02*
X0182539Y0175531D01*
X0182539Y0176530D02*
X0207550Y0176530D01*
X0208776Y0177528D02*
X0182539Y0177528D01*
X0225750Y0188750D02*
X0225750Y0192750D01*
X0204408Y0223460D02*
X0269217Y0223460D01*
X0268900Y0224458D02*
X0204408Y0224458D01*
X0203796Y0225457D02*
X0268900Y0225457D01*
X0269632Y0226455D02*
X0203508Y0226455D01*
X0225750Y0250750D02*
X0225750Y0254750D01*
X0203061Y0283592D02*
X0204408Y0284939D01*
X0204408Y0286844D01*
X0203508Y0287744D01*
X0203508Y0292528D01*
X0208364Y0297384D01*
X0208797Y0296950D01*
X0210703Y0296950D01*
X0212050Y0298297D01*
X0212050Y0300203D01*
X0210703Y0301550D01*
X0208797Y0301550D01*
X0207897Y0300650D01*
X0207670Y0300650D01*
X0200708Y0293688D01*
X0200708Y0287744D01*
X0199808Y0286844D01*
X0199808Y0284939D01*
X0201156Y0283592D01*
X0203061Y0283592D01*
X0203838Y0284369D02*
X0271248Y0284369D01*
X0271264Y0284400D02*
X0270931Y0283746D01*
X0270678Y0282968D01*
X0270564Y0282250D01*
X0275250Y0282250D01*
X0275250Y0286936D01*
X0274532Y0286822D01*
X0273754Y0286569D01*
X0273600Y0286491D01*
X0273600Y0287445D01*
X0274795Y0286950D01*
X0276705Y0286950D01*
X0278469Y0287681D01*
X0279250Y0288462D01*
X0279250Y0285604D01*
X0279138Y0285716D01*
X0278475Y0286197D01*
X0277746Y0286569D01*
X0276968Y0286822D01*
X0276250Y0286936D01*
X0276250Y0282250D01*
X0275250Y0282250D01*
X0275250Y0281250D01*
X0270564Y0281250D01*
X0270678Y0280532D01*
X0270931Y0279754D01*
X0271303Y0279025D01*
X0271784Y0278362D01*
X0271896Y0278250D01*
X0193833Y0278250D01*
X0192999Y0279500D01*
X0193937Y0280906D01*
X0193709Y0282043D01*
X0192744Y0282687D01*
X0191607Y0282459D01*
X0191317Y0282024D01*
X0191027Y0282459D01*
X0189889Y0282687D01*
X0189051Y0282128D01*
X0188389Y0282600D01*
X0187044Y0282600D01*
X0185949Y0281818D01*
X0185871Y0281589D01*
X0185052Y0282245D01*
X0184697Y0282600D01*
X0184608Y0282600D01*
X0184538Y0282655D01*
X0184039Y0282600D01*
X0183537Y0282600D01*
X0183474Y0282537D01*
X0183386Y0282527D01*
X0183072Y0282135D01*
X0182717Y0281780D01*
X0182717Y0281691D01*
X0182661Y0281622D01*
X0182717Y0281122D01*
X0182717Y0279200D01*
X0182592Y0279200D01*
X0182250Y0278858D01*
X0182250Y0279431D01*
X0182539Y0279720D01*
X0182539Y0333780D01*
X0182250Y0334069D01*
X0182250Y0335250D01*
X0272462Y0335250D01*
X0271681Y0334469D01*
X0271134Y0333150D01*
X0265170Y0333150D01*
X0264350Y0332330D01*
X0260100Y0328080D01*
X0260100Y0306380D01*
X0259200Y0305480D01*
X0259200Y0303574D01*
X0260547Y0302227D01*
X0261888Y0302227D01*
X0261570Y0301909D01*
X0260297Y0301909D01*
X0258950Y0300562D01*
X0258950Y0298656D01*
X0259597Y0298009D01*
X0258950Y0297362D01*
X0258950Y0295456D01*
X0260297Y0294109D01*
X0261570Y0294109D01*
X0264509Y0291170D01*
X0265329Y0290350D01*
X0271134Y0290350D01*
X0271652Y0289100D01*
X0270277Y0289100D01*
X0268900Y0287723D01*
X0268900Y0285777D01*
X0270277Y0284400D01*
X0271264Y0284400D01*
X0270809Y0283370D02*
X0182539Y0283370D01*
X0182539Y0282372D02*
X0183261Y0282372D01*
X0182689Y0281373D02*
X0182539Y0281373D01*
X0182539Y0280375D02*
X0182717Y0280375D01*
X0182717Y0279376D02*
X0182250Y0279376D01*
X0184925Y0282372D02*
X0186725Y0282372D01*
X0185949Y0281818D02*
X0185949Y0281818D01*
X0185949Y0281818D01*
X0188709Y0282372D02*
X0189417Y0282372D01*
X0191085Y0282372D02*
X0191549Y0282372D01*
X0193216Y0282372D02*
X0270584Y0282372D01*
X0270729Y0280375D02*
X0193582Y0280375D01*
X0193843Y0281373D02*
X0275250Y0281373D01*
X0275250Y0282372D02*
X0276250Y0282372D01*
X0276250Y0283370D02*
X0275250Y0283370D01*
X0275250Y0284369D02*
X0276250Y0284369D01*
X0276250Y0285367D02*
X0275250Y0285367D01*
X0275250Y0286366D02*
X0276250Y0286366D01*
X0277705Y0287364D02*
X0279250Y0287364D01*
X0279250Y0286366D02*
X0278145Y0286366D01*
X0279151Y0288363D02*
X0279250Y0288363D01*
X0273795Y0287364D02*
X0273600Y0287364D01*
X0271544Y0289361D02*
X0203508Y0289361D01*
X0203508Y0288363D02*
X0269540Y0288363D01*
X0268900Y0287364D02*
X0203888Y0287364D01*
X0204408Y0286366D02*
X0268900Y0286366D01*
X0269309Y0285367D02*
X0204408Y0285367D01*
X0200378Y0284369D02*
X0182539Y0284369D01*
X0182539Y0285367D02*
X0199808Y0285367D01*
X0199808Y0286366D02*
X0182539Y0286366D01*
X0182539Y0287364D02*
X0200328Y0287364D01*
X0200708Y0288363D02*
X0182539Y0288363D01*
X0182539Y0289361D02*
X0200708Y0289361D01*
X0200708Y0290360D02*
X0182539Y0290360D01*
X0182539Y0291358D02*
X0200708Y0291358D01*
X0200708Y0292357D02*
X0182539Y0292357D01*
X0182539Y0293355D02*
X0200708Y0293355D01*
X0201374Y0294354D02*
X0182539Y0294354D01*
X0182539Y0295353D02*
X0202373Y0295353D01*
X0203371Y0296351D02*
X0182539Y0296351D01*
X0182539Y0297350D02*
X0204370Y0297350D01*
X0205368Y0298348D02*
X0182539Y0298348D01*
X0182539Y0299347D02*
X0206367Y0299347D01*
X0207365Y0300345D02*
X0182539Y0300345D01*
X0182539Y0301344D02*
X0208591Y0301344D01*
X0210909Y0301344D02*
X0259732Y0301344D01*
X0260432Y0302342D02*
X0182539Y0302342D01*
X0182539Y0303341D02*
X0259434Y0303341D01*
X0259200Y0304339D02*
X0182539Y0304339D01*
X0182539Y0305338D02*
X0259200Y0305338D01*
X0260056Y0306336D02*
X0182539Y0306336D01*
X0182539Y0307335D02*
X0260100Y0307335D01*
X0260100Y0308333D02*
X0182539Y0308333D01*
X0182539Y0309332D02*
X0260100Y0309332D01*
X0260100Y0310330D02*
X0182539Y0310330D01*
X0182539Y0311329D02*
X0223919Y0311329D01*
X0223450Y0311797D02*
X0224797Y0310450D01*
X0226703Y0310450D01*
X0228050Y0311797D01*
X0228050Y0313703D01*
X0227350Y0314403D01*
X0227350Y0315150D01*
X0249097Y0315150D01*
X0249797Y0314450D01*
X0251703Y0314450D01*
X0253050Y0315797D01*
X0253050Y0317703D01*
X0251703Y0319050D01*
X0249797Y0319050D01*
X0249097Y0318350D01*
X0227350Y0318350D01*
X0227350Y0325097D01*
X0228050Y0325797D01*
X0228050Y0327703D01*
X0226703Y0329050D01*
X0224797Y0329050D01*
X0223450Y0327703D01*
X0223450Y0325797D01*
X0224150Y0325097D01*
X0224150Y0314403D01*
X0223450Y0313703D01*
X0223450Y0311797D01*
X0223450Y0312327D02*
X0182539Y0312327D01*
X0182539Y0313326D02*
X0223450Y0313326D01*
X0224072Y0314324D02*
X0182539Y0314324D01*
X0182539Y0315323D02*
X0224150Y0315323D01*
X0224150Y0316321D02*
X0182539Y0316321D01*
X0182539Y0317320D02*
X0224150Y0317320D01*
X0224150Y0318318D02*
X0182539Y0318318D01*
X0182539Y0319317D02*
X0224150Y0319317D01*
X0224150Y0320315D02*
X0182539Y0320315D01*
X0182539Y0321314D02*
X0224150Y0321314D01*
X0224150Y0322312D02*
X0182539Y0322312D01*
X0182539Y0323311D02*
X0224150Y0323311D01*
X0224150Y0324309D02*
X0182539Y0324309D01*
X0182539Y0325308D02*
X0223939Y0325308D01*
X0223450Y0326306D02*
X0182539Y0326306D01*
X0182539Y0327305D02*
X0223450Y0327305D01*
X0224051Y0328303D02*
X0182539Y0328303D01*
X0182539Y0329302D02*
X0261322Y0329302D01*
X0262321Y0330300D02*
X0182539Y0330300D01*
X0182539Y0331299D02*
X0263319Y0331299D01*
X0264318Y0332297D02*
X0182539Y0332297D01*
X0182539Y0333296D02*
X0271195Y0333296D01*
X0271608Y0334294D02*
X0182250Y0334294D01*
X0145462Y0335250D02*
X0144681Y0334469D01*
X0144134Y0333150D01*
X0138170Y0333150D01*
X0137350Y0332330D01*
X0137350Y0332330D01*
X0133920Y0328900D01*
X0133100Y0328080D01*
X0133100Y0306380D01*
X0132200Y0305480D01*
X0132200Y0303574D01*
X0133547Y0302227D01*
X0134888Y0302227D01*
X0134570Y0301909D01*
X0133297Y0301909D01*
X0131950Y0300562D01*
X0131950Y0298656D01*
X0132597Y0298009D01*
X0131950Y0297362D01*
X0131950Y0295456D01*
X0133297Y0294109D01*
X0134570Y0294109D01*
X0137509Y0291170D01*
X0138329Y0290350D01*
X0144134Y0290350D01*
X0144652Y0289100D01*
X0143277Y0289100D01*
X0141900Y0287723D01*
X0141900Y0285777D01*
X0143277Y0284400D01*
X0144264Y0284400D01*
X0143931Y0283746D01*
X0143678Y0282968D01*
X0143564Y0282250D01*
X0148250Y0282250D01*
X0148250Y0286936D01*
X0147532Y0286822D01*
X0146754Y0286569D01*
X0146600Y0286491D01*
X0146600Y0287445D01*
X0147795Y0286950D01*
X0149705Y0286950D01*
X0151469Y0287681D01*
X0152250Y0288462D01*
X0152250Y0285604D01*
X0152138Y0285716D01*
X0151475Y0286197D01*
X0150746Y0286569D01*
X0149968Y0286822D01*
X0149250Y0286936D01*
X0149250Y0282250D01*
X0148250Y0282250D01*
X0148250Y0281250D01*
X0143564Y0281250D01*
X0143678Y0280532D01*
X0143931Y0279754D01*
X0144303Y0279025D01*
X0144784Y0278362D01*
X0144896Y0278250D01*
X0066833Y0278250D01*
X0065999Y0279500D01*
X0066937Y0280906D01*
X0066709Y0282043D01*
X0065744Y0282687D01*
X0064607Y0282459D01*
X0064317Y0282024D01*
X0064027Y0282459D01*
X0062889Y0282687D01*
X0062051Y0282128D01*
X0061389Y0282600D01*
X0060044Y0282600D01*
X0058949Y0281818D01*
X0058871Y0281589D01*
X0058052Y0282245D01*
X0057697Y0282600D01*
X0057608Y0282600D01*
X0057538Y0282655D01*
X0057039Y0282600D01*
X0056537Y0282600D01*
X0056474Y0282537D01*
X0056386Y0282527D01*
X0056072Y0282135D01*
X0055717Y0281780D01*
X0055717Y0281691D01*
X0055661Y0281622D01*
X0055717Y0281122D01*
X0055717Y0279200D01*
X0055592Y0279200D01*
X0055250Y0278858D01*
X0055250Y0279431D01*
X0055539Y0279720D01*
X0055539Y0333780D01*
X0055250Y0334069D01*
X0055250Y0335250D01*
X0145462Y0335250D01*
X0144608Y0334294D02*
X0055250Y0334294D01*
X0055539Y0333296D02*
X0144195Y0333296D01*
X0137318Y0332297D02*
X0055539Y0332297D01*
X0055539Y0331299D02*
X0136319Y0331299D01*
X0135321Y0330300D02*
X0055539Y0330300D01*
X0055539Y0329302D02*
X0134322Y0329302D01*
X0133920Y0328900D02*
X0133920Y0328900D01*
X0133323Y0328303D02*
X0100449Y0328303D01*
X0101050Y0327703D02*
X0099703Y0329050D01*
X0097797Y0329050D01*
X0096450Y0327703D01*
X0096450Y0325797D01*
X0097150Y0325097D01*
X0097150Y0314403D01*
X0096450Y0313703D01*
X0096450Y0311797D01*
X0097797Y0310450D01*
X0099703Y0310450D01*
X0101050Y0311797D01*
X0101050Y0313703D01*
X0100350Y0314403D01*
X0100350Y0315150D01*
X0122097Y0315150D01*
X0122797Y0314450D01*
X0124703Y0314450D01*
X0126050Y0315797D01*
X0126050Y0317703D01*
X0124703Y0319050D01*
X0122797Y0319050D01*
X0122097Y0318350D01*
X0100350Y0318350D01*
X0100350Y0325097D01*
X0101050Y0325797D01*
X0101050Y0327703D01*
X0101050Y0327305D02*
X0133100Y0327305D01*
X0133100Y0326306D02*
X0101050Y0326306D01*
X0100561Y0325308D02*
X0133100Y0325308D01*
X0133100Y0324309D02*
X0100350Y0324309D01*
X0100350Y0323311D02*
X0133100Y0323311D01*
X0133100Y0322312D02*
X0100350Y0322312D01*
X0100350Y0321314D02*
X0133100Y0321314D01*
X0133100Y0320315D02*
X0100350Y0320315D01*
X0100350Y0319317D02*
X0133100Y0319317D01*
X0133100Y0318318D02*
X0125434Y0318318D01*
X0126050Y0317320D02*
X0133100Y0317320D01*
X0133100Y0316321D02*
X0126050Y0316321D01*
X0125575Y0315323D02*
X0133100Y0315323D01*
X0133100Y0314324D02*
X0100428Y0314324D01*
X0101050Y0313326D02*
X0133100Y0313326D01*
X0133100Y0312327D02*
X0101050Y0312327D01*
X0100581Y0311329D02*
X0133100Y0311329D01*
X0133100Y0310330D02*
X0055539Y0310330D01*
X0055539Y0309332D02*
X0133100Y0309332D01*
X0133100Y0308333D02*
X0055539Y0308333D01*
X0055539Y0307335D02*
X0133100Y0307335D01*
X0133056Y0306336D02*
X0055539Y0306336D01*
X0055539Y0305338D02*
X0132200Y0305338D01*
X0132200Y0304339D02*
X0055539Y0304339D01*
X0055539Y0303341D02*
X0132434Y0303341D01*
X0133432Y0302342D02*
X0055539Y0302342D01*
X0055539Y0301344D02*
X0081591Y0301344D01*
X0081797Y0301550D02*
X0080897Y0300650D01*
X0080670Y0300650D01*
X0073708Y0293688D01*
X0073708Y0287744D01*
X0072808Y0286844D01*
X0072808Y0284939D01*
X0074156Y0283592D01*
X0076061Y0283592D01*
X0077408Y0284939D01*
X0077408Y0286844D01*
X0076508Y0287744D01*
X0076508Y0292528D01*
X0081364Y0297384D01*
X0081797Y0296950D01*
X0083703Y0296950D01*
X0085050Y0298297D01*
X0085050Y0300203D01*
X0083703Y0301550D01*
X0081797Y0301550D01*
X0080365Y0300345D02*
X0055539Y0300345D01*
X0055539Y0299347D02*
X0079367Y0299347D01*
X0078368Y0298348D02*
X0055539Y0298348D01*
X0055539Y0297350D02*
X0077370Y0297350D01*
X0076371Y0296351D02*
X0055539Y0296351D01*
X0055539Y0295353D02*
X0075373Y0295353D01*
X0074374Y0294354D02*
X0055539Y0294354D01*
X0055539Y0293355D02*
X0073708Y0293355D01*
X0073708Y0292357D02*
X0055539Y0292357D01*
X0055539Y0291358D02*
X0073708Y0291358D01*
X0073708Y0290360D02*
X0055539Y0290360D01*
X0055539Y0289361D02*
X0073708Y0289361D01*
X0073708Y0288363D02*
X0055539Y0288363D01*
X0055539Y0287364D02*
X0073328Y0287364D01*
X0072808Y0286366D02*
X0055539Y0286366D01*
X0055539Y0285367D02*
X0072808Y0285367D01*
X0073378Y0284369D02*
X0055539Y0284369D01*
X0055539Y0283370D02*
X0143809Y0283370D01*
X0143584Y0282372D02*
X0066216Y0282372D01*
X0066843Y0281373D02*
X0148250Y0281373D01*
X0148250Y0282372D02*
X0149250Y0282372D01*
X0149250Y0283370D02*
X0148250Y0283370D01*
X0148250Y0284369D02*
X0149250Y0284369D01*
X0149250Y0285367D02*
X0148250Y0285367D01*
X0148250Y0286366D02*
X0149250Y0286366D01*
X0150705Y0287364D02*
X0152250Y0287364D01*
X0152250Y0286366D02*
X0151145Y0286366D01*
X0152151Y0288363D02*
X0152250Y0288363D01*
X0146795Y0287364D02*
X0146600Y0287364D01*
X0144544Y0289361D02*
X0076508Y0289361D01*
X0076508Y0288363D02*
X0142540Y0288363D01*
X0141900Y0287364D02*
X0076888Y0287364D01*
X0077408Y0286366D02*
X0141900Y0286366D01*
X0142309Y0285367D02*
X0077408Y0285367D01*
X0076838Y0284369D02*
X0144248Y0284369D01*
X0143729Y0280375D02*
X0066582Y0280375D01*
X0066082Y0279376D02*
X0144123Y0279376D01*
X0144772Y0278378D02*
X0066747Y0278378D01*
X0064549Y0282372D02*
X0064085Y0282372D01*
X0062417Y0282372D02*
X0061709Y0282372D01*
X0059725Y0282372D02*
X0057925Y0282372D01*
X0058949Y0281818D02*
X0058949Y0281818D01*
X0058949Y0281818D01*
X0056261Y0282372D02*
X0055539Y0282372D01*
X0055539Y0281373D02*
X0055689Y0281373D01*
X0055717Y0280375D02*
X0055539Y0280375D01*
X0055717Y0279376D02*
X0055250Y0279376D01*
X0055250Y0272387D02*
X0144647Y0272387D01*
X0144233Y0271388D02*
X0055539Y0271388D01*
X0055539Y0270390D02*
X0137410Y0270390D01*
X0136411Y0269391D02*
X0055539Y0269391D01*
X0055539Y0268393D02*
X0135413Y0268393D01*
X0138319Y0290360D02*
X0076508Y0290360D01*
X0076508Y0291358D02*
X0137321Y0291358D01*
X0136322Y0292357D02*
X0076508Y0292357D01*
X0077335Y0293355D02*
X0135324Y0293355D01*
X0133052Y0294354D02*
X0078334Y0294354D01*
X0079332Y0295353D02*
X0132054Y0295353D01*
X0131950Y0296351D02*
X0080331Y0296351D01*
X0081329Y0297350D02*
X0081398Y0297350D01*
X0084102Y0297350D02*
X0131950Y0297350D01*
X0132258Y0298348D02*
X0085050Y0298348D01*
X0085050Y0299347D02*
X0131950Y0299347D01*
X0131950Y0300345D02*
X0084908Y0300345D01*
X0083909Y0301344D02*
X0132732Y0301344D01*
X0123750Y0316750D02*
X0098750Y0316750D01*
X0098750Y0326750D01*
X0097051Y0328303D02*
X0055539Y0328303D01*
X0055539Y0327305D02*
X0096450Y0327305D01*
X0096450Y0326306D02*
X0055539Y0326306D01*
X0055539Y0325308D02*
X0096939Y0325308D01*
X0097150Y0324309D02*
X0055539Y0324309D01*
X0055539Y0323311D02*
X0097150Y0323311D01*
X0097150Y0322312D02*
X0055539Y0322312D01*
X0055539Y0321314D02*
X0097150Y0321314D01*
X0097150Y0320315D02*
X0055539Y0320315D01*
X0055539Y0319317D02*
X0097150Y0319317D01*
X0097150Y0318318D02*
X0055539Y0318318D01*
X0055539Y0317320D02*
X0097150Y0317320D01*
X0097150Y0316321D02*
X0055539Y0316321D01*
X0055539Y0315323D02*
X0097150Y0315323D01*
X0097072Y0314324D02*
X0055539Y0314324D01*
X0055539Y0313326D02*
X0096450Y0313326D01*
X0096450Y0312327D02*
X0055539Y0312327D01*
X0055539Y0311329D02*
X0096919Y0311329D01*
X0098750Y0312750D02*
X0098750Y0316750D01*
X0098750Y0254750D02*
X0098750Y0250750D01*
X0182539Y0268393D02*
X0262413Y0268393D01*
X0263411Y0269391D02*
X0182539Y0269391D01*
X0182539Y0270390D02*
X0264410Y0270390D01*
X0271233Y0271388D02*
X0182539Y0271388D01*
X0182250Y0272387D02*
X0271647Y0272387D01*
X0271772Y0278378D02*
X0193747Y0278378D01*
X0193082Y0279376D02*
X0271123Y0279376D01*
X0265319Y0290360D02*
X0203508Y0290360D01*
X0203508Y0291358D02*
X0264321Y0291358D01*
X0263322Y0292357D02*
X0203508Y0292357D01*
X0204335Y0293355D02*
X0262324Y0293355D01*
X0260052Y0294354D02*
X0205334Y0294354D01*
X0206332Y0295353D02*
X0259054Y0295353D01*
X0258950Y0296351D02*
X0207331Y0296351D01*
X0208329Y0297350D02*
X0208398Y0297350D01*
X0211102Y0297350D02*
X0258950Y0297350D01*
X0259258Y0298348D02*
X0212050Y0298348D01*
X0212050Y0299347D02*
X0258950Y0299347D01*
X0258950Y0300345D02*
X0211908Y0300345D01*
X0225750Y0312750D02*
X0225750Y0316750D01*
X0250750Y0316750D01*
X0252434Y0318318D02*
X0260100Y0318318D01*
X0260100Y0317320D02*
X0253050Y0317320D01*
X0253050Y0316321D02*
X0260100Y0316321D01*
X0260100Y0315323D02*
X0252575Y0315323D01*
X0260100Y0314324D02*
X0227428Y0314324D01*
X0228050Y0313326D02*
X0260100Y0313326D01*
X0260100Y0312327D02*
X0228050Y0312327D01*
X0227581Y0311329D02*
X0260100Y0311329D01*
X0260100Y0319317D02*
X0227350Y0319317D01*
X0227350Y0320315D02*
X0260100Y0320315D01*
X0260100Y0321314D02*
X0227350Y0321314D01*
X0227350Y0322312D02*
X0260100Y0322312D01*
X0260100Y0323311D02*
X0227350Y0323311D01*
X0227350Y0324309D02*
X0260100Y0324309D01*
X0260100Y0325308D02*
X0227561Y0325308D01*
X0228050Y0326306D02*
X0260100Y0326306D01*
X0260100Y0327305D02*
X0228050Y0327305D01*
X0227449Y0328303D02*
X0260323Y0328303D01*
X0225750Y0326750D02*
X0225750Y0316750D01*
X0309539Y0316321D02*
X0351150Y0316321D01*
X0351150Y0315323D02*
X0309539Y0315323D01*
X0309539Y0314324D02*
X0351072Y0314324D01*
X0351150Y0314403D02*
X0350450Y0313703D01*
X0350450Y0311797D01*
X0351797Y0310450D01*
X0353703Y0310450D01*
X0355050Y0311797D01*
X0355050Y0313703D01*
X0354350Y0314403D01*
X0354350Y0315150D01*
X0376097Y0315150D01*
X0376797Y0314450D01*
X0378703Y0314450D01*
X0380050Y0315797D01*
X0380050Y0317703D01*
X0378703Y0319050D01*
X0376797Y0319050D01*
X0376097Y0318350D01*
X0354350Y0318350D01*
X0354350Y0325097D01*
X0355050Y0325797D01*
X0355050Y0327703D01*
X0353703Y0329050D01*
X0351797Y0329050D01*
X0350450Y0327703D01*
X0350450Y0325797D01*
X0351150Y0325097D01*
X0351150Y0314403D01*
X0350450Y0313326D02*
X0309539Y0313326D01*
X0309539Y0312327D02*
X0350450Y0312327D01*
X0350919Y0311329D02*
X0309539Y0311329D01*
X0309539Y0310330D02*
X0387100Y0310330D01*
X0387100Y0309332D02*
X0309539Y0309332D01*
X0309539Y0308333D02*
X0387100Y0308333D01*
X0387100Y0307335D02*
X0309539Y0307335D01*
X0309539Y0306336D02*
X0387056Y0306336D01*
X0387100Y0306380D02*
X0386200Y0305480D01*
X0386200Y0303574D01*
X0387547Y0302227D01*
X0388888Y0302227D01*
X0388570Y0301909D01*
X0387297Y0301909D01*
X0385950Y0300562D01*
X0385950Y0298656D01*
X0386597Y0298009D01*
X0385950Y0297362D01*
X0385950Y0295456D01*
X0387297Y0294109D01*
X0388570Y0294109D01*
X0391509Y0291170D01*
X0392329Y0290350D01*
X0398134Y0290350D01*
X0398652Y0289100D01*
X0397277Y0289100D01*
X0395900Y0287723D01*
X0395900Y0285777D01*
X0397277Y0284400D01*
X0398264Y0284400D01*
X0397931Y0283746D01*
X0397678Y0282968D01*
X0397564Y0282250D01*
X0402250Y0282250D01*
X0402250Y0286936D01*
X0401532Y0286822D01*
X0400754Y0286569D01*
X0400600Y0286491D01*
X0400600Y0287445D01*
X0401795Y0286950D01*
X0403705Y0286950D01*
X0405469Y0287681D01*
X0406250Y0288462D01*
X0406250Y0285604D01*
X0406138Y0285716D01*
X0405475Y0286197D01*
X0404746Y0286569D01*
X0403968Y0286822D01*
X0403250Y0286936D01*
X0403250Y0282250D01*
X0402250Y0282250D01*
X0402250Y0281250D01*
X0397564Y0281250D01*
X0397678Y0280532D01*
X0397931Y0279754D01*
X0398303Y0279025D01*
X0398784Y0278362D01*
X0398896Y0278250D01*
X0320833Y0278250D01*
X0319999Y0279500D01*
X0320937Y0280906D01*
X0320709Y0282043D01*
X0319744Y0282687D01*
X0318607Y0282459D01*
X0318317Y0282024D01*
X0318027Y0282459D01*
X0316889Y0282687D01*
X0316051Y0282128D01*
X0315389Y0282600D01*
X0314044Y0282600D01*
X0312949Y0281818D01*
X0312871Y0281589D01*
X0312052Y0282245D01*
X0311697Y0282600D01*
X0311608Y0282600D01*
X0311538Y0282655D01*
X0311039Y0282600D01*
X0310537Y0282600D01*
X0310474Y0282537D01*
X0310386Y0282527D01*
X0310072Y0282135D01*
X0309717Y0281780D01*
X0309717Y0281691D01*
X0309661Y0281622D01*
X0309717Y0281122D01*
X0309717Y0279200D01*
X0309592Y0279200D01*
X0309250Y0278858D01*
X0309250Y0279431D01*
X0309539Y0279720D01*
X0309539Y0333780D01*
X0309250Y0334069D01*
X0309250Y0335250D01*
X0399462Y0335250D01*
X0398681Y0334469D01*
X0398134Y0333150D01*
X0392170Y0333150D01*
X0391350Y0332330D01*
X0387100Y0328080D01*
X0387100Y0306380D01*
X0386200Y0305338D02*
X0309539Y0305338D01*
X0309539Y0304339D02*
X0386200Y0304339D01*
X0386434Y0303341D02*
X0309539Y0303341D01*
X0309539Y0302342D02*
X0387432Y0302342D01*
X0386732Y0301344D02*
X0337909Y0301344D01*
X0337703Y0301550D02*
X0335797Y0301550D01*
X0334897Y0300650D01*
X0334670Y0300650D01*
X0333850Y0299830D01*
X0333850Y0299830D01*
X0328528Y0294508D01*
X0327708Y0293688D01*
X0327708Y0287744D01*
X0326808Y0286844D01*
X0326808Y0284939D01*
X0328156Y0283592D01*
X0330061Y0283592D01*
X0331408Y0284939D01*
X0331408Y0286844D01*
X0330508Y0287744D01*
X0330508Y0292528D01*
X0335364Y0297384D01*
X0335797Y0296950D01*
X0337703Y0296950D01*
X0339050Y0298297D01*
X0339050Y0300203D01*
X0337703Y0301550D01*
X0338908Y0300345D02*
X0385950Y0300345D01*
X0385950Y0299347D02*
X0339050Y0299347D01*
X0339050Y0298348D02*
X0386258Y0298348D01*
X0385950Y0297350D02*
X0338102Y0297350D01*
X0335398Y0297350D02*
X0335329Y0297350D01*
X0334331Y0296351D02*
X0385950Y0296351D01*
X0386054Y0295353D02*
X0333332Y0295353D01*
X0332334Y0294354D02*
X0387052Y0294354D01*
X0389324Y0293355D02*
X0331335Y0293355D01*
X0330508Y0292357D02*
X0390322Y0292357D01*
X0391321Y0291358D02*
X0330508Y0291358D01*
X0330508Y0290360D02*
X0392319Y0290360D01*
X0395900Y0287364D02*
X0330888Y0287364D01*
X0330508Y0288363D02*
X0396540Y0288363D01*
X0395900Y0286366D02*
X0331408Y0286366D01*
X0331408Y0285367D02*
X0396309Y0285367D01*
X0398248Y0284369D02*
X0330838Y0284369D01*
X0327378Y0284369D02*
X0309539Y0284369D01*
X0309539Y0285367D02*
X0326808Y0285367D01*
X0326808Y0286366D02*
X0309539Y0286366D01*
X0309539Y0287364D02*
X0327328Y0287364D01*
X0327708Y0288363D02*
X0309539Y0288363D01*
X0309539Y0289361D02*
X0327708Y0289361D01*
X0327708Y0290360D02*
X0309539Y0290360D01*
X0309539Y0291358D02*
X0327708Y0291358D01*
X0327708Y0292357D02*
X0309539Y0292357D01*
X0309539Y0293355D02*
X0327708Y0293355D01*
X0328374Y0294354D02*
X0309539Y0294354D01*
X0309539Y0295353D02*
X0329373Y0295353D01*
X0328528Y0294508D02*
X0328528Y0294508D01*
X0330371Y0296351D02*
X0309539Y0296351D01*
X0309539Y0297350D02*
X0331370Y0297350D01*
X0332368Y0298348D02*
X0309539Y0298348D01*
X0309539Y0299347D02*
X0333367Y0299347D01*
X0334365Y0300345D02*
X0309539Y0300345D01*
X0309539Y0301344D02*
X0335591Y0301344D01*
X0330508Y0289361D02*
X0398544Y0289361D01*
X0400600Y0287364D02*
X0400795Y0287364D01*
X0402250Y0286366D02*
X0403250Y0286366D01*
X0403250Y0285367D02*
X0402250Y0285367D01*
X0402250Y0284369D02*
X0403250Y0284369D01*
X0403250Y0283370D02*
X0402250Y0283370D01*
X0402250Y0282372D02*
X0403250Y0282372D01*
X0402250Y0281373D02*
X0320843Y0281373D01*
X0320582Y0280375D02*
X0397729Y0280375D01*
X0398123Y0279376D02*
X0320082Y0279376D01*
X0320747Y0278378D02*
X0398772Y0278378D01*
X0397584Y0282372D02*
X0320216Y0282372D01*
X0318549Y0282372D02*
X0318085Y0282372D01*
X0316417Y0282372D02*
X0315709Y0282372D01*
X0313725Y0282372D02*
X0311925Y0282372D01*
X0312949Y0281818D02*
X0312949Y0281818D01*
X0312949Y0281818D01*
X0310261Y0282372D02*
X0309539Y0282372D01*
X0309539Y0283370D02*
X0397809Y0283370D01*
X0405145Y0286366D02*
X0406250Y0286366D01*
X0406250Y0287364D02*
X0404705Y0287364D01*
X0406151Y0288363D02*
X0406250Y0288363D01*
X0399462Y0273250D02*
X0398681Y0272469D01*
X0398134Y0271150D01*
X0392170Y0271150D01*
X0391350Y0270330D01*
X0387100Y0266080D01*
X0387100Y0244380D01*
X0386200Y0243480D01*
X0386200Y0241574D01*
X0387547Y0240227D01*
X0388888Y0240227D01*
X0388570Y0239909D01*
X0387297Y0239909D01*
X0385950Y0238562D01*
X0385950Y0236656D01*
X0386597Y0236009D01*
X0385950Y0235362D01*
X0385950Y0233456D01*
X0387297Y0232109D01*
X0388570Y0232109D01*
X0391509Y0229170D01*
X0392329Y0228350D01*
X0398134Y0228350D01*
X0398652Y0227100D01*
X0397277Y0227100D01*
X0395900Y0225723D01*
X0395900Y0223777D01*
X0397277Y0222400D01*
X0398264Y0222400D01*
X0397931Y0221746D01*
X0397678Y0220968D01*
X0397564Y0220250D01*
X0402250Y0220250D01*
X0402250Y0224936D01*
X0401532Y0224822D01*
X0400754Y0224569D01*
X0400600Y0224491D01*
X0400600Y0225445D01*
X0401795Y0224950D01*
X0403705Y0224950D01*
X0405469Y0225681D01*
X0406250Y0226462D01*
X0406250Y0223604D01*
X0406138Y0223716D01*
X0405475Y0224197D01*
X0404746Y0224569D01*
X0403968Y0224822D01*
X0403250Y0224936D01*
X0403250Y0220250D01*
X0402250Y0220250D01*
X0402250Y0219250D01*
X0397564Y0219250D01*
X0397678Y0218532D01*
X0397931Y0217754D01*
X0398303Y0217025D01*
X0398784Y0216362D01*
X0398896Y0216250D01*
X0320833Y0216250D01*
X0319999Y0217500D01*
X0320937Y0218906D01*
X0320709Y0220043D01*
X0319744Y0220687D01*
X0318607Y0220459D01*
X0318317Y0220024D01*
X0318027Y0220459D01*
X0316889Y0220687D01*
X0316051Y0220128D01*
X0315389Y0220600D01*
X0314044Y0220600D01*
X0312949Y0219818D01*
X0312871Y0219589D01*
X0312052Y0220245D01*
X0311697Y0220600D01*
X0311608Y0220600D01*
X0311538Y0220655D01*
X0311039Y0220600D01*
X0310537Y0220600D01*
X0310474Y0220537D01*
X0310386Y0220527D01*
X0310072Y0220135D01*
X0309717Y0219780D01*
X0309717Y0219691D01*
X0309661Y0219622D01*
X0309717Y0219122D01*
X0309717Y0217200D01*
X0309592Y0217200D01*
X0309250Y0216858D01*
X0309250Y0217431D01*
X0309539Y0217720D01*
X0309539Y0271780D01*
X0309250Y0272069D01*
X0309250Y0273250D01*
X0399462Y0273250D01*
X0398647Y0272387D02*
X0309250Y0272387D01*
X0309539Y0271388D02*
X0398233Y0271388D01*
X0391410Y0270390D02*
X0309539Y0270390D01*
X0309539Y0269391D02*
X0390411Y0269391D01*
X0389413Y0268393D02*
X0309539Y0268393D01*
X0309539Y0267394D02*
X0388414Y0267394D01*
X0387416Y0266396D02*
X0354357Y0266396D01*
X0353703Y0267050D02*
X0351797Y0267050D01*
X0350450Y0265703D01*
X0350450Y0263797D01*
X0351150Y0263097D01*
X0351150Y0252403D01*
X0350450Y0251703D01*
X0350450Y0249797D01*
X0351797Y0248450D01*
X0353703Y0248450D01*
X0355050Y0249797D01*
X0355050Y0251703D01*
X0354350Y0252403D01*
X0354350Y0253150D01*
X0376097Y0253150D01*
X0376797Y0252450D01*
X0378703Y0252450D01*
X0380050Y0253797D01*
X0380050Y0255703D01*
X0378703Y0257050D01*
X0376797Y0257050D01*
X0376097Y0256350D01*
X0354350Y0256350D01*
X0354350Y0263097D01*
X0355050Y0263797D01*
X0355050Y0265703D01*
X0353703Y0267050D01*
X0355050Y0265397D02*
X0387100Y0265397D01*
X0387100Y0264399D02*
X0355050Y0264399D01*
X0354653Y0263400D02*
X0387100Y0263400D01*
X0387100Y0262402D02*
X0354350Y0262402D01*
X0354350Y0261403D02*
X0387100Y0261403D01*
X0387100Y0260405D02*
X0354350Y0260405D01*
X0354350Y0259406D02*
X0387100Y0259406D01*
X0387100Y0258408D02*
X0354350Y0258408D01*
X0354350Y0257409D02*
X0387100Y0257409D01*
X0387100Y0256411D02*
X0379342Y0256411D01*
X0380050Y0255412D02*
X0387100Y0255412D01*
X0387100Y0254414D02*
X0380050Y0254414D01*
X0379668Y0253415D02*
X0387100Y0253415D01*
X0387100Y0252417D02*
X0354350Y0252417D01*
X0355050Y0251418D02*
X0387100Y0251418D01*
X0387100Y0250420D02*
X0355050Y0250420D01*
X0354674Y0249421D02*
X0387100Y0249421D01*
X0387100Y0248422D02*
X0309539Y0248422D01*
X0309539Y0247424D02*
X0387100Y0247424D01*
X0387100Y0246425D02*
X0309539Y0246425D01*
X0309539Y0245427D02*
X0387100Y0245427D01*
X0387100Y0244428D02*
X0309539Y0244428D01*
X0309539Y0243430D02*
X0386200Y0243430D01*
X0386200Y0242431D02*
X0309539Y0242431D01*
X0309539Y0241433D02*
X0386342Y0241433D01*
X0387340Y0240434D02*
X0309539Y0240434D01*
X0309539Y0239436D02*
X0335683Y0239436D01*
X0335797Y0239550D02*
X0334897Y0238650D01*
X0334670Y0238650D01*
X0327708Y0231688D01*
X0327708Y0225744D01*
X0326808Y0224844D01*
X0326808Y0222939D01*
X0328156Y0221592D01*
X0330061Y0221592D01*
X0331408Y0222939D01*
X0331408Y0224844D01*
X0330508Y0225744D01*
X0330508Y0230528D01*
X0335364Y0235384D01*
X0335797Y0234950D01*
X0337703Y0234950D01*
X0339050Y0236297D01*
X0339050Y0238203D01*
X0337703Y0239550D01*
X0335797Y0239550D01*
X0334457Y0238437D02*
X0309539Y0238437D01*
X0309539Y0237439D02*
X0333459Y0237439D01*
X0332460Y0236440D02*
X0309539Y0236440D01*
X0309539Y0235442D02*
X0331462Y0235442D01*
X0330463Y0234443D02*
X0309539Y0234443D01*
X0309539Y0233445D02*
X0329465Y0233445D01*
X0328466Y0232446D02*
X0309539Y0232446D01*
X0309539Y0231448D02*
X0327708Y0231448D01*
X0327708Y0230449D02*
X0309539Y0230449D01*
X0309539Y0229451D02*
X0327708Y0229451D01*
X0327708Y0228452D02*
X0309539Y0228452D01*
X0309539Y0227454D02*
X0327708Y0227454D01*
X0327708Y0226455D02*
X0309539Y0226455D01*
X0309539Y0225457D02*
X0327421Y0225457D01*
X0326808Y0224458D02*
X0309539Y0224458D01*
X0309539Y0223460D02*
X0326808Y0223460D01*
X0327286Y0222461D02*
X0309539Y0222461D01*
X0309539Y0221463D02*
X0397839Y0221463D01*
X0397598Y0220464D02*
X0320078Y0220464D01*
X0320825Y0219466D02*
X0402250Y0219466D01*
X0402250Y0220464D02*
X0403250Y0220464D01*
X0403250Y0221463D02*
X0402250Y0221463D01*
X0402250Y0222461D02*
X0403250Y0222461D01*
X0403250Y0223460D02*
X0402250Y0223460D01*
X0402250Y0224458D02*
X0403250Y0224458D01*
X0404964Y0224458D02*
X0406250Y0224458D01*
X0406250Y0225457D02*
X0404928Y0225457D01*
X0406243Y0226455D02*
X0406250Y0226455D01*
X0398506Y0227454D02*
X0330508Y0227454D01*
X0330508Y0228452D02*
X0392227Y0228452D01*
X0391228Y0229451D02*
X0330508Y0229451D01*
X0330508Y0230449D02*
X0390230Y0230449D01*
X0389231Y0231448D02*
X0331428Y0231448D01*
X0332426Y0232446D02*
X0386960Y0232446D01*
X0385962Y0233445D02*
X0333425Y0233445D01*
X0334423Y0234443D02*
X0385950Y0234443D01*
X0386030Y0235442D02*
X0338195Y0235442D01*
X0339050Y0236440D02*
X0386166Y0236440D01*
X0385950Y0237439D02*
X0339050Y0237439D01*
X0338815Y0238437D02*
X0385950Y0238437D01*
X0386824Y0239436D02*
X0337817Y0239436D01*
X0350826Y0249421D02*
X0309539Y0249421D01*
X0309539Y0250420D02*
X0350450Y0250420D01*
X0350450Y0251418D02*
X0309539Y0251418D01*
X0309539Y0252417D02*
X0351150Y0252417D01*
X0351150Y0253415D02*
X0309539Y0253415D01*
X0309539Y0254414D02*
X0351150Y0254414D01*
X0351150Y0255412D02*
X0309539Y0255412D01*
X0309539Y0256411D02*
X0351150Y0256411D01*
X0351150Y0257409D02*
X0309539Y0257409D01*
X0309539Y0258408D02*
X0351150Y0258408D01*
X0351150Y0259406D02*
X0309539Y0259406D01*
X0309539Y0260405D02*
X0351150Y0260405D01*
X0351150Y0261403D02*
X0309539Y0261403D01*
X0309539Y0262402D02*
X0351150Y0262402D01*
X0350847Y0263400D02*
X0309539Y0263400D01*
X0309539Y0264399D02*
X0350450Y0264399D01*
X0350450Y0265397D02*
X0309539Y0265397D01*
X0309539Y0266396D02*
X0351143Y0266396D01*
X0352750Y0264750D02*
X0352750Y0254750D01*
X0377750Y0254750D01*
X0376158Y0256411D02*
X0354350Y0256411D01*
X0352750Y0254750D02*
X0352750Y0250750D01*
X0330508Y0226455D02*
X0396632Y0226455D01*
X0395900Y0225457D02*
X0330796Y0225457D01*
X0331408Y0224458D02*
X0395900Y0224458D01*
X0396217Y0223460D02*
X0331408Y0223460D01*
X0330930Y0222461D02*
X0397215Y0222461D01*
X0397699Y0218467D02*
X0320644Y0218467D01*
X0320020Y0217469D02*
X0398076Y0217469D01*
X0398705Y0216470D02*
X0320686Y0216470D01*
X0318632Y0220464D02*
X0318001Y0220464D01*
X0316556Y0220464D02*
X0315579Y0220464D01*
X0313854Y0220464D02*
X0311832Y0220464D01*
X0312949Y0219818D02*
X0312949Y0219818D01*
X0312949Y0219818D01*
X0310335Y0220464D02*
X0309539Y0220464D01*
X0309539Y0219466D02*
X0309679Y0219466D01*
X0309717Y0218467D02*
X0309539Y0218467D01*
X0309717Y0217469D02*
X0309288Y0217469D01*
X0309250Y0211250D02*
X0399462Y0211250D01*
X0398681Y0210469D01*
X0398134Y0209150D01*
X0392170Y0209150D01*
X0391350Y0208330D01*
X0387100Y0204080D01*
X0387100Y0182380D01*
X0386200Y0181480D01*
X0386200Y0179574D01*
X0387547Y0178227D01*
X0388888Y0178227D01*
X0388570Y0177909D01*
X0387297Y0177909D01*
X0385950Y0176562D01*
X0385950Y0174656D01*
X0386597Y0174009D01*
X0385950Y0173362D01*
X0385950Y0171456D01*
X0387297Y0170109D01*
X0388570Y0170109D01*
X0392329Y0166350D01*
X0398134Y0166350D01*
X0398652Y0165100D01*
X0397277Y0165100D01*
X0395900Y0163723D01*
X0395900Y0161777D01*
X0397277Y0160400D01*
X0398264Y0160400D01*
X0397931Y0159746D01*
X0397678Y0158968D01*
X0397564Y0158250D01*
X0402250Y0158250D01*
X0402250Y0162936D01*
X0401532Y0162822D01*
X0400754Y0162569D01*
X0400600Y0162491D01*
X0400600Y0163445D01*
X0401795Y0162950D01*
X0403705Y0162950D01*
X0405469Y0163681D01*
X0406250Y0164462D01*
X0406250Y0161604D01*
X0406138Y0161716D01*
X0405475Y0162197D01*
X0404746Y0162569D01*
X0403968Y0162822D01*
X0403250Y0162936D01*
X0403250Y0158250D01*
X0402250Y0158250D01*
X0402250Y0157250D01*
X0397564Y0157250D01*
X0397678Y0156532D01*
X0397931Y0155754D01*
X0398303Y0155025D01*
X0398784Y0154362D01*
X0398896Y0154250D01*
X0320833Y0154250D01*
X0319999Y0155500D01*
X0320937Y0156906D01*
X0320709Y0158043D01*
X0319744Y0158687D01*
X0318607Y0158459D01*
X0318317Y0158024D01*
X0318027Y0158459D01*
X0316889Y0158687D01*
X0316051Y0158128D01*
X0315389Y0158600D01*
X0314044Y0158600D01*
X0312949Y0157818D01*
X0312871Y0157589D01*
X0312052Y0158245D01*
X0311697Y0158600D01*
X0311608Y0158600D01*
X0311538Y0158655D01*
X0311039Y0158600D01*
X0310537Y0158600D01*
X0310474Y0158537D01*
X0310386Y0158527D01*
X0310072Y0158135D01*
X0309717Y0157780D01*
X0309717Y0157691D01*
X0309661Y0157622D01*
X0309717Y0157122D01*
X0309717Y0155200D01*
X0309592Y0155200D01*
X0309250Y0154858D01*
X0309250Y0155431D01*
X0309539Y0155720D01*
X0309539Y0209780D01*
X0309250Y0210069D01*
X0309250Y0211250D01*
X0309250Y0210479D02*
X0398691Y0210479D01*
X0398271Y0209481D02*
X0309539Y0209481D01*
X0309539Y0208482D02*
X0391502Y0208482D01*
X0390504Y0207484D02*
X0309539Y0207484D01*
X0309539Y0206485D02*
X0389505Y0206485D01*
X0388507Y0205487D02*
X0309539Y0205487D01*
X0309539Y0204488D02*
X0351235Y0204488D01*
X0351797Y0205050D02*
X0350450Y0203703D01*
X0350450Y0201797D01*
X0351150Y0201097D01*
X0351150Y0190403D01*
X0350450Y0189703D01*
X0350450Y0187797D01*
X0351797Y0186450D01*
X0353703Y0186450D01*
X0355050Y0187797D01*
X0355050Y0189703D01*
X0354350Y0190403D01*
X0354350Y0191150D01*
X0376097Y0191150D01*
X0376797Y0190450D01*
X0378703Y0190450D01*
X0380050Y0191797D01*
X0380050Y0193703D01*
X0378703Y0195050D01*
X0376797Y0195050D01*
X0376097Y0194350D01*
X0354350Y0194350D01*
X0354350Y0201097D01*
X0355050Y0201797D01*
X0355050Y0203703D01*
X0353703Y0205050D01*
X0351797Y0205050D01*
X0350450Y0203489D02*
X0309539Y0203489D01*
X0309539Y0202491D02*
X0350450Y0202491D01*
X0350755Y0201492D02*
X0309539Y0201492D01*
X0309539Y0200494D02*
X0351150Y0200494D01*
X0351150Y0199495D02*
X0309539Y0199495D01*
X0309539Y0198497D02*
X0351150Y0198497D01*
X0351150Y0197498D02*
X0309539Y0197498D01*
X0309539Y0196500D02*
X0351150Y0196500D01*
X0351150Y0195501D02*
X0309539Y0195501D01*
X0309539Y0194503D02*
X0351150Y0194503D01*
X0351150Y0193504D02*
X0309539Y0193504D01*
X0309539Y0192506D02*
X0351150Y0192506D01*
X0351150Y0191507D02*
X0309539Y0191507D01*
X0309539Y0190509D02*
X0351150Y0190509D01*
X0350450Y0189510D02*
X0309539Y0189510D01*
X0309539Y0188512D02*
X0350450Y0188512D01*
X0350734Y0187513D02*
X0309539Y0187513D01*
X0309539Y0186515D02*
X0351733Y0186515D01*
X0353767Y0186515D02*
X0387100Y0186515D01*
X0387100Y0187513D02*
X0354766Y0187513D01*
X0355050Y0188512D02*
X0387100Y0188512D01*
X0387100Y0189510D02*
X0355050Y0189510D01*
X0354350Y0190509D02*
X0376738Y0190509D01*
X0378762Y0190509D02*
X0387100Y0190509D01*
X0387100Y0191507D02*
X0379760Y0191507D01*
X0380050Y0192506D02*
X0387100Y0192506D01*
X0387100Y0193504D02*
X0380050Y0193504D01*
X0379250Y0194503D02*
X0387100Y0194503D01*
X0387100Y0195501D02*
X0354350Y0195501D01*
X0354350Y0194503D02*
X0376250Y0194503D01*
X0377750Y0192750D02*
X0352750Y0192750D01*
X0352750Y0202750D01*
X0354265Y0204488D02*
X0387508Y0204488D01*
X0387100Y0203489D02*
X0355050Y0203489D01*
X0355050Y0202491D02*
X0387100Y0202491D01*
X0387100Y0201492D02*
X0354745Y0201492D01*
X0354350Y0200494D02*
X0387100Y0200494D01*
X0387100Y0199495D02*
X0354350Y0199495D01*
X0354350Y0198497D02*
X0387100Y0198497D01*
X0387100Y0197498D02*
X0354350Y0197498D01*
X0354350Y0196500D02*
X0387100Y0196500D01*
X0387100Y0185516D02*
X0309539Y0185516D01*
X0309539Y0184518D02*
X0387100Y0184518D01*
X0387100Y0183519D02*
X0309539Y0183519D01*
X0309539Y0182521D02*
X0387100Y0182521D01*
X0386242Y0181522D02*
X0309539Y0181522D01*
X0309539Y0180524D02*
X0386200Y0180524D01*
X0386249Y0179525D02*
X0309539Y0179525D01*
X0309539Y0178527D02*
X0387248Y0178527D01*
X0386916Y0177528D02*
X0337724Y0177528D01*
X0337703Y0177550D02*
X0335797Y0177550D01*
X0334897Y0176650D01*
X0334670Y0176650D01*
X0327708Y0169688D01*
X0327708Y0163744D01*
X0326808Y0162844D01*
X0326808Y0160939D01*
X0328156Y0159592D01*
X0330061Y0159592D01*
X0331408Y0160939D01*
X0331408Y0162844D01*
X0330508Y0163744D01*
X0330508Y0168528D01*
X0335364Y0173384D01*
X0335797Y0172950D01*
X0337703Y0172950D01*
X0339050Y0174297D01*
X0339050Y0176203D01*
X0337703Y0177550D01*
X0338723Y0176530D02*
X0385950Y0176530D01*
X0385950Y0175531D02*
X0339050Y0175531D01*
X0339050Y0174533D02*
X0386074Y0174533D01*
X0386122Y0173534D02*
X0338287Y0173534D01*
X0334516Y0172536D02*
X0385950Y0172536D01*
X0385950Y0171537D02*
X0333517Y0171537D01*
X0332519Y0170539D02*
X0386868Y0170539D01*
X0389139Y0169540D02*
X0331520Y0169540D01*
X0330521Y0168542D02*
X0390138Y0168542D01*
X0391136Y0167543D02*
X0330508Y0167543D01*
X0330508Y0166545D02*
X0392135Y0166545D01*
X0395900Y0163549D02*
X0330704Y0163549D01*
X0330508Y0164548D02*
X0396724Y0164548D01*
X0398467Y0165546D02*
X0330508Y0165546D01*
X0327708Y0165546D02*
X0309539Y0165546D01*
X0309539Y0164548D02*
X0327708Y0164548D01*
X0327513Y0163549D02*
X0309539Y0163549D01*
X0309539Y0162551D02*
X0326808Y0162551D01*
X0326808Y0161552D02*
X0309539Y0161552D01*
X0309539Y0160553D02*
X0327194Y0160553D01*
X0331023Y0160553D02*
X0397123Y0160553D01*
X0397869Y0159555D02*
X0309539Y0159555D01*
X0309539Y0158556D02*
X0310493Y0158556D01*
X0311740Y0158556D02*
X0313983Y0158556D01*
X0312949Y0157818D02*
X0312949Y0157818D01*
X0312949Y0157818D01*
X0315450Y0158556D02*
X0316694Y0158556D01*
X0317540Y0158556D02*
X0319094Y0158556D01*
X0319939Y0158556D02*
X0397613Y0158556D01*
X0397674Y0156559D02*
X0320706Y0156559D01*
X0320806Y0157558D02*
X0402250Y0157558D01*
X0402250Y0158556D02*
X0403250Y0158556D01*
X0403250Y0159555D02*
X0402250Y0159555D01*
X0402250Y0160553D02*
X0403250Y0160553D01*
X0403250Y0161552D02*
X0402250Y0161552D01*
X0402250Y0162551D02*
X0403250Y0162551D01*
X0404782Y0162551D02*
X0406250Y0162551D01*
X0406250Y0163549D02*
X0405151Y0163549D01*
X0400718Y0162551D02*
X0400600Y0162551D01*
X0396125Y0161552D02*
X0331408Y0161552D01*
X0331408Y0162551D02*
X0395900Y0162551D01*
X0398029Y0155561D02*
X0320040Y0155561D01*
X0320624Y0154562D02*
X0398638Y0154562D01*
X0399462Y0149250D02*
X0398681Y0148469D01*
X0398134Y0147150D01*
X0392170Y0147150D01*
X0391350Y0146330D01*
X0387100Y0142080D01*
X0387100Y0120380D01*
X0386200Y0119480D01*
X0386200Y0117574D01*
X0387547Y0116227D01*
X0388888Y0116227D01*
X0388570Y0115909D01*
X0387297Y0115909D01*
X0385950Y0114562D01*
X0385950Y0112656D01*
X0386597Y0112009D01*
X0385950Y0111362D01*
X0385950Y0109456D01*
X0387297Y0108109D01*
X0388570Y0108109D01*
X0391509Y0105170D01*
X0392329Y0104350D01*
X0398134Y0104350D01*
X0398652Y0103100D01*
X0397277Y0103100D01*
X0395900Y0101723D01*
X0395900Y0099777D01*
X0397277Y0098400D01*
X0398264Y0098400D01*
X0397931Y0097746D01*
X0397678Y0096968D01*
X0397564Y0096250D01*
X0402250Y0096250D01*
X0402250Y0100936D01*
X0401532Y0100822D01*
X0400754Y0100569D01*
X0400600Y0100491D01*
X0400600Y0101445D01*
X0401795Y0100950D01*
X0403705Y0100950D01*
X0405469Y0101681D01*
X0406250Y0102462D01*
X0406250Y0099604D01*
X0406138Y0099716D01*
X0405475Y0100197D01*
X0404746Y0100569D01*
X0403968Y0100822D01*
X0403250Y0100936D01*
X0403250Y0096250D01*
X0402250Y0096250D01*
X0402250Y0095250D01*
X0397564Y0095250D01*
X0397678Y0094532D01*
X0397931Y0093754D01*
X0398303Y0093025D01*
X0398784Y0092362D01*
X0398896Y0092250D01*
X0320833Y0092250D01*
X0319999Y0093500D01*
X0320937Y0094906D01*
X0320709Y0096043D01*
X0319744Y0096687D01*
X0318607Y0096459D01*
X0318317Y0096024D01*
X0318027Y0096459D01*
X0316889Y0096687D01*
X0316051Y0096128D01*
X0315389Y0096600D01*
X0314044Y0096600D01*
X0312949Y0095818D01*
X0312871Y0095589D01*
X0312052Y0096245D01*
X0311697Y0096600D01*
X0311608Y0096600D01*
X0311538Y0096655D01*
X0311039Y0096600D01*
X0310537Y0096600D01*
X0310474Y0096537D01*
X0310386Y0096527D01*
X0310072Y0096135D01*
X0309717Y0095780D01*
X0309717Y0095691D01*
X0309661Y0095622D01*
X0309717Y0095122D01*
X0309717Y0093200D01*
X0309592Y0093200D01*
X0309250Y0092858D01*
X0309250Y0093431D01*
X0309539Y0093720D01*
X0309539Y0147780D01*
X0309250Y0148069D01*
X0309250Y0149250D01*
X0399462Y0149250D01*
X0398783Y0148571D02*
X0309250Y0148571D01*
X0309539Y0147573D02*
X0398310Y0147573D01*
X0391594Y0146574D02*
X0309539Y0146574D01*
X0309539Y0145576D02*
X0390596Y0145576D01*
X0389597Y0144577D02*
X0309539Y0144577D01*
X0309539Y0143579D02*
X0388599Y0143579D01*
X0387600Y0142580D02*
X0354172Y0142580D01*
X0353703Y0143050D02*
X0351797Y0143050D01*
X0350450Y0141703D01*
X0350450Y0139797D01*
X0351150Y0139097D01*
X0351150Y0128403D01*
X0350450Y0127703D01*
X0350450Y0125797D01*
X0351797Y0124450D01*
X0353703Y0124450D01*
X0355050Y0125797D01*
X0355050Y0127703D01*
X0354350Y0128403D01*
X0354350Y0129150D01*
X0376097Y0129150D01*
X0376797Y0128450D01*
X0378703Y0128450D01*
X0380050Y0129797D01*
X0380050Y0131703D01*
X0378703Y0133050D01*
X0376797Y0133050D01*
X0376097Y0132350D01*
X0354350Y0132350D01*
X0354350Y0139097D01*
X0355050Y0139797D01*
X0355050Y0141703D01*
X0353703Y0143050D01*
X0355050Y0141582D02*
X0387100Y0141582D01*
X0387100Y0140583D02*
X0355050Y0140583D01*
X0354837Y0139585D02*
X0387100Y0139585D01*
X0387100Y0138586D02*
X0354350Y0138586D01*
X0354350Y0137588D02*
X0387100Y0137588D01*
X0387100Y0136589D02*
X0354350Y0136589D01*
X0354350Y0135591D02*
X0387100Y0135591D01*
X0387100Y0134592D02*
X0354350Y0134592D01*
X0354350Y0133594D02*
X0387100Y0133594D01*
X0387100Y0132595D02*
X0379157Y0132595D01*
X0380050Y0131597D02*
X0387100Y0131597D01*
X0387100Y0130598D02*
X0380050Y0130598D01*
X0379852Y0129600D02*
X0387100Y0129600D01*
X0387100Y0128601D02*
X0378854Y0128601D01*
X0376646Y0128601D02*
X0354350Y0128601D01*
X0355050Y0127603D02*
X0387100Y0127603D01*
X0387100Y0126604D02*
X0355050Y0126604D01*
X0354858Y0125606D02*
X0387100Y0125606D01*
X0387100Y0124607D02*
X0353860Y0124607D01*
X0351640Y0124607D02*
X0309539Y0124607D01*
X0309539Y0123609D02*
X0387100Y0123609D01*
X0387100Y0122610D02*
X0309539Y0122610D01*
X0309539Y0121612D02*
X0387100Y0121612D01*
X0387100Y0120613D02*
X0309539Y0120613D01*
X0309539Y0119615D02*
X0386335Y0119615D01*
X0386200Y0118616D02*
X0309539Y0118616D01*
X0309539Y0117618D02*
X0386200Y0117618D01*
X0387155Y0116619D02*
X0309539Y0116619D01*
X0309539Y0115620D02*
X0387009Y0115620D01*
X0386010Y0114622D02*
X0338631Y0114622D01*
X0339050Y0114203D02*
X0337703Y0115550D01*
X0335797Y0115550D01*
X0334897Y0114650D01*
X0334670Y0114650D01*
X0327708Y0107688D01*
X0327708Y0101744D01*
X0326808Y0100844D01*
X0326808Y0098939D01*
X0328156Y0097592D01*
X0330061Y0097592D01*
X0331408Y0098939D01*
X0331408Y0100844D01*
X0330508Y0101744D01*
X0330508Y0106528D01*
X0335364Y0111384D01*
X0335797Y0110950D01*
X0337703Y0110950D01*
X0339050Y0112297D01*
X0339050Y0114203D01*
X0339050Y0113623D02*
X0385950Y0113623D01*
X0385981Y0112625D02*
X0339050Y0112625D01*
X0338379Y0111626D02*
X0386215Y0111626D01*
X0385950Y0110628D02*
X0334608Y0110628D01*
X0333609Y0109629D02*
X0385950Y0109629D01*
X0386775Y0108631D02*
X0332611Y0108631D01*
X0331612Y0107632D02*
X0389047Y0107632D01*
X0390045Y0106634D02*
X0330614Y0106634D01*
X0330508Y0105635D02*
X0391044Y0105635D01*
X0392042Y0104637D02*
X0330508Y0104637D01*
X0330508Y0103638D02*
X0398429Y0103638D01*
X0396816Y0102640D02*
X0330508Y0102640D01*
X0330611Y0101641D02*
X0395900Y0101641D01*
X0395900Y0100643D02*
X0331408Y0100643D01*
X0331408Y0099644D02*
X0396032Y0099644D01*
X0397031Y0098646D02*
X0331115Y0098646D01*
X0330116Y0097647D02*
X0397899Y0097647D01*
X0397628Y0096649D02*
X0319801Y0096649D01*
X0319555Y0096649D02*
X0317078Y0096649D01*
X0316833Y0096649D02*
X0311547Y0096649D01*
X0311478Y0096649D02*
X0309539Y0096649D01*
X0309539Y0097647D02*
X0328100Y0097647D01*
X0327102Y0098646D02*
X0309539Y0098646D01*
X0309539Y0099644D02*
X0326808Y0099644D01*
X0326808Y0100643D02*
X0309539Y0100643D01*
X0309539Y0101641D02*
X0327605Y0101641D01*
X0327708Y0102640D02*
X0309539Y0102640D01*
X0309539Y0103638D02*
X0327708Y0103638D01*
X0327708Y0104637D02*
X0309539Y0104637D01*
X0309539Y0105635D02*
X0327708Y0105635D01*
X0327708Y0106634D02*
X0309539Y0106634D01*
X0309539Y0107632D02*
X0327708Y0107632D01*
X0328651Y0108631D02*
X0309539Y0108631D01*
X0309539Y0109629D02*
X0329650Y0109629D01*
X0330648Y0110628D02*
X0309539Y0110628D01*
X0309539Y0111626D02*
X0331647Y0111626D01*
X0332645Y0112625D02*
X0309539Y0112625D01*
X0309539Y0113623D02*
X0333644Y0113623D01*
X0334642Y0114622D02*
X0309539Y0114622D01*
X0309539Y0125606D02*
X0350642Y0125606D01*
X0350450Y0126604D02*
X0309539Y0126604D01*
X0309539Y0127603D02*
X0350450Y0127603D01*
X0351150Y0128601D02*
X0309539Y0128601D01*
X0309539Y0129600D02*
X0351150Y0129600D01*
X0351150Y0130598D02*
X0309539Y0130598D01*
X0309539Y0131597D02*
X0351150Y0131597D01*
X0351150Y0132595D02*
X0309539Y0132595D01*
X0309539Y0133594D02*
X0351150Y0133594D01*
X0351150Y0134592D02*
X0309539Y0134592D01*
X0309539Y0135591D02*
X0351150Y0135591D01*
X0351150Y0136589D02*
X0309539Y0136589D01*
X0309539Y0137588D02*
X0351150Y0137588D01*
X0351150Y0138586D02*
X0309539Y0138586D01*
X0309539Y0139585D02*
X0350663Y0139585D01*
X0350450Y0140583D02*
X0309539Y0140583D01*
X0309539Y0141582D02*
X0350450Y0141582D01*
X0351328Y0142580D02*
X0309539Y0142580D01*
X0309380Y0155561D02*
X0309717Y0155561D01*
X0309717Y0156559D02*
X0309539Y0156559D01*
X0309539Y0157558D02*
X0309668Y0157558D01*
X0309539Y0166545D02*
X0327708Y0166545D01*
X0327708Y0167543D02*
X0309539Y0167543D01*
X0309539Y0168542D02*
X0327708Y0168542D01*
X0327708Y0169540D02*
X0309539Y0169540D01*
X0309539Y0170539D02*
X0328559Y0170539D01*
X0329557Y0171537D02*
X0309539Y0171537D01*
X0309539Y0172536D02*
X0330556Y0172536D01*
X0331554Y0173534D02*
X0309539Y0173534D01*
X0309539Y0174533D02*
X0332553Y0174533D01*
X0333551Y0175531D02*
X0309539Y0175531D01*
X0309539Y0176530D02*
X0334550Y0176530D01*
X0335776Y0177528D02*
X0309539Y0177528D01*
X0352750Y0188750D02*
X0352750Y0192750D01*
X0352750Y0140750D02*
X0352750Y0130750D01*
X0377750Y0130750D01*
X0376342Y0132595D02*
X0354350Y0132595D01*
X0352750Y0130750D02*
X0352750Y0126750D01*
X0320788Y0095650D02*
X0402250Y0095650D01*
X0402250Y0096649D02*
X0403250Y0096649D01*
X0403250Y0097647D02*
X0402250Y0097647D01*
X0402250Y0098646D02*
X0403250Y0098646D01*
X0403250Y0099644D02*
X0402250Y0099644D01*
X0402250Y0100643D02*
X0403250Y0100643D01*
X0404519Y0100643D02*
X0406250Y0100643D01*
X0406250Y0101641D02*
X0405374Y0101641D01*
X0406210Y0099644D02*
X0406250Y0099644D01*
X0400981Y0100643D02*
X0400600Y0100643D01*
X0397659Y0094652D02*
X0320767Y0094652D01*
X0320101Y0093653D02*
X0397982Y0093653D01*
X0398571Y0092655D02*
X0320563Y0092655D01*
X0312892Y0095650D02*
X0312795Y0095650D01*
X0312949Y0095818D02*
X0312949Y0095818D01*
X0312949Y0095818D01*
X0309684Y0095650D02*
X0309539Y0095650D01*
X0309539Y0094652D02*
X0309717Y0094652D01*
X0309717Y0093653D02*
X0309473Y0093653D01*
X0309250Y0087250D02*
X0399462Y0087250D01*
X0398681Y0086469D01*
X0398134Y0085150D01*
X0392170Y0085150D01*
X0391350Y0084330D01*
X0387100Y0080080D01*
X0387100Y0058380D01*
X0386200Y0057480D01*
X0386200Y0055574D01*
X0387547Y0054227D01*
X0388888Y0054227D01*
X0388570Y0053909D01*
X0387297Y0053909D01*
X0385950Y0052562D01*
X0385950Y0050656D01*
X0386597Y0050009D01*
X0385950Y0049362D01*
X0385950Y0047456D01*
X0387297Y0046109D01*
X0388570Y0046109D01*
X0391509Y0043170D01*
X0392329Y0042350D01*
X0398134Y0042350D01*
X0398652Y0041100D01*
X0397277Y0041100D01*
X0395900Y0039723D01*
X0395900Y0037777D01*
X0397277Y0036400D01*
X0398264Y0036400D01*
X0397931Y0035746D01*
X0397678Y0034968D01*
X0397564Y0034250D01*
X0402250Y0034250D01*
X0402250Y0038936D01*
X0401532Y0038822D01*
X0400754Y0038569D01*
X0400600Y0038491D01*
X0400600Y0039445D01*
X0401795Y0038950D01*
X0403705Y0038950D01*
X0405469Y0039681D01*
X0406250Y0040462D01*
X0406250Y0037604D01*
X0406138Y0037716D01*
X0405475Y0038197D01*
X0404746Y0038569D01*
X0403968Y0038822D01*
X0403250Y0038936D01*
X0403250Y0034250D01*
X0402250Y0034250D01*
X0402250Y0033250D01*
X0397564Y0033250D01*
X0397678Y0032532D01*
X0397931Y0031754D01*
X0398303Y0031025D01*
X0398784Y0030362D01*
X0398896Y0030250D01*
X0320833Y0030250D01*
X0319999Y0031500D01*
X0320937Y0032906D01*
X0320709Y0034043D01*
X0319744Y0034687D01*
X0318607Y0034459D01*
X0318317Y0034024D01*
X0318027Y0034459D01*
X0316889Y0034687D01*
X0316051Y0034128D01*
X0315389Y0034600D01*
X0314044Y0034600D01*
X0312949Y0033818D01*
X0312871Y0033589D01*
X0312052Y0034245D01*
X0311697Y0034600D01*
X0311608Y0034600D01*
X0311538Y0034655D01*
X0311039Y0034600D01*
X0310537Y0034600D01*
X0310474Y0034537D01*
X0310386Y0034527D01*
X0310072Y0034135D01*
X0309717Y0033780D01*
X0309717Y0033691D01*
X0309661Y0033622D01*
X0309717Y0033122D01*
X0309717Y0031200D01*
X0309592Y0031200D01*
X0309250Y0030858D01*
X0309250Y0031431D01*
X0309539Y0031720D01*
X0309539Y0085780D01*
X0309250Y0086069D01*
X0309250Y0087250D01*
X0309250Y0086664D02*
X0398875Y0086664D01*
X0398348Y0085665D02*
X0309539Y0085665D01*
X0309539Y0084667D02*
X0391687Y0084667D01*
X0390688Y0083668D02*
X0309539Y0083668D01*
X0309539Y0082670D02*
X0389690Y0082670D01*
X0388691Y0081671D02*
X0309539Y0081671D01*
X0309539Y0080673D02*
X0351420Y0080673D01*
X0351797Y0081050D02*
X0350450Y0079703D01*
X0350450Y0077797D01*
X0351150Y0077097D01*
X0351150Y0066403D01*
X0350450Y0065703D01*
X0350450Y0063797D01*
X0351797Y0062450D01*
X0353703Y0062450D01*
X0355050Y0063797D01*
X0355050Y0065703D01*
X0354350Y0066403D01*
X0354350Y0067150D01*
X0376097Y0067150D01*
X0376797Y0066450D01*
X0378703Y0066450D01*
X0380050Y0067797D01*
X0380050Y0069703D01*
X0378703Y0071050D01*
X0376797Y0071050D01*
X0376097Y0070350D01*
X0354350Y0070350D01*
X0354350Y0077097D01*
X0355050Y0077797D01*
X0355050Y0079703D01*
X0353703Y0081050D01*
X0351797Y0081050D01*
X0350450Y0079674D02*
X0309539Y0079674D01*
X0309539Y0078676D02*
X0350450Y0078676D01*
X0350570Y0077677D02*
X0309539Y0077677D01*
X0309539Y0076679D02*
X0351150Y0076679D01*
X0351150Y0075680D02*
X0309539Y0075680D01*
X0309539Y0074682D02*
X0351150Y0074682D01*
X0351150Y0073683D02*
X0309539Y0073683D01*
X0309539Y0072684D02*
X0351150Y0072684D01*
X0351150Y0071686D02*
X0309539Y0071686D01*
X0309539Y0070687D02*
X0351150Y0070687D01*
X0351150Y0069689D02*
X0309539Y0069689D01*
X0309539Y0068690D02*
X0351150Y0068690D01*
X0351150Y0067692D02*
X0309539Y0067692D01*
X0309539Y0066693D02*
X0351150Y0066693D01*
X0350450Y0065695D02*
X0309539Y0065695D01*
X0309539Y0064696D02*
X0350450Y0064696D01*
X0350549Y0063698D02*
X0309539Y0063698D01*
X0309539Y0062699D02*
X0351548Y0062699D01*
X0352750Y0064750D02*
X0352750Y0068750D01*
X0377750Y0068750D01*
X0380050Y0068690D02*
X0387100Y0068690D01*
X0387100Y0067692D02*
X0379945Y0067692D01*
X0378946Y0066693D02*
X0387100Y0066693D01*
X0387100Y0065695D02*
X0355050Y0065695D01*
X0355050Y0064696D02*
X0387100Y0064696D01*
X0387100Y0063698D02*
X0354951Y0063698D01*
X0353952Y0062699D02*
X0387100Y0062699D01*
X0387100Y0061701D02*
X0309539Y0061701D01*
X0309539Y0060702D02*
X0387100Y0060702D01*
X0387100Y0059704D02*
X0309539Y0059704D01*
X0309539Y0058705D02*
X0387100Y0058705D01*
X0386427Y0057707D02*
X0309539Y0057707D01*
X0309539Y0056708D02*
X0386200Y0056708D01*
X0386200Y0055710D02*
X0309539Y0055710D01*
X0309539Y0054711D02*
X0387063Y0054711D01*
X0387101Y0053713D02*
X0309539Y0053713D01*
X0309539Y0052714D02*
X0334962Y0052714D01*
X0334897Y0052650D02*
X0335797Y0053550D01*
X0337703Y0053550D01*
X0339050Y0052203D01*
X0339050Y0050297D01*
X0337703Y0048950D01*
X0335797Y0048950D01*
X0335364Y0049384D01*
X0330508Y0044528D01*
X0330508Y0039744D01*
X0331408Y0038844D01*
X0331408Y0036939D01*
X0330061Y0035592D01*
X0328156Y0035592D01*
X0326808Y0036939D01*
X0326808Y0038844D01*
X0327708Y0039744D01*
X0327708Y0045688D01*
X0328528Y0046508D01*
X0328528Y0046508D01*
X0333850Y0051830D01*
X0333850Y0051830D01*
X0334670Y0052650D01*
X0334897Y0052650D01*
X0333736Y0051716D02*
X0309539Y0051716D01*
X0309539Y0050717D02*
X0332737Y0050717D01*
X0331739Y0049719D02*
X0309539Y0049719D01*
X0309539Y0048720D02*
X0330740Y0048720D01*
X0329742Y0047722D02*
X0309539Y0047722D01*
X0309539Y0046723D02*
X0328743Y0046723D01*
X0327745Y0045725D02*
X0309539Y0045725D01*
X0309539Y0044726D02*
X0327708Y0044726D01*
X0327708Y0043728D02*
X0309539Y0043728D01*
X0309539Y0042729D02*
X0327708Y0042729D01*
X0327708Y0041731D02*
X0309539Y0041731D01*
X0309539Y0040732D02*
X0327708Y0040732D01*
X0327697Y0039734D02*
X0309539Y0039734D01*
X0309539Y0038735D02*
X0326808Y0038735D01*
X0326808Y0037737D02*
X0309539Y0037737D01*
X0309539Y0036738D02*
X0327009Y0036738D01*
X0328008Y0035740D02*
X0309539Y0035740D01*
X0309539Y0034741D02*
X0397642Y0034741D01*
X0397929Y0035740D02*
X0330209Y0035740D01*
X0331207Y0036738D02*
X0396938Y0036738D01*
X0395940Y0037737D02*
X0331408Y0037737D01*
X0331408Y0038735D02*
X0395900Y0038735D01*
X0395910Y0039734D02*
X0330519Y0039734D01*
X0330508Y0040732D02*
X0396909Y0040732D01*
X0398391Y0041731D02*
X0330508Y0041731D01*
X0330508Y0042729D02*
X0391950Y0042729D01*
X0390951Y0043728D02*
X0330508Y0043728D01*
X0330706Y0044726D02*
X0389953Y0044726D01*
X0388954Y0045725D02*
X0331705Y0045725D01*
X0332703Y0046723D02*
X0386683Y0046723D01*
X0385950Y0047722D02*
X0333702Y0047722D01*
X0334700Y0048720D02*
X0385950Y0048720D01*
X0386307Y0049719D02*
X0338471Y0049719D01*
X0339050Y0050717D02*
X0385950Y0050717D01*
X0385950Y0051716D02*
X0339050Y0051716D01*
X0338538Y0052714D02*
X0386103Y0052714D01*
X0376554Y0066693D02*
X0354350Y0066693D01*
X0352750Y0068750D02*
X0352750Y0078750D01*
X0355050Y0078676D02*
X0387100Y0078676D01*
X0387100Y0079674D02*
X0355050Y0079674D01*
X0354080Y0080673D02*
X0387693Y0080673D01*
X0387100Y0077677D02*
X0354930Y0077677D01*
X0354350Y0076679D02*
X0387100Y0076679D01*
X0387100Y0075680D02*
X0354350Y0075680D01*
X0354350Y0074682D02*
X0387100Y0074682D01*
X0387100Y0073683D02*
X0354350Y0073683D01*
X0354350Y0072684D02*
X0387100Y0072684D01*
X0387100Y0071686D02*
X0354350Y0071686D01*
X0354350Y0070687D02*
X0376435Y0070687D01*
X0379065Y0070687D02*
X0387100Y0070687D01*
X0387100Y0069689D02*
X0380050Y0069689D01*
X0400600Y0038735D02*
X0401265Y0038735D01*
X0402250Y0038735D02*
X0403250Y0038735D01*
X0404235Y0038735D02*
X0406250Y0038735D01*
X0406250Y0037737D02*
X0406110Y0037737D01*
X0406250Y0039734D02*
X0405522Y0039734D01*
X0403250Y0037737D02*
X0402250Y0037737D01*
X0402250Y0036738D02*
X0403250Y0036738D01*
X0403250Y0035740D02*
X0402250Y0035740D01*
X0402250Y0034741D02*
X0403250Y0034741D01*
X0402250Y0033743D02*
X0320769Y0033743D01*
X0320829Y0032744D02*
X0397645Y0032744D01*
X0397935Y0031746D02*
X0320163Y0031746D01*
X0320501Y0030747D02*
X0398504Y0030747D01*
X0314044Y0034600D02*
X0314044Y0034600D01*
X0312949Y0033818D02*
X0312949Y0033818D01*
X0312923Y0033743D02*
X0312680Y0033743D01*
X0309717Y0033743D02*
X0309539Y0033743D01*
X0309539Y0032744D02*
X0309717Y0032744D01*
X0309717Y0031746D02*
X0309539Y0031746D01*
X0279250Y0037604D02*
X0279138Y0037716D01*
X0278475Y0038197D01*
X0277746Y0038569D01*
X0276968Y0038822D01*
X0276250Y0038936D01*
X0276250Y0034250D01*
X0275250Y0034250D01*
X0275250Y0038936D01*
X0274532Y0038822D01*
X0273754Y0038569D01*
X0273600Y0038491D01*
X0273600Y0039445D01*
X0274795Y0038950D01*
X0276705Y0038950D01*
X0278469Y0039681D01*
X0279250Y0040462D01*
X0279250Y0037604D01*
X0279250Y0037737D02*
X0279110Y0037737D01*
X0279250Y0038735D02*
X0277235Y0038735D01*
X0276250Y0038735D02*
X0275250Y0038735D01*
X0274265Y0038735D02*
X0273600Y0038735D01*
X0275250Y0037737D02*
X0276250Y0037737D01*
X0276250Y0036738D02*
X0275250Y0036738D01*
X0275250Y0035740D02*
X0276250Y0035740D01*
X0276250Y0034741D02*
X0275250Y0034741D01*
X0275250Y0034250D02*
X0275250Y0033250D01*
X0270564Y0033250D01*
X0270678Y0032532D01*
X0270931Y0031754D01*
X0271303Y0031025D01*
X0271784Y0030362D01*
X0271896Y0030250D01*
X0193833Y0030250D01*
X0192999Y0031500D01*
X0193937Y0032906D01*
X0193709Y0034043D01*
X0192744Y0034687D01*
X0191607Y0034459D01*
X0191317Y0034024D01*
X0191027Y0034459D01*
X0189889Y0034687D01*
X0189051Y0034128D01*
X0188389Y0034600D01*
X0187044Y0034600D01*
X0185949Y0033818D01*
X0185871Y0033589D01*
X0185052Y0034245D01*
X0184697Y0034600D01*
X0184608Y0034600D01*
X0184538Y0034655D01*
X0184039Y0034600D01*
X0183537Y0034600D01*
X0183474Y0034537D01*
X0183386Y0034527D01*
X0183072Y0034135D01*
X0182717Y0033780D01*
X0182717Y0033691D01*
X0182661Y0033622D01*
X0182717Y0033122D01*
X0182717Y0031200D01*
X0182592Y0031200D01*
X0182250Y0030858D01*
X0182250Y0031431D01*
X0182539Y0031720D01*
X0182539Y0085780D01*
X0182250Y0086069D01*
X0182250Y0087250D01*
X0272462Y0087250D01*
X0271681Y0086469D01*
X0271134Y0085150D01*
X0265170Y0085150D01*
X0264350Y0084330D01*
X0260100Y0080080D01*
X0260100Y0058380D01*
X0259200Y0057480D01*
X0259200Y0055574D01*
X0260547Y0054227D01*
X0261888Y0054227D01*
X0261570Y0053909D01*
X0260297Y0053909D01*
X0258950Y0052562D01*
X0258950Y0050656D01*
X0259597Y0050009D01*
X0258950Y0049362D01*
X0258950Y0047456D01*
X0260297Y0046109D01*
X0261570Y0046109D01*
X0264509Y0043170D01*
X0265329Y0042350D01*
X0271134Y0042350D01*
X0271652Y0041100D01*
X0270277Y0041100D01*
X0268900Y0039723D01*
X0268900Y0037777D01*
X0270277Y0036400D01*
X0271264Y0036400D01*
X0270931Y0035746D01*
X0270678Y0034968D01*
X0270564Y0034250D01*
X0275250Y0034250D01*
X0275250Y0033743D02*
X0193769Y0033743D01*
X0193829Y0032744D02*
X0270645Y0032744D01*
X0270935Y0031746D02*
X0193163Y0031746D01*
X0193501Y0030747D02*
X0271504Y0030747D01*
X0270642Y0034741D02*
X0182539Y0034741D01*
X0182539Y0033743D02*
X0182717Y0033743D01*
X0182717Y0032744D02*
X0182539Y0032744D01*
X0182539Y0031746D02*
X0182717Y0031746D01*
X0185680Y0033743D02*
X0185923Y0033743D01*
X0185949Y0033818D02*
X0185949Y0033818D01*
X0185949Y0033818D01*
X0182539Y0035740D02*
X0201008Y0035740D01*
X0201156Y0035592D02*
X0203061Y0035592D01*
X0204408Y0036939D01*
X0204408Y0038844D01*
X0203508Y0039744D01*
X0203508Y0044528D01*
X0208364Y0049384D01*
X0208797Y0048950D01*
X0210703Y0048950D01*
X0212050Y0050297D01*
X0212050Y0052203D01*
X0210703Y0053550D01*
X0208797Y0053550D01*
X0207897Y0052650D01*
X0207670Y0052650D01*
X0200708Y0045688D01*
X0200708Y0039744D01*
X0199808Y0038844D01*
X0199808Y0036939D01*
X0201156Y0035592D01*
X0200009Y0036738D02*
X0182539Y0036738D01*
X0182539Y0037737D02*
X0199808Y0037737D01*
X0199808Y0038735D02*
X0182539Y0038735D01*
X0182539Y0039734D02*
X0200697Y0039734D01*
X0200708Y0040732D02*
X0182539Y0040732D01*
X0182539Y0041731D02*
X0200708Y0041731D01*
X0200708Y0042729D02*
X0182539Y0042729D01*
X0182539Y0043728D02*
X0200708Y0043728D01*
X0200708Y0044726D02*
X0182539Y0044726D01*
X0182539Y0045725D02*
X0200745Y0045725D01*
X0201743Y0046723D02*
X0182539Y0046723D01*
X0182539Y0047722D02*
X0202742Y0047722D01*
X0203740Y0048720D02*
X0182539Y0048720D01*
X0182539Y0049719D02*
X0204739Y0049719D01*
X0205737Y0050717D02*
X0182539Y0050717D01*
X0182539Y0051716D02*
X0206736Y0051716D01*
X0207962Y0052714D02*
X0182539Y0052714D01*
X0182539Y0053713D02*
X0260101Y0053713D01*
X0260063Y0054711D02*
X0182539Y0054711D01*
X0182539Y0055710D02*
X0259200Y0055710D01*
X0259200Y0056708D02*
X0182539Y0056708D01*
X0182539Y0057707D02*
X0259427Y0057707D01*
X0260100Y0058705D02*
X0182539Y0058705D01*
X0182539Y0059704D02*
X0260100Y0059704D01*
X0260100Y0060702D02*
X0182539Y0060702D01*
X0182539Y0061701D02*
X0260100Y0061701D01*
X0260100Y0062699D02*
X0226952Y0062699D01*
X0226703Y0062450D02*
X0228050Y0063797D01*
X0228050Y0065703D01*
X0227350Y0066403D01*
X0227350Y0067150D01*
X0249097Y0067150D01*
X0249797Y0066450D01*
X0251703Y0066450D01*
X0253050Y0067797D01*
X0253050Y0069703D01*
X0251703Y0071050D01*
X0249797Y0071050D01*
X0249097Y0070350D01*
X0227350Y0070350D01*
X0227350Y0077097D01*
X0228050Y0077797D01*
X0228050Y0079703D01*
X0226703Y0081050D01*
X0224797Y0081050D01*
X0223450Y0079703D01*
X0223450Y0077797D01*
X0224150Y0077097D01*
X0224150Y0066403D01*
X0223450Y0065703D01*
X0223450Y0063797D01*
X0224797Y0062450D01*
X0226703Y0062450D01*
X0227951Y0063698D02*
X0260100Y0063698D01*
X0260100Y0064696D02*
X0228050Y0064696D01*
X0228050Y0065695D02*
X0260100Y0065695D01*
X0260100Y0066693D02*
X0251946Y0066693D01*
X0252945Y0067692D02*
X0260100Y0067692D01*
X0260100Y0068690D02*
X0253050Y0068690D01*
X0253050Y0069689D02*
X0260100Y0069689D01*
X0260100Y0070687D02*
X0252065Y0070687D01*
X0250750Y0068750D02*
X0225750Y0068750D01*
X0225750Y0078750D01*
X0228050Y0078676D02*
X0260100Y0078676D01*
X0260100Y0079674D02*
X0228050Y0079674D01*
X0227080Y0080673D02*
X0260693Y0080673D01*
X0261691Y0081671D02*
X0182539Y0081671D01*
X0182539Y0080673D02*
X0224420Y0080673D01*
X0223450Y0079674D02*
X0182539Y0079674D01*
X0182539Y0078676D02*
X0223450Y0078676D01*
X0223570Y0077677D02*
X0182539Y0077677D01*
X0182539Y0076679D02*
X0224150Y0076679D01*
X0224150Y0075680D02*
X0182539Y0075680D01*
X0182539Y0074682D02*
X0224150Y0074682D01*
X0224150Y0073683D02*
X0182539Y0073683D01*
X0182539Y0072684D02*
X0224150Y0072684D01*
X0224150Y0071686D02*
X0182539Y0071686D01*
X0182539Y0070687D02*
X0224150Y0070687D01*
X0224150Y0069689D02*
X0182539Y0069689D01*
X0182539Y0068690D02*
X0224150Y0068690D01*
X0224150Y0067692D02*
X0182539Y0067692D01*
X0182539Y0066693D02*
X0224150Y0066693D01*
X0223450Y0065695D02*
X0182539Y0065695D01*
X0182539Y0064696D02*
X0223450Y0064696D01*
X0223549Y0063698D02*
X0182539Y0063698D01*
X0182539Y0062699D02*
X0224548Y0062699D01*
X0225750Y0064750D02*
X0225750Y0068750D01*
X0227350Y0070687D02*
X0249435Y0070687D01*
X0249554Y0066693D02*
X0227350Y0066693D01*
X0227350Y0071686D02*
X0260100Y0071686D01*
X0260100Y0072684D02*
X0227350Y0072684D01*
X0227350Y0073683D02*
X0260100Y0073683D01*
X0260100Y0074682D02*
X0227350Y0074682D01*
X0227350Y0075680D02*
X0260100Y0075680D01*
X0260100Y0076679D02*
X0227350Y0076679D01*
X0227930Y0077677D02*
X0260100Y0077677D01*
X0262690Y0082670D02*
X0182539Y0082670D01*
X0182539Y0083668D02*
X0263688Y0083668D01*
X0264687Y0084667D02*
X0182539Y0084667D01*
X0182539Y0085665D02*
X0271348Y0085665D01*
X0271875Y0086664D02*
X0182250Y0086664D01*
X0182473Y0093653D02*
X0182717Y0093653D01*
X0182717Y0094652D02*
X0182539Y0094652D01*
X0182539Y0095650D02*
X0182684Y0095650D01*
X0185795Y0095650D02*
X0185892Y0095650D01*
X0185949Y0095818D02*
X0185949Y0095818D01*
X0185949Y0095818D01*
X0193101Y0093653D02*
X0270982Y0093653D01*
X0270659Y0094652D02*
X0193767Y0094652D01*
X0193788Y0095650D02*
X0275250Y0095650D01*
X0275250Y0096649D02*
X0276250Y0096649D01*
X0276250Y0097647D02*
X0275250Y0097647D01*
X0275250Y0098646D02*
X0276250Y0098646D01*
X0276250Y0099644D02*
X0275250Y0099644D01*
X0275250Y0100643D02*
X0276250Y0100643D01*
X0277519Y0100643D02*
X0279250Y0100643D01*
X0279250Y0101641D02*
X0278374Y0101641D01*
X0279210Y0099644D02*
X0279250Y0099644D01*
X0273981Y0100643D02*
X0273600Y0100643D01*
X0271571Y0092655D02*
X0193563Y0092655D01*
X0211538Y0052714D02*
X0259103Y0052714D01*
X0258950Y0051716D02*
X0212050Y0051716D01*
X0212050Y0050717D02*
X0258950Y0050717D01*
X0259307Y0049719D02*
X0211471Y0049719D01*
X0207700Y0048720D02*
X0258950Y0048720D01*
X0258950Y0047722D02*
X0206702Y0047722D01*
X0205703Y0046723D02*
X0259683Y0046723D01*
X0261954Y0045725D02*
X0204705Y0045725D01*
X0203706Y0044726D02*
X0262953Y0044726D01*
X0263951Y0043728D02*
X0203508Y0043728D01*
X0203508Y0042729D02*
X0264950Y0042729D01*
X0268910Y0039734D02*
X0203519Y0039734D01*
X0203508Y0040732D02*
X0269909Y0040732D01*
X0271391Y0041731D02*
X0203508Y0041731D01*
X0204408Y0038735D02*
X0268900Y0038735D01*
X0268940Y0037737D02*
X0204408Y0037737D01*
X0204207Y0036738D02*
X0269938Y0036738D01*
X0270929Y0035740D02*
X0203209Y0035740D01*
X0152250Y0037737D02*
X0152110Y0037737D01*
X0152250Y0038735D02*
X0150235Y0038735D01*
X0149250Y0038735D02*
X0148250Y0038735D01*
X0147265Y0038735D02*
X0146600Y0038735D01*
X0148250Y0037737D02*
X0149250Y0037737D01*
X0149250Y0036738D02*
X0148250Y0036738D01*
X0148250Y0035740D02*
X0149250Y0035740D01*
X0149250Y0034741D02*
X0148250Y0034741D01*
X0148250Y0033743D02*
X0066769Y0033743D01*
X0066829Y0032744D02*
X0143645Y0032744D01*
X0143935Y0031746D02*
X0066163Y0031746D01*
X0066501Y0030747D02*
X0144504Y0030747D01*
X0151522Y0039734D02*
X0152250Y0039734D01*
X0122554Y0066693D02*
X0100350Y0066693D01*
X0098750Y0064750D02*
X0098750Y0068750D01*
X0100350Y0070687D02*
X0122435Y0070687D01*
X0080962Y0052714D02*
X0055539Y0052714D01*
X0055539Y0051716D02*
X0079736Y0051716D01*
X0078737Y0050717D02*
X0055539Y0050717D01*
X0055539Y0049719D02*
X0077739Y0049719D01*
X0076740Y0048720D02*
X0055539Y0048720D01*
X0055539Y0047722D02*
X0075742Y0047722D01*
X0074743Y0046723D02*
X0055539Y0046723D01*
X0055539Y0045725D02*
X0073745Y0045725D01*
X0073708Y0044726D02*
X0055539Y0044726D01*
X0055539Y0043728D02*
X0073708Y0043728D01*
X0073708Y0042729D02*
X0055539Y0042729D01*
X0055539Y0041731D02*
X0073708Y0041731D01*
X0073708Y0040732D02*
X0055539Y0040732D01*
X0055539Y0039734D02*
X0073697Y0039734D01*
X0072808Y0038735D02*
X0055539Y0038735D01*
X0055539Y0037737D02*
X0072808Y0037737D01*
X0073009Y0036738D02*
X0055539Y0036738D01*
X0055539Y0035740D02*
X0074008Y0035740D01*
X0058923Y0033743D02*
X0058680Y0033743D01*
X0055717Y0093653D02*
X0055473Y0093653D01*
X0055539Y0094652D02*
X0055717Y0094652D01*
X0055684Y0095650D02*
X0055539Y0095650D01*
X0055539Y0098646D02*
X0073102Y0098646D01*
X0072808Y0099644D02*
X0055539Y0099644D01*
X0055539Y0100643D02*
X0072808Y0100643D01*
X0073605Y0101641D02*
X0055539Y0101641D01*
X0055539Y0102640D02*
X0073708Y0102640D01*
X0073708Y0103638D02*
X0055539Y0103638D01*
X0055539Y0104637D02*
X0073708Y0104637D01*
X0073708Y0105635D02*
X0055539Y0105635D01*
X0055539Y0106634D02*
X0073708Y0106634D01*
X0073708Y0107632D02*
X0055539Y0107632D01*
X0055539Y0108631D02*
X0074651Y0108631D01*
X0075650Y0109629D02*
X0055539Y0109629D01*
X0055539Y0110628D02*
X0076648Y0110628D01*
X0077647Y0111626D02*
X0055539Y0111626D01*
X0058949Y0095818D02*
X0058949Y0095818D01*
X0058949Y0095818D01*
X0058892Y0095650D02*
X0058795Y0095650D01*
X0084379Y0111626D02*
X0132215Y0111626D01*
X0131981Y0112625D02*
X0085050Y0112625D01*
X0085050Y0113623D02*
X0131950Y0113623D01*
X0132010Y0114622D02*
X0084631Y0114622D01*
X0101050Y0141582D02*
X0133100Y0141582D01*
X0133600Y0142580D02*
X0100172Y0142580D01*
X0225750Y0140750D02*
X0225750Y0130750D01*
X0250750Y0130750D01*
X0249342Y0132595D02*
X0227350Y0132595D01*
X0225750Y0130750D02*
X0225750Y0126750D01*
X0278522Y0039734D02*
X0279250Y0039734D01*
X0309250Y0279376D02*
X0309717Y0279376D01*
X0309717Y0280375D02*
X0309539Y0280375D01*
X0309539Y0281373D02*
X0309689Y0281373D01*
X0309539Y0317320D02*
X0351150Y0317320D01*
X0351150Y0318318D02*
X0309539Y0318318D01*
X0309539Y0319317D02*
X0351150Y0319317D01*
X0351150Y0320315D02*
X0309539Y0320315D01*
X0309539Y0321314D02*
X0351150Y0321314D01*
X0351150Y0322312D02*
X0309539Y0322312D01*
X0309539Y0323311D02*
X0351150Y0323311D01*
X0351150Y0324309D02*
X0309539Y0324309D01*
X0309539Y0325308D02*
X0350939Y0325308D01*
X0350450Y0326306D02*
X0309539Y0326306D01*
X0309539Y0327305D02*
X0350450Y0327305D01*
X0351051Y0328303D02*
X0309539Y0328303D01*
X0309539Y0329302D02*
X0388322Y0329302D01*
X0389321Y0330300D02*
X0309539Y0330300D01*
X0309539Y0331299D02*
X0390319Y0331299D01*
X0391318Y0332297D02*
X0309539Y0332297D01*
X0309539Y0333296D02*
X0398195Y0333296D01*
X0398608Y0334294D02*
X0309250Y0334294D01*
X0352750Y0326750D02*
X0352750Y0316750D01*
X0377750Y0316750D01*
X0379434Y0318318D02*
X0387100Y0318318D01*
X0387100Y0317320D02*
X0380050Y0317320D01*
X0380050Y0316321D02*
X0387100Y0316321D01*
X0387100Y0315323D02*
X0379575Y0315323D01*
X0387100Y0314324D02*
X0354428Y0314324D01*
X0355050Y0313326D02*
X0387100Y0313326D01*
X0387100Y0312327D02*
X0355050Y0312327D01*
X0354581Y0311329D02*
X0387100Y0311329D01*
X0387100Y0319317D02*
X0354350Y0319317D01*
X0354350Y0320315D02*
X0387100Y0320315D01*
X0387100Y0321314D02*
X0354350Y0321314D01*
X0354350Y0322312D02*
X0387100Y0322312D01*
X0387100Y0323311D02*
X0354350Y0323311D01*
X0354350Y0324309D02*
X0387100Y0324309D01*
X0387100Y0325308D02*
X0354561Y0325308D01*
X0355050Y0326306D02*
X0387100Y0326306D01*
X0387100Y0327305D02*
X0355050Y0327305D01*
X0354449Y0328303D02*
X0387323Y0328303D01*
X0352750Y0316750D02*
X0352750Y0312750D01*
M02*
